<svg xmlns="http://www.w3.org/2000/svg" width="20.351" height="20.351" viewBox="0 0 20.351 20.351">
  <path id="Path_512" data-name="Path 512" d="M144.731,116.5H126.62a1.12,1.12,0,0,0-1.12,1.12v18.111a1.12,1.12,0,0,0,1.12,1.12h9.714v-7.869l-2.63-.013v-3.087h2.63v-2.539a3.769,3.769,0,0,1,3.769-3.769l2.608.135q-.021,1.374-.042,2.749h-1.987a1.177,1.177,0,0,0-1.184,1.207v2.218h3.087l-.423,3.129L139.5,129v7.853h5.233a1.12,1.12,0,0,0,1.12-1.12V117.62A1.12,1.12,0,0,0,144.731,116.5Z" transform="translate(-125.5 -116.5)" fill="#522a2a"/>
</svg>
