<svg xmlns="http://www.w3.org/2000/svg" viewBox="0 0 502.24 502.24"><defs><style>.cls-1{fill:#fff;}</style></defs><title>Instagram</title><g id="Layer_2" data-name="Layer 2"><g id="Layer_3" data-name="Layer 3"><path class="cls-1" d="M358.41,0H143.83A143.82,143.82,0,0,0,0,143.83V358.41A143.83,143.83,0,0,0,143.83,502.24H358.41A143.84,143.84,0,0,0,502.24,358.41V143.83A143.83,143.83,0,0,0,358.41,0Zm98.83,358.33A98.65,98.65,0,0,1,358.59,457H143.27a98.64,98.64,0,0,1-98.65-98.65V143a98.65,98.65,0,0,1,98.65-98.65H358.59A98.65,98.65,0,0,1,457.24,143Z"/><path class="cls-1" d="M251.24,121A130.12,130.12,0,1,0,381.35,251.12,130.12,130.12,0,0,0,251.24,121Zm0,212.24a83,83,0,1,1,83-83A83,83,0,0,1,251.24,333.24Z"/><circle class="cls-1" cx="385.76" cy="115.76" r="30.52"/></g></g></svg>