<svg id="Layer_2" data-name="Layer 2" xmlns="http://www.w3.org/2000/svg" width="303.69" height="470.261" viewBox="0 0 303.69 470.261">
  <g id="Final">
    <path id="Path_669" data-name="Path 669" d="M361.608,449.118,156.382,470.261Q155,235.124,153.62,0L363.441,10.125Q362.524,229.606,361.608,449.118Z" transform="translate(-59.751)" fill="#522a2a"/>
    <ellipse id="Ellipse_13" data-name="Ellipse 13" cx="45.095" cy="48.315" rx="45.095" ry="48.315" transform="translate(161.964 337.737)"/>
    <path id="Path_670" data-name="Path 670" d="M3.666,398.475l92.964,71.786Q95.25,235.124,93.869,0L0,35.893Q1.833,217.178,3.666,398.475Z" fill="#4f3737"/>
    <ellipse id="Ellipse_14" data-name="Ellipse 14" cx="28.53" cy="7.821" rx="28.53" ry="7.821" transform="translate(195.04 347.862)" fill="#fff"/>
    <path id="Path_671" data-name="Path 671" d="M374.314,649.273V590.38H327.38v58.893h.037a25.9,25.9,0,0,0,5.945,7.333,27.178,27.178,0,0,0,5.059,3.434v10.388c0,1.528,5.567,2.762,12.423,2.762s12.429-1.222,12.429-2.762V660.112a27.607,27.607,0,0,0,5.139-3.477,25.86,25.86,0,0,0,5.939-7.333Z" transform="translate(-127.336 -229.631)" stroke="#fff" stroke-miterlimit="10" stroke-width="0.5"/>
    <ellipse id="Ellipse_15" data-name="Ellipse 15" cx="28.53" cy="7.821" rx="28.53" ry="7.821" transform="translate(195.04 353.386)" fill="#fff"/>
    <rect id="Rectangle_49" data-name="Rectangle 49" width="57.059" height="5.524" transform="translate(195.04 355.225)" fill="#fff"/>
  </g>
</svg>
