<svg xmlns="http://www.w3.org/2000/svg" width="529.973" height="535.173" viewBox="0 0 529.973 535.173">
  <g id="Group_75" data-name="Group 75" transform="translate(-139.5 -4823)">
    <g id="Layer_2" data-name="Layer 2" transform="translate(510.601 4823)">
      <g id="Final" transform="translate(0 0)">
        <path id="Path_661" data-name="Path 661" d="M147.262,178.425c-9.85-19.028-20.244-24.98-29.941-39.718-6.721-10.186-14.023-26.037-15.582-50.375V24.265a2.768,2.768,0,0,0,1.833-2.6v-9.1a2.768,2.768,0,0,0-1.833-2.6V8.6a8.6,8.6,0,0,0-8.6-8.6h-27.4a8.6,8.6,0,0,0-8.6,8.6v1.35a2.768,2.768,0,0,0-1.833,2.6v9.1a2.768,2.768,0,0,0,1.833,2.6V88.333c-1.528,24.338-8.86,40.188-15.582,50.375-9.7,14.738-20.091,20.69-29.941,39.718A112.078,112.078,0,0,0,0,216.921H0V508.39H.086c1.833,14.616,36.663,26.275,79.35,26.275s77.5-11.659,79.356-26.275h.079V216.921h0a112.078,112.078,0,0,0-11.61-38.5Z" transform="translate(0)" fill="#522a2a"/>
      </g>
    </g>
    <g id="Layer_2-2" data-name="Layer 2" transform="translate(192.767 4978)">
      <g id="Final-2" data-name="Final" transform="translate(0)">
        <path id="Path_663" data-name="Path 663" d="M82.6,136.874c-.745-13.645-5.261-21.081-9.276-25.358-4.772-5.09-10.388-7.363-13.6-14.665a23.647,23.647,0,0,1-1.833-7.119q0,23.263,0,46.531h0V89.31l.037.422V84.019a3.015,3.015,0,0,1-.037.458V19.242A2.768,2.768,0,0,0,59.418,16.8V6.447a2.78,2.78,0,0,0-2.841-2.78h-.312A8.6,8.6,0,0,0,49.226,0H33.436A8.6,8.6,0,0,0,26.4,3.666h-.312a2.78,2.78,0,0,0-2.78,2.78V16.773a2.768,2.768,0,0,0,1.528,2.444V90.08a23.342,23.342,0,0,1-1.741,6.159c-3.208,7.3-8.823,9.575-13.6,14.665-4,4.277-8.524,11.714-9.27,25.358H.134V364.311A5.1,5.1,0,0,0,0,365.405c0,7.76,18.466,14.054,41.246,14.054s41.246-6.294,41.246-14.054h.037V136.874Z" transform="translate(0)" fill="#522a2a"/>
      </g>
    </g>
    <g id="Layer_2-3" data-name="Layer 2" transform="translate(355.185 4903)">
      <g id="Final-3" data-name="Final" transform="translate(0 0)">
        <path id="Path_665" data-name="Path 665" d="M109.377,168.038a53.613,53.613,0,0,0-9.166-18.331c-3.63-4.662-6.471-6.605-12.832-12.832-3.6-3.526-7.864-7.974-12.453-13.37V21.918a2.78,2.78,0,0,0,2.139-2.7V13.779a2.78,2.78,0,0,0-2.139-2.7V8.634A8.6,8.6,0,0,0,66.323,0H43.207A8.6,8.6,0,0,0,34.6,8.6v2.444a2.786,2.786,0,0,0-2.139,2.7v5.438a2.786,2.786,0,0,0,2.139,2.7V123.321c-4.656,5.481-8.933,9.991-12.6,13.553-6.361,6.227-9.2,8.17-12.832,12.832A53.613,53.613,0,0,0,0,168.038H.073V435.957A6.044,6.044,0,0,0,0,436.9c0,9.777,24.485,17.72,54.689,17.72s54.689-7.944,54.689-17.72h.073V168.038Z" transform="translate(0 0)" fill="#522a2a"/>
      </g>
    </g>
    <g id="Layer_2-4" data-name="Layer 2" transform="translate(269.088 4884)">
      <g id="Final-4" data-name="Final">
        <path id="Path_664" data-name="Path 664" d="M105.1,257.25h.1c-2.872-24.625-6.575-43.879-9.294-56.467-5.86-27.13-10.388-38.294-15.8-64.734-3.96-19.34-6.172-35.838-7.394-47.4V24.362a2.786,2.786,0,0,0,2.139-2.7V16.223a2.786,2.786,0,0,0-2.139-2.7V8.634A8.6,8.6,0,0,0,64.111,0H40.989a8.6,8.6,0,0,0-8.6,8.6v4.888a2.786,2.786,0,0,0-2.139,2.7v5.438a2.786,2.786,0,0,0,2.139,2.731V90.5c-1.277,11.427-3.44,27.234-7.186,45.547-5.414,26.44-9.923,37.6-15.8,64.734C6.721,213.255,3.055,232.307.171,256.639H0v199.2H.1c0,9.777,23.525,17.72,52.55,17.72s52.55-7.944,52.55-17.72a6.268,6.268,0,0,0-.1-1.063Z" fill="#522a2a" stroke="#fff" stroke-width="1"/>
      </g>
    </g>
    <g id="Layer_2-5" data-name="Layer 2" transform="translate(423.56 4900)">
      <g id="Final-5" data-name="Final">
        <path id="Path_666" data-name="Path 666" d="M114.877,225.476c-7.705-24.069-13.657-33.98-20.776-57.438A318.3,318.3,0,0,1,83.713,121.6V21.82a2.768,2.768,0,0,0,1.833-2.6V13.779a2.768,2.768,0,0,0-1.833-2.6V8.6A8.6,8.6,0,0,0,75.11,0H51.988a8.6,8.6,0,0,0-8.6,8.6v2.444a2.768,2.768,0,0,0-2.444,2.744V19.23a2.768,2.768,0,0,0,2.444,2.744V121.6A318.309,318.309,0,0,1,33,168.038c-7.119,23.458-13.07,33.369-20.776,57.438A371.683,371.683,0,0,0,0,275.581V439.953c0,9.777,28.45,17.72,63.549,17.72s63.549-7.944,63.549-17.72V275.582a371.689,371.689,0,0,0-12.221-50.106Z" fill="#522a2a" stroke="#fff" stroke-width="1"/>
      </g>
    </g>
    <g id="Layer_2-6" data-name="Layer 2" transform="translate(140 5084)">
      <g id="Final-6" data-name="Final">
        <path id="Path_662" data-name="Path 662" d="M72.1,136.874c-2.365-7.29-4.613-10.461-7.858-18.8a131.613,131.613,0,0,1-6.2-20.922q0,.724,0,1.448V17.641a2.786,2.786,0,0,0,2.139-2.7V9.5a2.774,2.774,0,0,0-2.34-2.737A8.6,8.6,0,0,0,49.495,0H26.342a8.6,8.6,0,0,0-8.4,6.764A2.774,2.774,0,0,0,15.6,9.5V14.94a2.786,2.786,0,0,0,2.12,2.7V97.156a131.069,131.069,0,0,1-6.19,20.922c-3.251,8.335-5.5,11.506-7.864,18.8A77.1,77.1,0,0,0,0,157.039H0V257.861c0,8.439,16.963,15.276,37.885,15.276S75.77,266.3,75.77,257.861V157.039h0A77.1,77.1,0,0,0,72.1,136.874Z" fill="#522a2a" stroke="#fff" stroke-width="1"/>
      </g>
    </g>
  </g>
</svg>
