<svg xmlns="http://www.w3.org/2000/svg" width="473.453" height="711.665" viewBox="0 0 473.453 711.665">
  <g id="Group_74" data-name="Group 74" transform="translate(-723.023 -4646.5)">
    <g id="Layer_2" data-name="Layer 2" transform="translate(958.524 4888)">
      <g id="Final">
        <path id="Path_668" data-name="Path 668" d="M237.7,189.424a94.1,94.1,0,0,0-12.832-23.22c-5.108-6.722-14.7-19.419-30.253-26.666h0s-.91-1.442.312-3.886,6.721-21.387,6.721-21.387l1.222-9.777s.611-11.61-1.222-31.774-23.831-24.442-23.831-24.442H152.15L147.262,44h-.721l-1.467-7.333h3.837a1.913,1.913,0,0,0,1.919-1.919V31.86a1.913,1.913,0,0,0-1.919-1.919h-1.7V9.984A9.991,9.991,0,0,0,137.229,0H100.981A9.991,9.991,0,0,0,91,9.984V29.941H89.3a1.913,1.913,0,0,0-1.919,1.919v2.884A1.913,1.913,0,0,0,89.3,36.663h3.837Q79.436,105.1,65.761,173.537q5.3-27.185,10.62-54.383a56.644,56.644,0,0,1-10.388,9.777c-7.736,5.609-13.736,6.88-19.553,9.166C28.9,144.983,18.295,158.988,12.832,166.2A94.1,94.1,0,0,0,0,189.424H.257v221.2h0c.373,6.19,2.273,23.794,16,38.5,10.3,11,22.3,15.129,28.316,17.109a75.77,75.77,0,0,0,27.693,3.666h93.673a75.77,75.77,0,0,0,27.693-3.666c6.013-1.98,18.02-6.11,28.316-17.109,13.73-14.7,15.631-32.306,16-38.5h0v-221.2Zm-76.045-69.873h0l.99,1.155C162.294,120.3,161.958,119.918,161.652,119.551Zm1.222,1.381,3.019,3.116c-1.167-1.1-2.169-2.145-3.043-3.116Zm-1.222-1.576-6.324-31.438-2.566-13.37a17.721,17.721,0,0,1,3.666-3.666c8.524-6.282,20.055-2.5,22-1.833a19.071,19.071,0,0,1,4.888,6.721c1.521,3.593,1.326,6.471,1.222,12.832-.049,3.116-.1,7.944,0,14.054a63.2,63.2,0,0,1-6.11,12.832c-2.945,4.717-4.418,5.646-5.5,6.11-4.54,1.943-9.7-1.161-11.31-2.243Zm10.052,9.575a56.08,56.08,0,0,1-5.695-4.748l5.695,4.748,4.717,3.055a51.581,51.581,0,0,1-4.717-3.055Zm4.852,3.11,9.367,4.125a57.69,57.69,0,0,1-9.367-4.125Z" fill="#522a2a"/>
      </g>
    </g>
    <g id="Layer_2-2" data-name="Layer 2" transform="translate(828.523 4647)">
      <g id="Final-2" data-name="Final" transform="translate(0 0)">
        <path id="Path_667" data-name="Path 667" d="M186.283,263.38A99.485,99.485,0,0,0,172.657,225.5c-11.61-19.028-23.9-24.98-35.355-39.718-7.027-9.043-14.635-22.554-17.537-42.51V28.091a2.768,2.768,0,0,0,2.444-2.744v-14.6a2.774,2.774,0,0,0-2.475-2.75A8.6,8.6,0,0,0,111.18.05H75.207a8.6,8.6,0,0,0-8.555,7.974,2.774,2.774,0,0,0-2.444,2.75v14.6a2.768,2.768,0,0,0,2.444,2.744V143.267c-2.951,19.957-10.559,33.467-17.586,42.51C37.616,200.516,25.34,206.467,13.712,225.5A99.484,99.484,0,0,0,.086,263.38H0V682.557H0c.538,15.551,42.04,28.108,93.172,28.108s92.634-12.557,93.172-28.108h0V263.38Z" transform="translate(0 -0.05)" fill="#522a2a" stroke="#fff" stroke-width="1"/>
      </g>
    </g>
    <g id="Layer_2-3" data-name="Layer 2" transform="translate(723.524 4823)">
      <g id="Final-3" data-name="Final" transform="translate(0 0)">
        <path id="Path_661" data-name="Path 661" d="M147.262,178.425c-9.85-19.028-20.244-24.98-29.941-39.718-6.721-10.186-14.023-26.037-15.582-50.375V24.265a2.768,2.768,0,0,0,1.833-2.6v-9.1a2.768,2.768,0,0,0-1.833-2.6V8.6a8.6,8.6,0,0,0-8.6-8.6h-27.4a8.6,8.6,0,0,0-8.6,8.6v1.35a2.768,2.768,0,0,0-1.833,2.6v9.1a2.768,2.768,0,0,0,1.833,2.6V88.333c-1.528,24.338-8.86,40.188-15.582,50.375-9.7,14.738-20.091,20.69-29.941,39.718A112.078,112.078,0,0,0,0,216.921H0V508.39H.086c1.833,14.616,36.663,26.275,79.35,26.275s77.5-11.659,79.356-26.275h.079V216.921h0a112.078,112.078,0,0,0-11.61-38.5Z" transform="translate(0)" fill="#522a2a" stroke="#fff" stroke-width="1"/>
      </g>
    </g>
  </g>
</svg>
