<svg xmlns="http://www.w3.org/2000/svg" width="291" height="337.873" viewBox="0 0 291 337.873">
  <g id="Group_95" data-name="Group 95" transform="translate(-42 -2575.275)">
    <g id="Layer_2" data-name="Layer 2" transform="translate(42 2575.275)">
      <g id="Italy">
        <path id="Path_640" data-name="Path 640" d="M35.643,104.487l-5.859,3.906-1.953-.977-2.441,1.953-2.441-.488-1.953.977-1.465-.977v-1.465l-.977-.977,1.465-1.465V103.51l2.93-.977v-1.465l.977-1.465-.977-1.953.488-1.465-2.441.977-4.883.976-3.418-2.93L8.3,93.745l-.977-1.953L4.883,89.351l.488-1.465h.977L3.906,84.468l2.93-2.93V80.074l.488-.977,1.953-.488L8.3,76.168,8.789,74.7l-1.465-.977H5.371L2.93,71.285l-.488-2.441L.488,66.891,0,64.938l3.418-1.953.977.977,2.441-.977L8.3,62.008l1.465-.488,1.465-.977.977-.977-.977-.977,1.953-2.93-1.953-2.93-1.465-.488L8.789,49.8l.488-1.953-2.441-.488-2.441-2.93.488-2.441.488-.977,2.93-.488,1.953-1.465.977.977,2.93.488,1.953-1.953,2.93.977,3.418-2.441,2.441-.488,1.465,1.953h1.465l.977.488,1.953-2.93h.977L33.2,33.2l1.953-.977.488-2.441-.977-1.465L39.549,24.9l-.488-1.465L41.5,22.46l1.953-.977v2.93l-.977,2.93,1.953,1.465,1.953,2.441v.977l1.953.977,1.465-.488,1.953,1.953-.977,2.441,1.953.977.488,1.953V41.99h1.953l.977.977.977-2.441-2.007-2.812-.435-.605,1.465-.977v-.977L58.1,33.2l1.953-2.441,1.465-2.93.977-1.465L61.032,22.46l.977-1.465,2.441-.488.977.977.488-.977V24.9l1.953.488.977,1.953H70.8l1.465-1.953.977.488,2.93-.977h1.953v2.441l1.465.977V29.3l.977.488,1.465-1.465-.976-2.93.976-1.953-2.441-1.465L79.1,17.577l4.883-1.953v1.953l4.394,1.465.977-2.441L87.4,16.112l-.977-1.465,1.465-.977-1.953-.977,1.953-.488L87.4,11.23l.488-2.441,2.441.488L92.28,8.3l2.93.977-.977,2.441,6.836-.488,1.953-3.906L104,5.859V4.883l4.394-.977.977,1.465,1.953-2.441.976,1.465,1.465-.488,3.418.488L126.458,0l1.465.977-.488,1.953-1.953.488,1.465,2.441,2.441,1.953-.488,2.93h1.953l.976,1.953,2.441.977h4.883l.977,1.465.488-.977.488,1.465h6.836l3.906,1.465,2.93-1.465,8.3,2.441-1.465,2.441h-2.441V22.46l-2.93.977V24.9l-1.953.488,1.465,2.441h1.953l1.465.488h2.441v1.465l-2.93,2.93-.488,1.953.977,1.465,1.953-.488-.488,2.93,1.953,4.394h1.953l3.906,3.418-1.953,1.953-2.441-.488.488-1.465-2.441-2.93-.488-.488-.977.488h-.488l-.488.977-2.441.488-.977-.977h-2.93l-.977-.977-1.953.488-.976.977.488.488.977.488-.977,1.953-3.906.488-2.93,2.441-3.418,1.953L135.735,54.2l-1.465-.977.977-.977,1.465.488-.977-1.953-.488.977-2.441.977-1.953.977-.977,7.324,1.953.977.488,1.465-.976,1.465V66.4l.976.977v1.465h2.93V70.8l.977,1.953-.488.488H134.27l-.488.977-1.465-.488-.488,2.441-.488,2.441.488.977.488,4.883.977,4.394.488,3.418,4.394,5.859,4.883,3.418,3.906,1.953,4.394,2.441,3.418,3.418,4.394,2.93,1.465.977,2.441-.488,2.441,2.441-.488,1.953,1.465.977,1.953,4.394,1.465,3.418,1.953,2.93v2.93l.977,3.906.977,2.93.976,2.93,7.324,9.277,5.859,3.906-.488.977,4.883,2.93h1.465v1.953l.488.977,2.441.488,2.441.977,1.953.976,1.953,1.465,3.906.977h5.859v.488h-2.441v.488h3.418l1.465-1.953h2.93l-.488.977.488.488.977.488,1.465-.488V166.5l-.488-.488-.488-.488,1.953-.488h1.953l1.465-.488h1.953l1.465.977,1.953.977-.488,2.441v.977l-.977,1.465-1.465.977-.977.488-2.93,2.441v.977l.976.977v1.953l.488.977.976,1.465,1.465.977.977.977,3.418-.488L241.2,187l4.394.977,2.93.977,1.465.977H253.4l.488.977,1.953.488,2.441,1.465,2.441,1.465,1.953,2.441,3.906,1.465,3.906,1.465,2.93,1.953,3.418.488,1.465,2.93.977,1.953,2.93.976,3.418,1.465,3.906,4.394.977,2.93L291,218.25l-.488,2.93-.977,2.441-.488,1.465v2.441l-.488.977h-4.394l-4.883-3.906-.488-4.394-2.441-3.418-.488-1.465-3.418-.977h-3.418l-2.441.488h-1.465l-2.93-1.465h-1.465l-1.953-3.418-2.441-.977-.977-.488-1.465.976-.976.977-1.953.976-2.441,5.371-.976,3.906-2.93,3.418.977.977v2.93l-.977,1.465-1.465,1.465v4.394l.488,1.953.976,1.465h5.859v.977l8.789,5.371.488,1.465-.488.488v2.929l.977.977v1.465h-.488v2.93l.488,1.465H261.7v1.465l-.977,1.465-.977,1.465h-1.465l-.977-.488h-1.465l-.976.488H253.4l-.488.977h-1.465l-.488.977-1.953.977-1.465,1.953-.977.977v1.953l.488,2.441.488,2.441v3.906l-2.93,3.418-2.929,1.465-1.465,2.441-1.953,2.441-.488,1.465v2.93l-.977,1.465-.976,1.465-.977.488H232.9l-2.441.488h-2.441l-2.93-1.465-.488-2.441-.488-1.465.488-1.953-.976-1.465-.488-1.465,1.465-1.465,2.441-.488h.976l.488-1.465.977-1.465v-1.953l.977-1.953.488-.977v-.977l-2.441-1.953v-.977l1.953-.977,1.465-1.465,1.465-.488,1.465.488,1.953-2.93v-3.906l-.976-.488-1.465-1.953v-2.93l-.977-.488v-2.93l-.977-.488.488-3.906-1.953-2.441-.977-1.465-2.441-2.93-1.465-3.418-.976-3.418-.488-3.418-.976-1.953-.976-1.465-1.465-1.953h-1.465l-1.465-.488h-.977L216.3,228.5l-.977.488h-1.953l-1.465-1.465-.488-.976L208,223.621l-2.929.488-1.953-2.441-.488-.977,1.465-3.906-.488-.977-3.418-5.859-1.465-1.465-2.441.488h-1.953l-2.441.977-1.465.488-1.465-.488.977-.977.488-1.465-.977-.977-1.953-1.465-.976-.488-.977-.488h-5.371l-.977-2.441-.977-2.441L174.8,195.79l-1.953-3.418-2.441-1.465h-1.465l-1.465,1.465-2.93-1.953-1.953-.488h-2.93l-1.953.977-1.465.488-1.465.488-1.465-.977-.488-2.441-1.465-.977-2.441-1.465-2.441-.488-2.93-.488-1.953-2.441-1.465-2.441-1.465-1.465-1.953-1.465-1.953-.977h-.488l-.977-2.441.488-.977-1.953-1.953-1.465-1.953-1.953-.977-2.441-.977-2.441-.977-.977-.977-1.465-2.441-.977-1.953v-.977l-4.394-2.93-1.465-.977-1.465-.977h-1.953l-1.953-.488-1.953.488-.977-.977h3.906l-.977-1.953-1.953-1.465-.977-.488v-2.93l-.977-1.465-1.465-.977-1.465-.488-.977-.488-2.441-.488-.488-.977-.488-2.441-.488-.488-.977-.977-1.465-.977H90.815v-1.465l.488-.977v-2.441l.488-.488v-3.906l-.488-.488V125.97l-3.418-4.394-.977-1.953-.977-1.465-.488-2.93v-5.859l-1.465-2.441-1.953-3.418-1.953-1.953-1.953-.976-2.441-.488-1.465.488L70.8,98.139,66.4,95.21,64.45,93.745,62.5,92.28l-1.953-1.465-.488.488-.977.488h-.488L58.1,91.3l-1.465-.977-1.953-.488-1.465-.488H51.267l-1.953-.488-1.953.977L45.408,91.3l-2.441,1.953-.977.488L41.5,95.21l-.488.488L39.06,97.163l-.977.976Z" fill="#f8f4e0"/>
        <path id="Path_641" data-name="Path 641" d="M175.324,288.488v1.465h-.488v.976h-4.394v.488h-1.953L168,290.93v-.976l.488-.488h2.93v-.488l.488-.488h2.93V288h.488Z" transform="translate(-85.973 -147.382)" fill="#f8f4e0"/>
        <path id="Path_642" data-name="Path 642" d="M370.562,584v3.906l-.488.977v1.465l-.488.977-1.465,1.465-.977,1.953-.977.977-1.465,1.953-.488,1.953-.977.488-.488.488-.488,2.93v3.906l-.977,1.465-.977,2.441v1.465l.488.976v.977l1.465,1.953,2.441.977-.488,2.441v1.953l1.953.977.488,1.953-1.465,1.465-1.465.977-1.465,1.953-.488,2.441v2.441l.488.976v1.465H360.8l-1.465-1.465h-1.465l-.488-.488h-.488l-1.465.488v.488h-4.394l-1.953-1.465h-1.465l-.488-.488h-1.465l-.977-1.953-.977-1.953-1.465-1.953-1.465-1.465-.977-.976-1.953-.488-1.465-.488-.977-.488-.488.488h-2.441l-.976.488h-1.465l-.977-.488-.977-.977v-.488h-.977l-.488.488-1.953-.977-.977-.977-.977-.488-1.953-1.465-.488-.488h-1.953l-.488-.488-1.465-.977-2.441-1.953-.977-.488-2.93-2.441h-3.906l-1.465-1.953h-1.953v-.488h-2.441l-.488.977h-2.441l-.488-1.465-.488-.977-1.953-.488-1.953-.488V606.46l-.488-.977-1.465-.977L290,603.042l.488-.488,1.465-.488v-2.441l.488-.977v-.976l.488-.977,1.465-1.465v-.488h1.953l3.418-3.418v1.953l1.465,1.465.977.488v.488h.977l.976-.488.488-.488,1.465-.488h.976v-1.465H306.6v-.977l.977-.488.488-1.465h2.441l.977-.488.488-.488h.976l1.465.488v1.465l.488.488,1.465.977h1.953l1.465.488.488.977.977.977,1.465.488.977.488.977.488.977-.488,1.465-.488h.488l.976-.488.488-.488.488-.488h2.93l2.441.488h3.906l.488-.488,1.953-.488,2.441-.488h.977l1.953-.977.977-.488.977-.977.488-.977.488-.977,3.906-.488,1.465-.488,1.465.488h.977l.977.977h1.465l1.465-.977.488-.488.977-.977,1.953-1.465,2.441-.977Z" transform="translate(-148.406 -298.859)" fill="#f8f4e0"/>
        <path id="Path_643" data-name="Path 643" d="M93.854,395l1.465.977.488,1.465h2.93l.488.488v1.465l1.465.488.977-.977v2.441l.977.977v3.418l1.953.488,1.465,1.953v.977l-.488,1.465v1.465l1.465.976.488,2.441v.977l1.465.977.488,1.953v1.953l-1.465,1.465v.977l-.977.977-.977.977-1.465.977v2.441l.488,1.953.977.977.977,1.465v1.465l-.488.977-.977,1.465.488,1.465.488,2.441-.977,1.465v2.441l-.977.488.488,1.953v6.836l-.488.488-.488.977-.488,1.465V461.4l-.977,2.441v.977H98.737l-.977-.977-.977-.977-1.953-.488H92.878l-1.953-.977-.488.488-.977.977v.488l-.977,2.441.488.977.488,1.465-.977,1.953-1.953,1.465-.977.977H83.112l-.977-.977h-.977l-1.465.977-1.465-.488-.488-2.441-.488-1.465-1.465-1.465-.977-.977-.488-1.953-1.465-.488-.488-1.465v-1.465h1.465v-1.953l-.488-.977-.488-1.953v-1.953l.977-1.953.488-.488-.488-4.394.488-2.441,1.953.976v-1.953l.977-1.465v-1.465l-.977-.488-2.441-.977-.488-2.93,2.441-2.93L75.3,432.6v-2.929l-.488-2.93-.977-.977-.977-1.465.977-1.953-.977-1.465-.977-.977-.488-2.441-.977-.488-1.465-.488-1.465-.488V414.53l.488-.488-.488-1.465L67,411.112l1.465-1.953.488-2.93,2.441,1.953,1.465.488.488-.976.488,1.465h2.93l1.465-.977,1.465-.488.977-1.465h.977l1.953-.977,1.465-.488.488-1.465.488-.488.488-.977,1.465-1.465,1.465-1.465h.977l.977-.488h1.465v-1.465Z" transform="translate(-34.287 -202.139)" fill="#f8f4e0"/>
        <path id="Path_644" data-name="Path 644" d="M78.465,543.883l.488-1.465.977-.977v-.977h-.488v-.488h-.488v-.488L78.465,539h-.977v.488H77v1.465h0l.488,1.465v.488Z" transform="translate(-39.404 -275.83)" fill="#f8f4e0"/>
        <path id="Path_645" data-name="Path 645" d="M71.465,536.953v-.488h.488v-.977h-.977V535H70l.488.977v.488l.488.488Z" transform="translate(-35.822 -273.783)" fill="#f8f4e0"/>
        <path id="Path_646" data-name="Path 646" d="M360,424v1.465h1.465v-.977Z" transform="translate(-184.228 -216.98)" fill="#f8f4e0"/>
      </g>
      <g id="Lombardy" transform="translate(43.455 15.624)">
        <path id="Path_647" data-name="Path 647" d="M106.089,95.473h1.465l.488-1.465-1.465-.977.977-1.465.488-.977-.977-1.465H105.6l.977-1.465.977-1.465.488-1.953.977-1.465,1.465-.488.977.488.488.488v-.488l1.465-.977h.977v1.465h.488l.977.977.488-.977.488-.977,1.465.488h.977l.488-1.465h2.93l.488.977.488,1.465.977.977.977-.488h1.465l.977.488.977.488.488,1.465,1.465-.488.488-.488.488,1.465,1.953.488.488.488h1.953l.488-.977.977-1.465h1.465l.488.977,2.441.977,1.953.488.488-1.465h.488l1.465-.488,1.465.488.488.488h1.465L151.5,86.2H155.4l-3.418-1.465-.488-.488v-.977l-.977.488h-.977V81.8h-.977v.977l-2.441-.488V80.337h-.977v-.977l-1.465-.488-.977-.977h-.976l-1.465-2.441-.977.977-1.465-1.953V73.5l.977-.977-1.465-.977-1.465-1.465h-1.953l.488-.488.488-1.465V65.69l1.465-.977,1.465-.976.488-1.465.977-1.465.977-1.953h-2.441l-.977,1.465h-.977l-.488.488-.977-.488h-.488l-.488-1.953v-.977l.488-.977-1.465-1.953.488-1.953.488-.977.977-.977.488-2.441-.977-.488,1.465-.977V44.695l-.977-.977-.488-.977.488-.488.488-.488.977-.977V39.324l-1.465-.977h-.488l-1.465-1.465-.605-2.051-2.324-.879V32l-4.883,1.953.488,4.394,2.441,1.465-1.465,6.347-.977-.488v-.977l-1.465-.977V41.277l-4.883.977-.977-.488-1.465,1.953h-1.953l-.977-1.953-1.953-.488V36.883l-.488.977-.977-.977-2.441.488-.977,1.465,1.465,3.906L105.6,47.136l-1.953,2.441-1.953,1.953v.977l-1.465.977,2.441,3.418-.977,2.441-.977-.977H98.765V56.413l-.488-1.953-1.953-.977.977-2.441-1.953-1.953-1.465.488v2.441l-1.465,2.93-2.441.488-.488.488,1.953,1.953-.488,1.465-.977.488.977.977v.977h1.465v1.953l1.465.488-1.465.977,1.953.977v2.93l1.953.977v1.465l.977,1.465-2.441.488.488.977-.977.977-.977.488-.977-1.465H89.977l.488.977L89,76.431l1.06,1.04-.083,1.4.977,1.953.977.488v3.418h1.953l.977.977,1.953-1.465h.977l.488-.488v1.953l1.953.977v.977l1.953,2.441-.488.977,1.465,1.465h.977l1.465,1.465Z" transform="translate(-89 -32)" fill="#e2d080" stroke="#522a2a" stroke-miterlimit="10" stroke-width="1"/>
      </g>
    </g>
    <text id="Lombardy-2" data-name="Lombardy" transform="translate(80.642 2630.961)" fill="#522a2a" font-size="15" font-family="Tahoma-Bold, Tahoma" font-weight="700"><tspan x="0" y="0">Lombardy</tspan></text>
  </g>
</svg>
