<svg xmlns="http://www.w3.org/2000/svg" width="314.978" height="282.936" viewBox="0 0 314.978 282.936">
  <g id="Group_69" data-name="Group 69" transform="translate(-184.962 -187.688)">
    <g id="Group_24" data-name="Group 24" transform="translate(215.415 187.688)">
      <path id="Path_514" data-name="Path 514" d="M421.063,469.29c-2.067-5.081-4.2-10.238-6.331-15.328-14.727-35.133-24.619-55.154-36.073-78.337-6.578-13.313-13.38-27.08-21.941-45.356C347.692,311,341.429,296.776,336.4,285.347c-10.372-23.556-15.578-35.38-29.252-55.59A392.425,392.425,0,0,0,276.254,189.9l2.5-2.21a395.781,395.781,0,0,1,31.154,40.2C323.75,248.347,329,260.263,339.449,284c5.026,11.413,11.28,25.618,20.29,44.851,8.546,18.245,15.341,32,21.911,45.294,11.479,23.232,21.392,43.3,36.159,78.525,2.138,5.1,4.273,10.269,6.345,15.36Z" transform="translate(-276.254 -187.688)" fill="#fff"/>
    </g>
    <g id="Group_25" data-name="Group 25" transform="translate(210.745 189.022)">
      <path id="Path_515" data-name="Path 515" d="M407.063,473.29c-2.067-5.081-4.2-10.238-6.331-15.328-14.727-35.133-24.619-55.154-36.073-78.337-6.578-13.313-13.38-27.08-21.941-45.356C333.692,315,327.429,300.776,322.4,289.347c-10.372-23.556-15.578-35.38-29.252-55.59A392.423,392.423,0,0,0,262.254,193.9l2.5-2.21a395.781,395.781,0,0,1,31.154,40.2C309.75,252.347,315,264.263,325.449,288c5.026,11.413,11.28,25.618,20.29,44.851,8.546,18.245,15.341,32,21.911,45.294,11.479,23.232,21.392,43.3,36.159,78.525,2.138,5.1,4.273,10.269,6.345,15.36Z" transform="translate(-262.254 -191.688)" fill="#fff"/>
    </g>
    <g id="Group_26" data-name="Group 26" transform="translate(206.918 203.212)">
      <rect id="Rectangle_26" data-name="Rectangle 26" width="249.627" height="5.004" transform="translate(0 107.076) rotate(-25.401)" fill="#fff"/>
    </g>
    <g id="Group_27" data-name="Group 27" transform="translate(284.102 275.208)">
      <path id="Path_516" data-name="Path 516" d="M482.449,476.817a65.732,65.732,0,0,1,3.049-26.759l1.9.628a63.734,63.734,0,0,0-2.956,25.945Z" transform="translate(-482.166 -450.058)" fill="#fff"/>
    </g>
    <g id="Group_28" data-name="Group 28" transform="translate(272.299 327.301)">
      <rect id="Rectangle_27" data-name="Rectangle 27" width="249.627" height="5.004" transform="translate(0 107.076) rotate(-25.401)" fill="#fff"/>
    </g>
    <g id="Group_29" data-name="Group 29" transform="translate(266.504 261.664)">
      <path id="Path_517" data-name="Path 517" d="M450.583,421.908c-3.522-1.414-7.027-3-10.418-4.705-3.659-1.843-7.278-3.878-10.754-6.049l1.06-1.7c3.425,2.138,6.989,4.143,10.595,5.959,3.34,1.682,6.793,3.242,10.263,4.635Z" transform="translate(-429.411 -409.456)" fill="#fff"/>
    </g>
    <g id="Group_30" data-name="Group 30" transform="translate(305.297 246.943)">
      <rect id="Rectangle_28" data-name="Rectangle 28" width="5.004" height="168.631" transform="translate(0 2.118) rotate(-25.044)" fill="#fff"/>
    </g>
    <g id="Group_31" data-name="Group 31" transform="translate(320.166 250.412)">
      <rect id="Rectangle_29" data-name="Rectangle 29" width="135.182" height="5.004" transform="translate(0 58.043) rotate(-25.427)" fill="#fff"/>
    </g>
    <g id="Group_32" data-name="Group 32" transform="translate(328.725 393.338)">
      <path id="Path_518" data-name="Path 518" d="M637.543,811.129a84.849,84.849,0,0,1-21.6-5.063l.708-1.873a82.832,82.832,0,0,0,21.094,4.944Z" transform="translate(-615.939 -804.193)" fill="#fff"/>
    </g>
    <g id="Group_33" data-name="Group 33" transform="translate(343.187 400.934)">
      <path id="Path_519" data-name="Path 519" d="M659.541,852.133a20.365,20.365,0,0,1,1.063-10.519,23.62,23.62,0,0,1,1.931-3.656,20.407,20.407,0,0,0,2.38-4.944,20.866,20.866,0,0,0,.954-6.048l2,.023a22.87,22.87,0,0,1-1.047,6.628A22.359,22.359,0,0,1,664.243,839a21.657,21.657,0,0,0-1.782,3.36,18.4,18.4,0,0,0-.938,9.5Z" transform="translate(-659.296 -826.966)" fill="#fff"/>
    </g>
    <g id="Group_34" data-name="Group 34" transform="translate(414.06 199.536)">
      <rect id="Rectangle_30" data-name="Rectangle 30" width="5.003" height="167.832" transform="translate(0 2.198) rotate(-26.056)" fill="#fff"/>
    </g>
    <g id="Group_35" data-name="Group 35" transform="translate(286.043 264.328)">
      <path id="Path_520" data-name="Path 520" d="M490.125,445.388l-1.079.513.475,1,1.2-.571.143.3-1.561.742-1.319-2.776,1.5-.712.143.3-1.141.542.417.878,1.079-.512Z" transform="translate(-487.987 -435.063)"/>
      <path id="Path_521" data-name="Path 521" d="M497.3,450.171a.269.269,0,0,1,.124-.377.288.288,0,0,1,.242.521A.268.268,0,0,1,497.3,450.171Z" transform="translate(-494.172 -438.983)"/>
      <path id="Path_522" data-name="Path 522" d="M499.24,439.488a5.619,5.619,0,0,1,.734-.42,1.759,1.759,0,0,1,1.289-.188,1.416,1.416,0,0,1,.865.811,1.627,1.627,0,0,1,.113,1.269,1.893,1.893,0,0,1-1.038.982,6.469,6.469,0,0,1-.667.276Zm1.524,2.285a2.537,2.537,0,0,0,.372-.151,1.181,1.181,0,0,0,.623-1.74,1.1,1.1,0,0,0-1.633-.537,2.273,2.273,0,0,0-.4.237Z" transform="translate(-495.486 -431.692)"/>
      <path id="Path_523" data-name="Path 523" d="M510.856,438.217c.1.206.188.386.275.536l-.322.152-.175-.316-.008,0a.832.832,0,0,1-.483.684c-.313.148-.77.153-1.1-.547l-.554-1.166.363-.172.524,1.1c.18.379.417.58.746.423a.565.565,0,0,0,.266-.758l-.581-1.224.362-.172Z" transform="translate(-501.649 -430.32)"/>
      <path id="Path_524" data-name="Path 524" d="M515.552,435.265c-.1-.206-.182-.373-.273-.532l.321-.152.177.32.008,0a.813.813,0,0,1,.481-.688c.276-.131.783-.169,1.107.514l.565,1.19-.362.172-.546-1.15c-.152-.321-.4-.532-.741-.37a.57.57,0,0,0-.31.6.578.578,0,0,0,.056.181l.569,1.2-.362.172Z" transform="translate(-506.175 -428.564)"/>
      <path id="Path_525" data-name="Path 525" d="M522.4,432.011c-.1-.206-.182-.373-.273-.532l.322-.153.177.32.008,0a.812.812,0,0,1,.481-.688c.276-.131.783-.169,1.107.514l.565,1.191-.362.172-.546-1.149c-.152-.321-.4-.532-.741-.37a.587.587,0,0,0-.255.782l.569,1.2-.363.172Z" transform="translate(-510.742 -426.396)"/>
      <path id="Path_526" data-name="Path 526" d="M530.139,429.334a.707.707,0,0,0,1.012.367,1.447,1.447,0,0,0,.5-.365l.185.23a1.784,1.784,0,0,1-.6.438,1.024,1.024,0,0,1-1.458-.539,1.071,1.071,0,0,1,.424-1.519.935.935,0,0,1,1.27.548,1.547,1.547,0,0,1,.068.175Zm.939-.764a.571.571,0,0,0-.782-.35.665.665,0,0,0-.277.853Z" transform="translate(-515.74 -424.377)"/>
      <path id="Path_527" data-name="Path 527" d="M539.58,423.443l.126,1.01-.371.176-.375-3.224.433-.206,2.266,2.327-.383.182-.711-.733Zm.777-.713-.651-.67c-.148-.152-.267-.3-.385-.438l-.009,0c.037.184.072.375.1.569l.11.932Z" transform="translate(-521.957 -419.946)"/>
      <path id="Path_528" data-name="Path 528" d="M544.783,420.135l.923.935a5.68,5.68,0,0,1,.4.435l.012-.006c-.033-.186-.053-.379-.074-.591l-.144-1.3.379-.18.164,2.366-.346.164-1.7-1.634Z" transform="translate(-525.579 -418.762)"/>
      <path id="Path_529" data-name="Path 529" d="M552.057,418.927a.707.707,0,0,0,1.012.367,1.441,1.441,0,0,0,.5-.365l.185.231a1.783,1.783,0,0,1-.6.438,1.024,1.024,0,0,1-1.457-.539,1.071,1.071,0,0,1,.424-1.519.936.936,0,0,1,1.27.548,1.61,1.61,0,0,1,.068.175Zm.939-.764a.571.571,0,0,0-.782-.35.665.665,0,0,0-.277.853Z" transform="translate(-530.346 -417.441)"/>
    </g>
    <g id="Group_36" data-name="Group 36" transform="translate(344.436 392.078)">
      <path id="Path_530" data-name="Path 530" d="M664.029,825.423l-.845.4-.145-.3,2.055-.976.145.3-.849.4,1.174,2.472-.363.172Z" transform="translate(-663.039 -816.495)"/>
      <path id="Path_531" data-name="Path 531" d="M671.431,826.814a.707.707,0,0,0,1.012.368,1.452,1.452,0,0,0,.5-.365l.185.23a1.787,1.787,0,0,1-.6.439,1.025,1.025,0,0,1-1.458-.539,1.072,1.072,0,0,1,.425-1.52.935.935,0,0,1,1.27.548,1.5,1.5,0,0,1,.068.175Zm.94-.764a.571.571,0,0,0-.783-.35.665.665,0,0,0-.277.853Z" transform="translate(-668.293 -817.018)"/>
      <path id="Path_532" data-name="Path 532" d="M676.737,823.3c-.1-.206-.182-.373-.273-.532l.321-.153.177.32.008,0a.813.813,0,0,1,.481-.688c.276-.131.783-.169,1.107.514l.565,1.191-.363.172-.546-1.149c-.152-.321-.4-.532-.741-.37a.57.57,0,0,0-.31.6.587.587,0,0,0,.055.18l.569,1.2-.362.172Z" transform="translate(-671.986 -814.911)"/>
      <path id="Path_533" data-name="Path 533" d="M683.59,820.046c-.1-.206-.182-.373-.273-.532l.321-.152.177.32.008,0a.81.81,0,0,1,.481-.688c.276-.131.783-.17,1.108.514l.565,1.19-.363.172-.546-1.15c-.152-.322-.4-.532-.741-.37a.57.57,0,0,0-.31.6.588.588,0,0,0,.055.181l.569,1.2-.363.172Z" transform="translate(-676.553 -812.742)"/>
      <path id="Path_534" data-name="Path 534" d="M692.371,817.993l-.148-.237-.012.006a.822.822,0,0,1-.469.586.629.629,0,0,1-.881-.283c-.229-.482.074-.949.846-1.311l-.02-.041a.455.455,0,0,0-.672-.246,1.1,1.1,0,0,0-.449.395l-.2-.2a1.372,1.372,0,0,1,.571-.488.784.784,0,0,1,1.146.456l.354.745a3.058,3.058,0,0,0,.26.462Zm-.537-.992c-.4.18-.815.463-.631.85a.355.355,0,0,0,.506.184.549.549,0,0,0,.323-.563.416.416,0,0,0-.034-.125Z" transform="translate(-681.253 -810.846)"/>
      <path id="Path_535" data-name="Path 535" d="M696.395,813.965c-.1-.206-.182-.373-.273-.532l.322-.152.177.32.009,0a.811.811,0,0,1,.481-.688c.276-.131.783-.17,1.107.514l.566,1.191-.363.172-.546-1.149c-.153-.322-.4-.533-.742-.37a.57.57,0,0,0-.31.6.577.577,0,0,0,.056.181l.569,1.2-.362.172Z" transform="translate(-685.086 -808.691)"/>
      <path id="Path_536" data-name="Path 536" d="M702.688,809.043l.272.573.519-.247.131.276-.519.247.51,1.075c.117.247.254.354.456.258a.893.893,0,0,0,.2-.124l.145.264a.978.978,0,0,1-.3.2.556.556,0,0,1-.464.034.817.817,0,0,1-.387-.453l-.516-1.087-.309.146-.131-.276.309-.146-.227-.478Z" transform="translate(-689.201 -806.165)"/>
      <path id="Path_537" data-name="Path 537" d="M711.422,806.418l.126,1.011-.371.176-.375-3.225.433-.205L713.5,806.5l-.383.182-.712-.732Zm.777-.712-.651-.67c-.148-.152-.268-.3-.385-.438l-.009,0c.037.184.072.375.1.569l.109.932Z" transform="translate(-694.87 -802.921)"/>
      <path id="Path_538" data-name="Path 538" d="M716.624,803.11l.924.935a5.641,5.641,0,0,1,.4.435l.012-.006c-.033-.186-.053-.379-.074-.591l-.145-1.3.379-.18.164,2.366-.346.164-1.705-1.634Z" transform="translate(-698.492 -801.737)"/>
      <path id="Path_539" data-name="Path 539" d="M723.9,801.9a.707.707,0,0,0,1.012.368,1.454,1.454,0,0,0,.5-.365l.185.23a1.779,1.779,0,0,1-.6.439,1.025,1.025,0,0,1-1.458-.539,1.072,1.072,0,0,1,.425-1.519.935.935,0,0,1,1.27.548,1.512,1.512,0,0,1,.068.175Zm.939-.764a.571.571,0,0,0-.782-.35.665.665,0,0,0-.276.853Z" transform="translate(-703.259 -800.416)"/>
    </g>
    <g id="Group_37" data-name="Group 37" transform="translate(338.433 315.846)">
      <path id="Path_540" data-name="Path 540" d="M647.4,574.842c.379-.2.834-.445,1.183-.6l-.006-.012c-.371.057-.772.1-1.222.143l-1.581.139-.127-.273,1.116-1.07c.331-.316.638-.6.932-.828l0-.008c-.351.154-.827.351-1.256.521l-1.229.483-.16-.343,2.876-1.107.214.459-1.125,1.1c-.289.276-.55.514-.807.719l.006.012c.314-.061.666-.1,1.075-.145l1.579-.133.214.459-2.7,1.474-.164-.351Z" transform="translate(-645.044 -571.885)"/>
      <path id="Path_541" data-name="Path 541" d="M651.513,584.911c-.207.1-.387.185-.538.271l-.15-.322.317-.173,0-.009a.828.828,0,0,1-.681-.487c-.147-.314-.149-.771.553-1.1l1.17-.547.17.364-1.107.518c-.38.177-.582.413-.428.743a.579.579,0,0,0,.555.325.587.587,0,0,0,.2-.053l1.227-.573.17.364Z" transform="translate(-648.599 -578.989)"/>
      <path id="Path_542" data-name="Path 542" d="M654.364,589.665c.235-.11.436-.209.616-.308l.149.318-.387.2.008.016a.663.663,0,0,1,.7.349.426.426,0,0,1,.036.109l-.343.16a.6.6,0,0,0-.045-.13.563.563,0,0,0-.695-.269,1.038,1.038,0,0,0-.177.063l-1.066.5-.168-.36Z" transform="translate(-650.338 -583.529)"/>
      <path id="Path_543" data-name="Path 543" d="M654.615,593.778c.256-.12.459-.224.645-.321l.153.327-.336.177,0,.008a.868.868,0,0,1,.721.529,1,1,0,0,1-.621,1.322,1.045,1.045,0,0,1-1.5-.407.774.774,0,0,1,.026-.762l0-.008-1.087.507-.168-.359Zm-.365.608a.939.939,0,0,0-.141.086.619.619,0,0,0-.171.744c.18.385.6.461,1.056.247a.72.72,0,0,0,.466-.943.7.7,0,0,0-.868-.294Z" transform="translate(-649.98 -586.261)"/>
      <path id="Path_544" data-name="Path 544" d="M661.129,599.244l.17.364-1.248.582,0,.008a.747.747,0,0,1,.378.141.824.824,0,0,1,.277.324c.125.269.161.775-.529,1.1l-1.19.556-.17-.364,1.149-.537c.322-.15.539-.4.379-.741a.577.577,0,0,0-.591-.317.48.48,0,0,0-.185.056l-1.207.563-.17-.363Z" transform="translate(-653.808 -590.118)"/>
      <path id="Path_545" data-name="Path 545" d="M661.511,606.87l-.977.99c-.111.107-.245.23-.349.319l0,.008c.137-.019.31-.049.477-.067l1.359-.151.18.384-1.681.121a3.371,3.371,0,0,1-1.572-.1,1.088,1.088,0,0,1-.444-.337l.263-.233a1.076,1.076,0,0,0,.326.235,1.222,1.222,0,0,0,.548.117.3.3,0,0,0,.1-.012.351.351,0,0,0,.083-.069l1.5-1.6Z" transform="translate(-654.016 -594.935)"/>
      <path id="Path_546" data-name="Path 546" d="M666.19,617.474l-1.011.12-.173-.372,3.227-.355.2.434-2.341,2.251-.179-.384.737-.706Zm.707.782.674-.647c.153-.147.3-.266.441-.383l0-.008c-.184.036-.375.069-.57.094l-.933.1Z" transform="translate(-658.347 -601.862)"/>
      <path id="Path_547" data-name="Path 547" d="M671.245,622.689l-.941.917a5.661,5.661,0,0,1-.437.4l.006.012c.186-.032.379-.051.592-.07l1.305-.137.177.38-2.367.149-.162-.347,1.645-1.695Z" transform="translate(-661.288 -605.484)"/>
      <path id="Path_548" data-name="Path 548" d="M672.911,629.969a.707.707,0,0,0-.374,1.01,1.447,1.447,0,0,0,.362.505l-.232.183a1.782,1.782,0,0,1-.435-.607,1.024,1.024,0,0,1,.549-1.454,1.071,1.071,0,0,1,1.516.434.935.935,0,0,1-.556,1.267,1.6,1.6,0,0,1-.175.067Zm.758.944a.571.571,0,0,0,.355-.78.664.664,0,0,0-.851-.281Z" transform="translate(-663.082 -610.257)"/>
    </g>
    <g id="Group_38" data-name="Group 38" transform="translate(347.941 286.108)">
      <path id="Path_549" data-name="Path 549" d="M674.434,515.143a1.4,1.4,0,0,0,.729-.124c.367-.174.489-.47.356-.75-.124-.26-.342-.337-.786-.3-.529.055-.921-.047-1.107-.438a.885.885,0,0,1,.539-1.181,1.4,1.4,0,0,1,.679-.156l.04.34a1.224,1.224,0,0,0-.59.119c-.379.18-.415.475-.325.665.123.26.353.307.806.273.556-.042.9.071,1.1.479.2.428.063.95-.592,1.261a1.588,1.588,0,0,1-.793.16Z" transform="translate(-673.548 -502.364)"/>
      <path id="Path_550" data-name="Path 550" d="M682.373,513.966l-.148-.237-.012.006a.821.821,0,0,1-.468.586.629.629,0,0,1-.882-.283c-.229-.482.074-.949.846-1.311l-.019-.041a.455.455,0,0,0-.672-.246,1.106,1.106,0,0,0-.449.395l-.2-.2a1.372,1.372,0,0,1,.571-.489.783.783,0,0,1,1.146.455l.355.746a3.094,3.094,0,0,0,.26.462Zm-.537-.992c-.4.18-.815.463-.631.851a.355.355,0,0,0,.506.183.549.549,0,0,0,.323-.562.416.416,0,0,0-.034-.125Z" transform="translate(-678.095 -502.264)"/>
      <path id="Path_551" data-name="Path 551" d="M686.395,509.936c-.1-.206-.182-.373-.273-.532l.321-.153.177.32.008,0a.813.813,0,0,1,.481-.688c.276-.131.783-.17,1.108.513l.566,1.191-.362.172-.546-1.149c-.153-.321-.4-.532-.741-.37a.571.571,0,0,0-.31.6.582.582,0,0,0,.055.18l.57,1.2-.363.172Z" transform="translate(-681.928 -500.107)"/>
      <path id="Path_552" data-name="Path 552" d="M694.608,502.713a4.594,4.594,0,0,1,.662-.381,1.262,1.262,0,0,1,.888-.139.826.826,0,0,1,.519.465.9.9,0,0,1,.068.695,1.272,1.272,0,0,1-.7.708,1.371,1.371,0,0,1-.3.112l.529,1.112-.358.17Zm.995,1.168a1.316,1.316,0,0,0,.31-.112c.432-.205.6-.541.414-.924-.174-.366-.518-.42-.913-.232a1.644,1.644,0,0,0-.324.189Z" transform="translate(-687.583 -495.681)"/>
      <path id="Path_553" data-name="Path 553" d="M703,503.035a.707.707,0,0,0,1.013.367,1.451,1.451,0,0,0,.5-.366l.185.23a1.785,1.785,0,0,1-.6.439,1.025,1.025,0,0,1-1.458-.539,1.071,1.071,0,0,1,.424-1.519.935.935,0,0,1,1.27.547,1.56,1.56,0,0,1,.068.175Zm.939-.765a.571.571,0,0,0-.782-.35.665.665,0,0,0-.276.854Z" transform="translate(-692.839 -495.274)"/>
      <path id="Path_554" data-name="Path 554" d="M709.748,494.92l1.146,2.41c.084.177.184.377.261.507l-.325.155-.181-.338-.008,0a.816.816,0,0,1-.493.714,1.006,1.006,0,0,1-1.334-.608,1.057,1.057,0,0,1,.384-1.5.739.739,0,0,1,.747.019l.008,0-.566-1.19Zm.466,1.915a.69.69,0,0,0-.089-.144.59.59,0,0,0-.723-.171c-.375.178-.44.613-.231,1.054.192.4.548.643.939.457a.6.6,0,0,0,.326-.685.714.714,0,0,0-.058-.164Z" transform="translate(-696.949 -490.856)"/>
      <path id="Path_555" data-name="Path 555" d="M715.309,496.476c-.112-.235-.212-.435-.312-.614l.317-.15.2.385.016-.008a.663.663,0,0,1,.345-.7.417.417,0,0,1,.109-.036l.162.342a.614.614,0,0,0-.129.046.564.564,0,0,0-.265.7,1.183,1.183,0,0,0,.064.177l.505,1.062-.358.17Z" transform="translate(-701.171 -491.144)"/>
      <path id="Path_556" data-name="Path 556" d="M721.625,494a1.079,1.079,0,0,1-.489,1.53,1.05,1.05,0,0,1-1.443-.571,1.078,1.078,0,0,1,.485-1.528A1.045,1.045,0,0,1,721.625,494Zm-1.572.773a.69.69,0,1,0,1.207-.584c-.161-.338-.533-.686-.961-.482A.75.75,0,0,0,720.053,494.771Z" transform="translate(-704.207 -489.787)"/>
      <path id="Path_557" data-name="Path 557" d="M730.094,488.746l.127,1.01-.37.176-.377-3.224.432-.206,2.267,2.325-.383.182-.712-.733Zm.778-.713-.652-.67c-.148-.152-.267-.3-.385-.438l-.008,0c.037.184.072.375.1.569l.11.932Z" transform="translate(-710.818 -485.246)"/>
      <path id="Path_558" data-name="Path 558" d="M735.3,485.434l.924.934a5.615,5.615,0,0,1,.4.435l.012-.006c-.033-.186-.054-.378-.074-.591l-.146-1.3.379-.18.165,2.366-.346.164-1.706-1.634Z" transform="translate(-714.441 -484.059)"/>
      <path id="Path_559" data-name="Path 559" d="M742.569,484.222a.707.707,0,0,0,1.013.367,1.447,1.447,0,0,0,.5-.366l.185.23a1.783,1.783,0,0,1-.6.439,1.025,1.025,0,0,1-1.458-.539,1.071,1.071,0,0,1,.424-1.519.935.935,0,0,1,1.27.547,1.508,1.508,0,0,1,.068.174Zm.939-.765a.572.572,0,0,0-.783-.35.665.665,0,0,0-.276.853Z" transform="translate(-719.207 -482.736)"/>
    </g>
    <g id="Group_39" data-name="Group 39" transform="translate(445.753 262.403)">
      <path id="Path_560" data-name="Path 560" d="M969.714,412.031l-1.159.556.644,1.341,1.159-.557.174.362-2.771,1.331-.173-.362,1.3-.624-.643-1.341-1.3.624-.172-.358,2.771-1.33Z" transform="translate(-966.771 -411.673)"/>
      <path id="Path_561" data-name="Path 561" d="M970.672,421.194l1.99-.956.173.362-1.99.955Zm2.742-.821a.249.249,0,0,1-.215-.448.245.245,0,0,1,.335.117A.238.238,0,0,1,973.414,420.372Z" transform="translate(-969.371 -417.154)"/>
      <path id="Path_562" data-name="Path 562" d="M974.975,422.464l.173.362-2.919,1.4-.173-.362Z" transform="translate(-970.293 -418.864)"/>
      <path id="Path_563" data-name="Path 563" d="M976.371,425.372l.174.362-2.919,1.4-.174-.362Z" transform="translate(-971.224 -420.802)"/>
      <path id="Path_564" data-name="Path 564" d="M978.855,431.2a4.115,4.115,0,0,1,.388.659,1.257,1.257,0,0,1,.159.91.767.767,0,0,1-.422.471.807.807,0,0,1-.958-.182l-.012.006a.767.767,0,0,1-.364.676,4.881,4.881,0,0,0-.658.579l-.178-.37a3.945,3.945,0,0,1,.573-.5c.343-.266.416-.483.272-.814l-.162-.337-1.2.576-.172-.358Zm-1.09.964.176.366a.6.6,0,0,0,.826.372c.358-.172.389-.506.212-.886a1.618,1.618,0,0,0-.2-.338Z" transform="translate(-973.002 -424.683)"/>
      <path id="Path_565" data-name="Path 565" d="M983.466,440.57l-2.405,1.155c-.176.084-.376.185-.506.263l-.156-.325.338-.182,0-.008a.817.817,0,0,1-.716-.491,1.006,1.006,0,0,1,.6-1.337,1.056,1.056,0,0,1,1.5.379.737.737,0,0,1-.016.746l0,.008,1.188-.57Zm-1.912.473a.7.7,0,0,0,.144-.089.59.59,0,0,0,.169-.724c-.18-.374-.615-.438-1.055-.227-.4.194-.641.551-.453.941a.6.6,0,0,0,.686.323.678.678,0,0,0,.164-.058Z" transform="translate(-975.539 -430.213)"/>
    </g>
    <g id="Group_51" data-name="Group 51" transform="translate(282.987 324.837)">
      <g id="Group_40" data-name="Group 40" transform="translate(0)">
        <path id="Path_566" data-name="Path 566" d="M501.405,607.014a5.058,5.058,0,0,1,1.723-3.705L498.82,599a6.832,6.832,0,0,1-7.756,0,6.832,6.832,0,0,1-7.756,0L479,603.309a5.06,5.06,0,0,1,1.724,3.705c-.076,1.682-1.327,2.13-1.638,4.309a5.972,5.972,0,0,0,.6,3.705,6.224,6.224,0,0,0,3.878,2.844c1.428.364,1.916-.059,3.533.172a9.044,9.044,0,0,1,3.964,1.637,9.042,9.042,0,0,1,3.964-1.637c1.617-.231,2.105.191,3.533-.172a6.225,6.225,0,0,0,3.878-2.844,5.974,5.974,0,0,0,.6-3.705C502.732,609.144,501.48,608.7,501.405,607.014Z" transform="translate(-478.942 -598.946)" fill="#fff"/>
        <path id="Path_567" data-name="Path 567" d="M490.948,619.625l-.024-.017a8.947,8.947,0,0,0-3.946-1.63,7.454,7.454,0,0,0-1.713-.044,5.19,5.19,0,0,1-1.824-.13,6.231,6.231,0,0,1-3.9-2.864,5.893,5.893,0,0,1-.608-3.731,5.777,5.777,0,0,1,.931-2.386,3.729,3.729,0,0,0,.706-1.918,5.173,5.173,0,0,0-1.712-3.675l-.028-.03,4.362-4.362.028.02a6.792,6.792,0,0,0,7.709,0l.024-.016.023.016a6.884,6.884,0,0,0,3.769,1.2h.085a6.881,6.881,0,0,0,3.854-1.2l.028-.02.025.024,4.337,4.337-.028.03a5.173,5.173,0,0,0-1.712,3.675h0a3.729,3.729,0,0,0,.706,1.918,5.771,5.771,0,0,1,.931,2.386,5.9,5.9,0,0,1-.608,3.731,6.23,6.23,0,0,1-3.9,2.864,5.184,5.184,0,0,1-1.824.13,7.454,7.454,0,0,0-1.713.044,8.949,8.949,0,0,0-3.945,1.63Zm-4.966-1.8a7.026,7.026,0,0,1,1.008.073,9.028,9.028,0,0,1,3.958,1.628,9.022,9.022,0,0,1,3.958-1.628,7.6,7.6,0,0,1,1.73-.044,5.047,5.047,0,0,0,1.8-.127,6.148,6.148,0,0,0,3.851-2.824,5.818,5.818,0,0,0,.6-3.679,5.708,5.708,0,0,0-.92-2.355,3.847,3.847,0,0,1-.718-1.957h0a5.224,5.224,0,0,1,1.707-3.706l-4.256-4.256a6.97,6.97,0,0,1-3.873,1.194h-.086a6.968,6.968,0,0,1-3.791-1.2,6.969,6.969,0,0,1-3.791,1.2h-.086a6.97,6.97,0,0,1-3.873-1.194l-4.256,4.256a5.226,5.226,0,0,1,1.707,3.706,3.846,3.846,0,0,1-.718,1.957,5.706,5.706,0,0,0-.92,2.355,5.816,5.816,0,0,0,.6,3.679,6.149,6.149,0,0,0,3.852,2.824,5.042,5.042,0,0,0,1.8.127C485.48,617.837,485.715,617.822,485.982,617.822Z" transform="translate(-478.826 -598.838)"/>
      </g>
      <g id="Group_41" data-name="Group 41" transform="translate(0.532 0.657)">
        <path id="Path_568" data-name="Path 568" d="M503.559,612.786c-.259-1.906-1.552-2.585-1.723-4.309a5.34,5.34,0,0,1,1.551-3.964l-3.656-3.706a7.2,7.2,0,0,1-7.719,0,7.2,7.2,0,0,1-7.719,0l-3.656,3.706a5.343,5.343,0,0,1,1.551,3.964c-.171,1.724-1.465,2.4-1.724,4.309a5.784,5.784,0,0,0,.776,3.533,5.628,5.628,0,0,0,2.241,1.9c1.527.684,2.636.24,4.567.517a10.459,10.459,0,0,1,3.964,1.465,10.456,10.456,0,0,1,3.964-1.465c1.931-.278,3.039.167,4.567-.517a5.629,5.629,0,0,0,2.24-1.9A5.781,5.781,0,0,0,503.559,612.786Zm-1.034,2.671a4.79,4.79,0,0,1-1.81,1.982c-1.609.931-3.006.26-5.515.776a10.969,10.969,0,0,0-3.188,1.206,10.973,10.973,0,0,0-3.189-1.206c-2.508-.515-3.906.155-5.515-.776a4.552,4.552,0,0,1-2.154-4.826c.3-1.465,1.2-1.715,1.551-3.447a5.449,5.449,0,0,0-.086-2.585,5.155,5.155,0,0,0-1.12-1.982l2.93-2.93a8.6,8.6,0,0,0,7.583-.172,8.6,8.6,0,0,0,7.583.172l2.93,2.93a5.159,5.159,0,0,0-1.12,1.982,5.45,5.45,0,0,0-.086,2.585c.352,1.732,1.251,1.982,1.551,3.447A4.837,4.837,0,0,1,502.525,615.458Z" transform="translate(-480.422 -600.808)"/>
      </g>
      <g id="Group_44" data-name="Group 44" transform="translate(9.688 3.491)">
        <g id="Group_42" data-name="Group 42" transform="translate(0 0.043)">
          <path id="Path_569" data-name="Path 569" d="M508.369,611.411v-1.478h.355v1.486c0,.489.246.667.572.667s.58-.178.58-.667v-1.486h.338v1.478a.923.923,0,1,1-1.845,0Z" transform="translate(-508.202 -609.766)"/>
          <path id="Path_570" data-name="Path 570" d="M508.963,612.187a1,1,0,0,1-1.094-1.109v-1.645h.688v1.653c0,.443.217.5.405.5s.413-.057.413-.5v-1.653h.672v1.645A1,1,0,0,1,508.963,612.187Zm-.76-2.42v1.312a.834.834,0,0,0,.162.555.974.974,0,0,1-.141-.548v-1.319Zm1.507,0v1.319a1.119,1.119,0,0,1-.066.4,1.032,1.032,0,0,0,.071-.407Z" transform="translate(-507.869 -609.433)"/>
        </g>
        <g id="Group_43" data-name="Group 43" transform="translate(2.378)">
          <path id="Path_571" data-name="Path 571" d="M515.729,611.915l.209-.21a1.243,1.243,0,0,0,.8.294c.376,0,.593-.156.593-.373,0-.254-.213-.326-.489-.428l-.4-.152c-.271-.094-.588-.261-.588-.612s.376-.631.9-.631a1.3,1.3,0,0,1,.843.294l-.184.2a1.048,1.048,0,0,0-.672-.221c-.317,0-.53.13-.53.344s.254.312.488.392l.384.148c.338.116.605.283.605.634,0,.377-.367.678-.968.678A1.506,1.506,0,0,1,515.729,611.915Z" transform="translate(-515.485 -609.636)"/>
          <path id="Path_572" data-name="Path 572" d="M516.236,612.1a1.679,1.679,0,0,1-1.1-.392l-.134-.117.443-.446.117.1a1.073,1.073,0,0,0,.694.254c.255,0,.426-.083.426-.206s-.072-.158-.36-.264l-.418-.16c-.46-.159-.7-.419-.7-.768,0-.462.447-.8,1.064-.8a1.466,1.466,0,0,1,.953.334l.131.114-.406.432-.12-.092a.878.878,0,0,0-.57-.187c-.181,0-.363.055-.363.178,0,.1.151.156.364.229l.4.154c.3.1.712.3.712.79S516.9,612.1,516.236,612.1Zm.583-1.2a.483.483,0,0,1,.161.559.4.4,0,0,0-.161-.559Zm-1.231-.978a.347.347,0,0,0,.088.455.414.414,0,0,1-.116-.3A.448.448,0,0,1,515.587,609.923Z" transform="translate(-514.998 -609.303)"/>
        </g>
      </g>
      <g id="Group_46" data-name="Group 46" transform="translate(5.314 7.81)">
        <g id="Group_45" data-name="Group 45">
          <path id="Path_573" data-name="Path 573" d="M494.758,623.8v-1.034a1.023,1.023,0,0,0,.69-.086,1.012,1.012,0,0,0,.428-.431h.881v8.2h-1.191l-.032-6.649Z" transform="translate(-494.758 -622.25)"/>
        </g>
      </g>
      <g id="Group_48" data-name="Group 48" transform="translate(16.776 7.81)">
        <g id="Group_47" data-name="Group 47">
          <path id="Path_574" data-name="Path 574" d="M529.117,623.8v-1.034a1,1,0,0,0,1.118-.517h.881v8.2h-1.191l-.032-6.649Z" transform="translate(-529.117 -622.25)"/>
        </g>
      </g>
      <g id="Group_50" data-name="Group 50" transform="translate(9.175 7.762)">
        <g id="Group_49" data-name="Group 49">
          <path id="Path_575" data-name="Path 575" d="M509.331,622.106a2.456,2.456,0,0,1,2.084,1.191,6.026,6.026,0,0,1,0,6.082,2.545,2.545,0,0,1-4.276.024,6.111,6.111,0,0,1,.026-6.117A2.545,2.545,0,0,1,509.331,622.106Zm.013,1.124h-.065a1.337,1.337,0,0,0-1.2.837,4.879,4.879,0,0,0-.443,2.268,5.047,5.047,0,0,0,.433,2.3,1.277,1.277,0,0,0,2.4,0,4.889,4.889,0,0,0,.44-2.265,5.189,5.189,0,0,0-.423-2.289A1.279,1.279,0,0,0,509.344,623.23Z" transform="translate(-506.331 -622.106)"/>
        </g>
      </g>
    </g>
    <g id="Group_52" data-name="Group 52" transform="translate(349.037 240.295)">
      <ellipse id="Ellipse_10" data-name="Ellipse 10" cx="34.84" cy="14.677" rx="34.84" ry="14.677" fill="#fff"/>
    </g>
    <g id="Morgan_Hill_Cellars" data-name="Morgan Hill Cellars" transform="translate(358.419 249.356)">
      <g id="Group_53" data-name="Group 53">
        <path id="Path_576" data-name="Path 576" d="M705.917,376.793a9.458,9.458,0,0,0-.265.919.85.85,0,0,1-.03.1.108.108,0,0,1-.052.056.317.317,0,0,1-.1.026,1.592,1.592,0,0,1-.168.007.254.254,0,0,1-.112-.03.654.654,0,0,1-.112-.071.464.464,0,0,1-.086-.086.135.135,0,0,1-.033-.075.24.24,0,0,1,.03-.1.987.987,0,0,1,.134-.179,1.86,1.86,0,0,0,.254-.407,5.8,5.8,0,0,0,.247-.579,5.582,5.582,0,0,0,.183-.6,2.155,2.155,0,0,0,.071-.482,1.655,1.655,0,0,0-.123-.665,2.449,2.449,0,0,0-.276-.489q-.153-.205-.276-.351a.42.42,0,0,1-.123-.243c0-.025.016-.045.048-.06a.569.569,0,0,1,.116-.037,1.218,1.218,0,0,1,.138-.023c.047,0,.088-.007.123-.007a.226.226,0,0,1,.12.045,1.032,1.032,0,0,1,.183.183q.116.138.307.4t.482.688c.085.119.188.255.31.407s.254.306.4.463.29.309.445.456a5.71,5.71,0,0,0,.459.4,2.763,2.763,0,0,0,.433.28.826.826,0,0,0,.37.1,1.745,1.745,0,0,0,.721-.194,3.729,3.729,0,0,0,.818-.534,4.284,4.284,0,0,0,.736-.811,2.981,2.981,0,0,0,.467-1.023,1.168,1.168,0,0,1,.086-.261c.027-.05.056-.075.086-.075a.484.484,0,0,1,.086.011.509.509,0,0,1,.112.037.469.469,0,0,1,.1.06.1.1,0,0,1,.041.079,1.486,1.486,0,0,1-.03.22q-.03.161-.071.407t-.071.583q-.03.336-.03.747a1.764,1.764,0,0,0,.064.489,2.826,2.826,0,0,0,.142.392q.078.172.142.3a.5.5,0,0,1,.063.209q0,.03-.052.071a.8.8,0,0,1-.123.078,1.105,1.105,0,0,1-.146.064.387.387,0,0,1-.119.026q-.09,0-.138-.119a1.247,1.247,0,0,1-.071-.329q-.023-.179-.056-.411c-.022-.154-.045-.306-.067-.456s-.042-.285-.06-.407-.031-.21-.041-.265l-.463.418a4.87,4.87,0,0,1-1.1.755,2.481,2.481,0,0,1-1.1.284,1.763,1.763,0,0,1-.4-.045,1.553,1.553,0,0,1-.407-.164,3.14,3.14,0,0,1-.459-.325,6.079,6.079,0,0,1-.545-.527l-.755-.8Q706.122,376.166,705.917,376.793Z" transform="translate(-704.957 -373.125)"/>
        <path id="Path_577" data-name="Path 577" d="M731.487,375.4a2.092,2.092,0,0,1,.336-.695,1.736,1.736,0,0,1,1.471-.71,1.423,1.423,0,0,1,.568.116,1.257,1.257,0,0,1,.471.359,1.826,1.826,0,0,1,.321.62,2.966,2.966,0,0,1,.12.893,2.327,2.327,0,0,1-.154.874,1.912,1.912,0,0,1-.407.639,1.751,1.751,0,0,1-1.255.527,1.434,1.434,0,0,1-.56-.119,1.5,1.5,0,0,1-.508-.355,1.839,1.839,0,0,1-.366-.586,2.158,2.158,0,0,1-.142-.814A2.817,2.817,0,0,1,731.487,375.4Zm.485,1.016a1.784,1.784,0,0,0,.191.5,1.421,1.421,0,0,0,.377.437.965.965,0,0,0,.612.187,1.214,1.214,0,0,0,.351-.06.961.961,0,0,0,.37-.224,1.245,1.245,0,0,0,.292-.452,1.993,1.993,0,0,0,.116-.736,2.662,2.662,0,0,0-.1-.777,1.469,1.469,0,0,0-.254-.5.942.942,0,0,0-.359-.276,1.088,1.088,0,0,0-.941.045,1.206,1.206,0,0,0-.388.347,1.6,1.6,0,0,0-.239.508,2.25,2.25,0,0,0-.082.613A2.1,2.1,0,0,0,731.972,376.411Z" transform="translate(-722.567 -373.513)"/>
        <path id="Path_578" data-name="Path 578" d="M746.962,372.748a1.168,1.168,0,0,1,.187-.011,1.633,1.633,0,0,1,.526.082,1.5,1.5,0,0,1,.422.217,1.112,1.112,0,0,1,.284.3.637.637,0,0,1,.1.34,1.068,1.068,0,0,1-.09.459,1.007,1.007,0,0,1-.228.318,1.282,1.282,0,0,1-.295.206,2.226,2.226,0,0,1-.291.123q-.18.06-.217.078c-.025.013-.037.026-.037.041s.02.033.06.052.127.072.262.157.294.187.478.307.384.252.6.4q.239.157.482.31t.463.3q.22.142.407.254t.306.187a1.241,1.241,0,0,0,.613.172.075.075,0,0,1,.056.03.121.121,0,0,1,.026.082.215.215,0,0,1-.063.112,1.437,1.437,0,0,1-.149.149,1.615,1.615,0,0,1-.172.131.28.28,0,0,1-.131.056.9.9,0,0,1-.336-.164q-.254-.164-.6-.411t-.755-.545q-.407-.3-.8-.56t-.743-.456a2.1,2.1,0,0,0-.571-.239c-.01.1-.018.21-.023.333s-.007.243-.007.362v.2q0,.307.011.5c.007.13.015.235.022.318s.015.148.022.2a.938.938,0,0,1,.011.134.121.121,0,0,1-.041.1.262.262,0,0,1-.146.03.749.749,0,0,1-.142-.019c-.06-.012-.118-.027-.175-.045a.512.512,0,0,1-.146-.067.111.111,0,0,1-.06-.086.167.167,0,0,1,.019-.075c.012-.025.027-.058.045-.1a1.344,1.344,0,0,0,.052-.161,1.176,1.176,0,0,0,.034-.239q0-.06.007-.287t.019-.534q.011-.306.019-.646t.008-.624c0-.085,0-.191,0-.321s-.007-.258-.015-.385-.018-.239-.03-.336-.029-.153-.048-.168a.26.26,0,0,1-.157-.224q0-.1.149-.134l.65-.172C746.872,372.764,746.917,372.756,746.962,372.748Zm-.191,1.976a.112.112,0,0,0,.056.015.337.337,0,0,0,.12-.037l.276-.127c.045-.02.093-.042.146-.067a1.242,1.242,0,0,0,.161-.093.767.767,0,0,0,.149-.134.675.675,0,0,0,.112-.19,1.567,1.567,0,0,0,.082-.5.384.384,0,0,0-.034-.172.852.852,0,0,0-.078-.127.215.215,0,0,0-.067-.052,1.12,1.12,0,0,0-.116-.056,1.136,1.136,0,0,0-.119-.041.38.38,0,0,0-.086-.015,1.051,1.051,0,0,0-.112.011,1.449,1.449,0,0,0-.168.034,1,1,0,0,0-.153.052c-.045.02-.07.042-.074.067a3.628,3.628,0,0,0-.06.37c-.015.132-.027.262-.037.388s-.016.244-.019.351,0,.19,0,.25C746.745,374.689,746.754,374.714,746.771,374.724Z" transform="translate(-732.328 -372.677)"/>
        <path id="Path_579" data-name="Path 579" d="M764.334,376.255a.509.509,0,0,1,.217-.03.172.172,0,0,1,.075.015.126.126,0,0,1,.049.079.867.867,0,0,1,.022.194c0,.087,0,.21,0,.37a7.856,7.856,0,0,0,.033.81,4.934,4.934,0,0,1,.034.527.219.219,0,0,1-.041.149.243.243,0,0,1-.175.045.12.12,0,0,1-.075-.023.228.228,0,0,1-.06-.086.894.894,0,0,1-.056-.183q-.027-.12-.056-.314a.2.2,0,0,0-.224-.194.689.689,0,0,0-.108.015c-.052.01-.113.02-.183.03l-.224.03a1.8,1.8,0,0,1-.224.015,1.664,1.664,0,0,1-.848-.194,1.632,1.632,0,0,1-.527-.474,1.818,1.818,0,0,1-.273-.587,2.2,2.2,0,0,1-.078-.538,3,3,0,0,1,.142-.911,2.253,2.253,0,0,1,.445-.8,2.3,2.3,0,0,1,.766-.572,2.555,2.555,0,0,1,1.105-.22,1.759,1.759,0,0,1,.65.093.31.31,0,0,1,.224.295.175.175,0,0,1-.045.108.485.485,0,0,1-.1.1.729.729,0,0,1-.12.067.257.257,0,0,1-.1.026.176.176,0,0,1-.108-.045q-.056-.045-.22-.195a.37.37,0,0,0-.142-.086.629.629,0,0,0-.164-.019,1.212,1.212,0,0,0-.691.22,2.328,2.328,0,0,0-.571.556,2.846,2.846,0,0,0-.388.736,2.265,2.265,0,0,0-.142.758,2.091,2.091,0,0,0,.086.657.9.9,0,0,0,.239.392.837.837,0,0,0,.355.19,1.729,1.729,0,0,0,.433.052,1.327,1.327,0,0,0,.37-.049,1.2,1.2,0,0,0,.292-.123.72.72,0,0,0,.194-.164.4.4,0,0,0,.086-.179l.06-.448A.141.141,0,0,1,764.334,376.255Z" transform="translate(-742.716 -373.125)"/>
        <path id="Path_580" data-name="Path 580" d="M774.97,376.222a.6.6,0,0,0-.247.258l-.374.65a.366.366,0,0,0-.045.142q-.008.075-.112.075a1.03,1.03,0,0,1-.336-.045q-.127-.045-.127-.127a.21.21,0,0,1,.075-.142,2.072,2.072,0,0,0,.172-.2q.134-.172.3-.411t.329-.5q.164-.261.321-.527t.276-.489q.12-.224.194-.392a.711.711,0,0,0,.074-.235q0-.15-.254-.4l-.612-.62a.909.909,0,0,0-.179-.157.126.126,0,0,1-.075-.1q0-.03.056-.071a1.21,1.21,0,0,1,.131-.082,1.238,1.238,0,0,1,.153-.071.384.384,0,0,1,.131-.03,1.475,1.475,0,0,1,.164.007.243.243,0,0,1,.1.034.2.2,0,0,1,.067.078c.017.035.038.082.063.142a.668.668,0,0,0,.093.149q.079.1.161.209.605.732,1.046,1.233t.8.878q.362.377.695.684t.728.657a.412.412,0,0,0,.142.09l.116.037a.213.213,0,0,1,.078.041.12.12,0,0,1,.03.093.17.17,0,0,1-.041.086.782.782,0,0,1-.1.112.774.774,0,0,1-.119.094.207.207,0,0,1-.1.037h-.224a.082.082,0,0,1-.082-.052.393.393,0,0,0-.06-.1,11.839,11.839,0,0,0-1-1.1H775.4A.987.987,0,0,0,774.97,376.222Zm.366-.818-.127.224a.188.188,0,0,0-.03.09.066.066,0,0,0,.019.048.171.171,0,0,0,.093.026q.075.008.224.011t.418,0q.291,0,.485,0c.13,0,.234-.006.314-.011a1.506,1.506,0,0,0,.179-.019.363.363,0,0,0,.09-.026l-1.173-1.2Z" transform="translate(-750.789 -372.677)"/>
        <path id="Path_581" data-name="Path 581" d="M792.158,374.6q0-.139,0-.28a.541.541,0,0,0-.1-.366.6.6,0,0,0-.224-.161l-.224-.086a.135.135,0,0,1-.1-.134c0-.035.027-.072.082-.112l.269-.217a.345.345,0,0,1,.1-.067.226.226,0,0,1,.078-.015.158.158,0,0,1,.086.026.472.472,0,0,1,.1.1q.433.515.889,1.031t.848.941q.392.426.68.724t.392.388q.059-.381.086-.728t.026-.714a4.994,4.994,0,0,0-.022-.508q-.022-.216-.045-.366c-.015-.1-.03-.179-.045-.239a.612.612,0,0,1-.022-.142.148.148,0,0,1,.063-.108.41.41,0,0,1,.138-.063.949.949,0,0,1,.172-.03c.059-.005.114-.007.164-.007a.151.151,0,0,1,.142.063.283.283,0,0,1,.037.146,1.35,1.35,0,0,1-.037.246q-.037.172-.082.463t-.082.729q-.038.437-.037,1.05,0,.187.008.4t.007.452a.268.268,0,0,1-.067.161,1.014,1.014,0,0,1-.154.157,1.249,1.249,0,0,1-.168.119.294.294,0,0,1-.112.049c-.025,0-.046-.027-.063-.082s-.039-.124-.063-.209a2.218,2.218,0,0,0-.108-.284,1.327,1.327,0,0,0-.205-.314q-.291-.344-.6-.676t-.582-.62q-.273-.288-.493-.512t-.333-.351q-.023.314-.037.646t-.019.646q0,.314-.007.586t0,.459q0,.165.008.333c0,.112.007.2.007.258a.322.322,0,0,1-.026.123.151.151,0,0,1-.108.086l-.273.067a.753.753,0,0,1-.176.022c-.095,0-.142-.035-.142-.1a.205.205,0,0,1,.037-.116q.037-.056.086-.142a1.2,1.2,0,0,0,.093-.228,1.6,1.6,0,0,0,.06-.366l.09-1.845Q792.154,374.739,792.158,374.6Z" transform="translate(-762.64 -372.961)"/>
        <path id="Path_582" data-name="Path 582" d="M815.385,377.928a.121.121,0,0,1-.112-.049.268.268,0,0,1-.03-.138q0-.388.022-.807t.022-.889v-.433q0-.231,0-.456t-.011-.418q-.008-.194-.015-.336a.245.245,0,0,0-.048-.153.605.605,0,0,0-.112-.112c-.042-.032-.08-.063-.112-.093a.138.138,0,0,1-.048-.1.169.169,0,0,1,.034-.075.647.647,0,0,1,.089-.108.673.673,0,0,1,.131-.1.3.3,0,0,1,.157-.045.587.587,0,0,1,.164.03,1.552,1.552,0,0,1,.187.071.976.976,0,0,1,.153.086c.042.03.063.057.063.082a.534.534,0,0,1-.056.194.846.846,0,0,0-.063.306q0,.269,0,.56t-.019.568h1.987c.005-.1.009-.212.011-.336s0-.252,0-.381a4.642,4.642,0,0,0-.023-.478q-.022-.217-.022-.322,0-.052.075-.1a.88.88,0,0,1,.176-.078,1.466,1.466,0,0,1,.205-.053,1.024,1.024,0,0,1,.172-.018c.1,0,.149.035.149.1a.13.13,0,0,1-.019.064c-.012.022-.026.05-.041.082s-.032.073-.052.123a1.088,1.088,0,0,0-.052.194c-.015.089-.027.186-.037.291s-.018.211-.022.318-.009.212-.011.314,0,.19,0,.265c.04,0,.081-.009.123-.011s.083,0,.124,0a.191.191,0,0,1,.093.019q.034.018.033.093a.538.538,0,0,1-.045.183c-.03.077-.075.116-.134.116a.219.219,0,0,1-.052-.007.275.275,0,0,0-.067-.008c-.05,0-.074.03-.074.09l-.015,1.472a.4.4,0,0,1-.019.108.861.861,0,0,1-.049.127.427.427,0,0,1-.071.108.125.125,0,0,1-.093.045.215.215,0,0,1-.146-.038.233.233,0,0,1-.048-.157l-.075-1.741q-.2,0-.5.011t-.594.026q-.3.015-.549.041a2.415,2.415,0,0,0-.355.056.526.526,0,0,0-.03.138,1.362,1.362,0,0,0-.008.138v1.27Q815.721,377.928,815.385,377.928Z" transform="translate(-778.251 -373.259)"/>
        <path id="Path_583" data-name="Path 583" d="M831.147,374.866q-.011-.224-.011-.418a1.71,1.71,0,0,0-.008-.175.219.219,0,0,0-.052-.123.53.53,0,0,1-.1-.146.323.323,0,0,1-.026-.123.241.241,0,0,1,.067-.127,1.184,1.184,0,0,1,.157-.157,1.482,1.482,0,0,1,.183-.131.319.319,0,0,1,.146-.056.372.372,0,0,1,.187.063c.07.042.1.078.1.108a.541.541,0,0,1-.033.183.788.788,0,0,0-.041.22q-.03.329-.049,1.1t-.019,2.118a1.99,1.99,0,0,1-.056.594.192.192,0,0,1-.183.145.223.223,0,0,1-.093-.018.163.163,0,0,1-.071-.093.958.958,0,0,1-.049-.228q-.018-.153-.026-.426t-.011-.687q0-.415,0-1Q831.158,375.09,831.147,374.866Z" transform="translate(-788.921 -373.125)"/>
        <path id="Path_584" data-name="Path 584" d="M841.065,376.655a.372.372,0,0,1,.187-.063c.084,0,.127.033.127.1a.735.735,0,0,1-.019.108,1.426,1.426,0,0,1-.052.179,1.366,1.366,0,0,1-.075.171c-.027.052-.056.079-.086.079a.387.387,0,0,1-.123-.019l-.168-.056a.174.174,0,0,0-.052-.011c-.025,0-.067-.005-.127-.007l-.243-.008q-.153,0-.392,0t-.407,0l-.243.008a.65.65,0,0,0-.131.015.4.4,0,0,0-.071.026.483.483,0,0,1-.232.052.135.135,0,0,1-.093-.052,1.156,1.156,0,0,1-.093-.116.658.658,0,0,1-.071-.127.283.283,0,0,1-.026-.086.219.219,0,0,1,.075-.138.307.307,0,0,0,.075-.22q.008-.119.011-.291t0-.4v-1.053a7.961,7.961,0,0,0-.037-.87q-.038-.325-.078-.508a1.167,1.167,0,0,0-.078-.254.267.267,0,0,1-.038-.116q0-.037.071-.112a1.373,1.373,0,0,1,.164-.146,1.566,1.566,0,0,1,.187-.123.336.336,0,0,1,.131-.052.38.38,0,0,1,.164.049.147.147,0,0,1,.1.13.573.573,0,0,1-.03.164.68.68,0,0,0-.03.2q0,.336-.023.665t-.022.642c0,.139,0,.27.007.392s.008.265.008.429-.005.313-.015.475-.02.313-.03.452-.02.262-.03.366-.015.179-.015.224.03.06.09.06a.229.229,0,0,0,.078-.015.27.27,0,0,1,.093-.015l1.352-.052A.463.463,0,0,0,841.065,376.655Z" transform="translate(-794.025 -372.558)"/>
        <path id="Path_585" data-name="Path 585" d="M852.688,376.655a.371.371,0,0,1,.187-.063c.084,0,.127.033.127.1a.685.685,0,0,1-.019.108,1.452,1.452,0,0,1-.127.351c-.028.052-.056.079-.086.079a.387.387,0,0,1-.123-.019l-.168-.056a.175.175,0,0,0-.052-.011c-.025,0-.067-.005-.127-.007l-.243-.008q-.153,0-.392,0t-.407,0l-.243.008a.648.648,0,0,0-.131.015.378.378,0,0,0-.071.026.486.486,0,0,1-.232.052.135.135,0,0,1-.093-.052,1.155,1.155,0,0,1-.093-.116.645.645,0,0,1-.071-.127.284.284,0,0,1-.026-.086.219.219,0,0,1,.075-.138.307.307,0,0,0,.075-.22q.007-.119.011-.291t0-.4v-1.053a7.961,7.961,0,0,0-.037-.87q-.038-.325-.078-.508a1.166,1.166,0,0,0-.078-.254.267.267,0,0,1-.038-.116q0-.037.071-.112a1.377,1.377,0,0,1,.164-.146,1.561,1.561,0,0,1,.187-.123.336.336,0,0,1,.131-.052.379.379,0,0,1,.164.049.147.147,0,0,1,.1.13.57.57,0,0,1-.03.164.683.683,0,0,0-.03.2q0,.336-.023.665t-.022.642q0,.209.007.392c.005.122.008.265.008.429s-.005.313-.015.475-.02.313-.03.452-.02.262-.03.366-.015.179-.015.224.03.06.09.06a.228.228,0,0,0,.078-.015.27.27,0,0,1,.093-.015l1.352-.052A.464.464,0,0,0,852.688,376.655Z" transform="translate(-801.771 -372.558)"/>
      </g>
      <g id="Group_54" data-name="Group 54">
        <path id="Path_586" data-name="Path 586" d="M705.917,376.793a9.458,9.458,0,0,0-.265.919.85.85,0,0,1-.03.1.108.108,0,0,1-.052.056.317.317,0,0,1-.1.026,1.592,1.592,0,0,1-.168.007.254.254,0,0,1-.112-.03.654.654,0,0,1-.112-.071.464.464,0,0,1-.086-.086.135.135,0,0,1-.033-.075.24.24,0,0,1,.03-.1.987.987,0,0,1,.134-.179,1.86,1.86,0,0,0,.254-.407,5.8,5.8,0,0,0,.247-.579,5.582,5.582,0,0,0,.183-.6,2.155,2.155,0,0,0,.071-.482,1.655,1.655,0,0,0-.123-.665,2.449,2.449,0,0,0-.276-.489q-.153-.205-.276-.351a.42.42,0,0,1-.123-.243c0-.025.016-.045.048-.06a.569.569,0,0,1,.116-.037,1.218,1.218,0,0,1,.138-.023c.047,0,.088-.007.123-.007a.226.226,0,0,1,.12.045,1.032,1.032,0,0,1,.183.183q.116.138.307.4t.482.688c.085.119.188.255.31.407s.254.306.4.463.29.309.445.456a5.71,5.71,0,0,0,.459.4,2.763,2.763,0,0,0,.433.28.826.826,0,0,0,.37.1,1.745,1.745,0,0,0,.721-.194,3.729,3.729,0,0,0,.818-.534,4.284,4.284,0,0,0,.736-.811,2.981,2.981,0,0,0,.467-1.023,1.168,1.168,0,0,1,.086-.261c.027-.05.056-.075.086-.075a.484.484,0,0,1,.086.011.509.509,0,0,1,.112.037.469.469,0,0,1,.1.06.1.1,0,0,1,.041.079,1.486,1.486,0,0,1-.03.22q-.03.161-.071.407t-.071.583q-.03.336-.03.747a1.764,1.764,0,0,0,.064.489,2.826,2.826,0,0,0,.142.392q.078.172.142.3a.5.5,0,0,1,.063.209q0,.03-.052.071a.8.8,0,0,1-.123.078,1.105,1.105,0,0,1-.146.064.387.387,0,0,1-.119.026q-.09,0-.138-.119a1.247,1.247,0,0,1-.071-.329q-.023-.179-.056-.411c-.022-.154-.045-.306-.067-.456s-.042-.285-.06-.407-.031-.21-.041-.265l-.463.418a4.87,4.87,0,0,1-1.1.755,2.481,2.481,0,0,1-1.1.284,1.763,1.763,0,0,1-.4-.045,1.553,1.553,0,0,1-.407-.164,3.14,3.14,0,0,1-.459-.325,6.079,6.079,0,0,1-.545-.527l-.755-.8Q706.122,376.166,705.917,376.793Z" transform="translate(-704.957 -373.125)"/>
        <path id="Path_587" data-name="Path 587" d="M731.487,375.4a2.092,2.092,0,0,1,.336-.695,1.736,1.736,0,0,1,1.471-.71,1.423,1.423,0,0,1,.568.116,1.257,1.257,0,0,1,.471.359,1.826,1.826,0,0,1,.321.62,2.966,2.966,0,0,1,.12.893,2.327,2.327,0,0,1-.154.874,1.912,1.912,0,0,1-.407.639,1.751,1.751,0,0,1-1.255.527,1.434,1.434,0,0,1-.56-.119,1.5,1.5,0,0,1-.508-.355,1.839,1.839,0,0,1-.366-.586,2.158,2.158,0,0,1-.142-.814A2.817,2.817,0,0,1,731.487,375.4Zm.485,1.016a1.784,1.784,0,0,0,.191.5,1.421,1.421,0,0,0,.377.437.965.965,0,0,0,.612.187,1.214,1.214,0,0,0,.351-.06.961.961,0,0,0,.37-.224,1.245,1.245,0,0,0,.292-.452,1.993,1.993,0,0,0,.116-.736,2.662,2.662,0,0,0-.1-.777,1.469,1.469,0,0,0-.254-.5.942.942,0,0,0-.359-.276,1.088,1.088,0,0,0-.941.045,1.206,1.206,0,0,0-.388.347,1.6,1.6,0,0,0-.239.508,2.25,2.25,0,0,0-.082.613A2.1,2.1,0,0,0,731.972,376.411Z" transform="translate(-722.567 -373.513)"/>
        <path id="Path_588" data-name="Path 588" d="M746.962,372.748a1.168,1.168,0,0,1,.187-.011,1.633,1.633,0,0,1,.526.082,1.5,1.5,0,0,1,.422.217,1.112,1.112,0,0,1,.284.3.637.637,0,0,1,.1.34,1.068,1.068,0,0,1-.09.459,1.007,1.007,0,0,1-.228.318,1.282,1.282,0,0,1-.295.206,2.226,2.226,0,0,1-.291.123q-.18.06-.217.078c-.025.013-.037.026-.037.041s.02.033.06.052.127.072.262.157.294.187.478.307.384.252.6.4q.239.157.482.31t.463.3q.22.142.407.254t.306.187a1.241,1.241,0,0,0,.613.172.075.075,0,0,1,.056.03.121.121,0,0,1,.026.082.215.215,0,0,1-.063.112,1.437,1.437,0,0,1-.149.149,1.615,1.615,0,0,1-.172.131.28.28,0,0,1-.131.056.9.9,0,0,1-.336-.164q-.254-.164-.6-.411t-.755-.545q-.407-.3-.8-.56t-.743-.456a2.1,2.1,0,0,0-.571-.239c-.01.1-.018.21-.023.333s-.007.243-.007.362v.2q0,.307.011.5c.007.13.015.235.022.318s.015.148.022.2a.938.938,0,0,1,.011.134.121.121,0,0,1-.041.1.262.262,0,0,1-.146.03.749.749,0,0,1-.142-.019c-.06-.012-.118-.027-.175-.045a.512.512,0,0,1-.146-.067.111.111,0,0,1-.06-.086.167.167,0,0,1,.019-.075c.012-.025.027-.058.045-.1a1.344,1.344,0,0,0,.052-.161,1.176,1.176,0,0,0,.034-.239q0-.06.007-.287t.019-.534q.011-.306.019-.646t.008-.624c0-.085,0-.191,0-.321s-.007-.258-.015-.385-.018-.239-.03-.336-.029-.153-.048-.168a.26.26,0,0,1-.157-.224q0-.1.149-.134l.65-.172C746.872,372.764,746.917,372.756,746.962,372.748Zm-.191,1.976a.112.112,0,0,0,.056.015.337.337,0,0,0,.12-.037l.276-.127c.045-.02.093-.042.146-.067a1.242,1.242,0,0,0,.161-.093.767.767,0,0,0,.149-.134.675.675,0,0,0,.112-.19,1.567,1.567,0,0,0,.082-.5.384.384,0,0,0-.034-.172.852.852,0,0,0-.078-.127.215.215,0,0,0-.067-.052,1.12,1.12,0,0,0-.116-.056,1.136,1.136,0,0,0-.119-.041.38.38,0,0,0-.086-.015,1.051,1.051,0,0,0-.112.011,1.449,1.449,0,0,0-.168.034,1,1,0,0,0-.153.052c-.045.02-.07.042-.074.067a3.628,3.628,0,0,0-.06.37c-.015.132-.027.262-.037.388s-.016.244-.019.351,0,.19,0,.25C746.745,374.689,746.754,374.714,746.771,374.724Z" transform="translate(-732.328 -372.677)"/>
        <path id="Path_589" data-name="Path 589" d="M764.334,376.255a.509.509,0,0,1,.217-.03.172.172,0,0,1,.075.015.126.126,0,0,1,.049.079.867.867,0,0,1,.022.194c0,.087,0,.21,0,.37a7.856,7.856,0,0,0,.033.81,4.934,4.934,0,0,1,.034.527.219.219,0,0,1-.041.149.243.243,0,0,1-.175.045.12.12,0,0,1-.075-.023.228.228,0,0,1-.06-.086.894.894,0,0,1-.056-.183q-.027-.12-.056-.314a.2.2,0,0,0-.224-.194.689.689,0,0,0-.108.015c-.052.01-.113.02-.183.03l-.224.03a1.8,1.8,0,0,1-.224.015,1.664,1.664,0,0,1-.848-.194,1.632,1.632,0,0,1-.527-.474,1.818,1.818,0,0,1-.273-.587,2.2,2.2,0,0,1-.078-.538,3,3,0,0,1,.142-.911,2.253,2.253,0,0,1,.445-.8,2.3,2.3,0,0,1,.766-.572,2.555,2.555,0,0,1,1.105-.22,1.759,1.759,0,0,1,.65.093.31.31,0,0,1,.224.295.175.175,0,0,1-.045.108.485.485,0,0,1-.1.1.729.729,0,0,1-.12.067.257.257,0,0,1-.1.026.176.176,0,0,1-.108-.045q-.056-.045-.22-.195a.37.37,0,0,0-.142-.086.629.629,0,0,0-.164-.019,1.212,1.212,0,0,0-.691.22,2.328,2.328,0,0,0-.571.556,2.846,2.846,0,0,0-.388.736,2.265,2.265,0,0,0-.142.758,2.091,2.091,0,0,0,.086.657.9.9,0,0,0,.239.392.837.837,0,0,0,.355.19,1.729,1.729,0,0,0,.433.052,1.327,1.327,0,0,0,.37-.049,1.2,1.2,0,0,0,.292-.123.72.72,0,0,0,.194-.164.4.4,0,0,0,.086-.179l.06-.448A.141.141,0,0,1,764.334,376.255Z" transform="translate(-742.716 -373.125)"/>
        <path id="Path_590" data-name="Path 590" d="M774.97,376.222a.6.6,0,0,0-.247.258l-.374.65a.366.366,0,0,0-.045.142q-.008.075-.112.075a1.03,1.03,0,0,1-.336-.045q-.127-.045-.127-.127a.21.21,0,0,1,.075-.142,2.072,2.072,0,0,0,.172-.2q.134-.172.3-.411t.329-.5q.164-.261.321-.527t.276-.489q.12-.224.194-.392a.711.711,0,0,0,.074-.235q0-.15-.254-.4l-.612-.62a.909.909,0,0,0-.179-.157.126.126,0,0,1-.075-.1q0-.03.056-.071a1.21,1.21,0,0,1,.131-.082,1.238,1.238,0,0,1,.153-.071.384.384,0,0,1,.131-.03,1.475,1.475,0,0,1,.164.007.243.243,0,0,1,.1.034.2.2,0,0,1,.067.078c.017.035.038.082.063.142a.668.668,0,0,0,.093.149q.079.1.161.209.605.732,1.046,1.233t.8.878q.362.377.695.684t.728.657a.412.412,0,0,0,.142.09l.116.037a.213.213,0,0,1,.078.041.12.12,0,0,1,.03.093.17.17,0,0,1-.041.086.782.782,0,0,1-.1.112.774.774,0,0,1-.119.094.207.207,0,0,1-.1.037h-.224a.082.082,0,0,1-.082-.052.393.393,0,0,0-.06-.1,11.839,11.839,0,0,0-1-1.1H775.4A.987.987,0,0,0,774.97,376.222Zm.366-.818-.127.224a.188.188,0,0,0-.03.09.066.066,0,0,0,.019.048.171.171,0,0,0,.093.026q.075.008.224.011t.418,0q.291,0,.485,0c.13,0,.234-.006.314-.011a1.506,1.506,0,0,0,.179-.019.363.363,0,0,0,.09-.026l-1.173-1.2Z" transform="translate(-750.789 -372.677)"/>
        <path id="Path_591" data-name="Path 591" d="M792.158,374.6q0-.139,0-.28a.541.541,0,0,0-.1-.366.6.6,0,0,0-.224-.161l-.224-.086a.135.135,0,0,1-.1-.134c0-.035.027-.072.082-.112l.269-.217a.345.345,0,0,1,.1-.067.226.226,0,0,1,.078-.015.158.158,0,0,1,.086.026.472.472,0,0,1,.1.1q.433.515.889,1.031t.848.941q.392.426.68.724t.392.388q.059-.381.086-.728t.026-.714a4.994,4.994,0,0,0-.022-.508q-.022-.216-.045-.366c-.015-.1-.03-.179-.045-.239a.612.612,0,0,1-.022-.142.148.148,0,0,1,.063-.108.41.41,0,0,1,.138-.063.949.949,0,0,1,.172-.03c.059-.005.114-.007.164-.007a.151.151,0,0,1,.142.063.283.283,0,0,1,.037.146,1.35,1.35,0,0,1-.037.246q-.037.172-.082.463t-.082.729q-.038.437-.037,1.05,0,.187.008.4t.007.452a.268.268,0,0,1-.067.161,1.014,1.014,0,0,1-.154.157,1.249,1.249,0,0,1-.168.119.294.294,0,0,1-.112.049c-.025,0-.046-.027-.063-.082s-.039-.124-.063-.209a2.218,2.218,0,0,0-.108-.284,1.327,1.327,0,0,0-.205-.314q-.291-.344-.6-.676t-.582-.62q-.273-.288-.493-.512t-.333-.351q-.023.314-.037.646t-.019.646q0,.314-.007.586t0,.459q0,.165.008.333c0,.112.007.2.007.258a.322.322,0,0,1-.026.123.151.151,0,0,1-.108.086l-.273.067a.753.753,0,0,1-.176.022c-.095,0-.142-.035-.142-.1a.205.205,0,0,1,.037-.116q.037-.056.086-.142a1.2,1.2,0,0,0,.093-.228,1.6,1.6,0,0,0,.06-.366l.09-1.845Q792.154,374.739,792.158,374.6Z" transform="translate(-762.64 -372.961)"/>
        <path id="Path_592" data-name="Path 592" d="M815.385,377.928a.121.121,0,0,1-.112-.049.268.268,0,0,1-.03-.138q0-.388.022-.807t.022-.889v-.433q0-.231,0-.456t-.011-.418q-.008-.194-.015-.336a.245.245,0,0,0-.048-.153.605.605,0,0,0-.112-.112c-.042-.032-.08-.063-.112-.093a.138.138,0,0,1-.048-.1.169.169,0,0,1,.034-.075.647.647,0,0,1,.089-.108.673.673,0,0,1,.131-.1.3.3,0,0,1,.157-.045.587.587,0,0,1,.164.03,1.552,1.552,0,0,1,.187.071.976.976,0,0,1,.153.086c.042.03.063.057.063.082a.534.534,0,0,1-.056.194.846.846,0,0,0-.063.306q0,.269,0,.56t-.019.568h1.987c.005-.1.009-.212.011-.336s0-.252,0-.381a4.642,4.642,0,0,0-.023-.478q-.022-.217-.022-.322,0-.052.075-.1a.88.88,0,0,1,.176-.078,1.466,1.466,0,0,1,.205-.053,1.024,1.024,0,0,1,.172-.018c.1,0,.149.035.149.1a.13.13,0,0,1-.019.064c-.012.022-.026.05-.041.082s-.032.073-.052.123a1.088,1.088,0,0,0-.052.194c-.015.089-.027.186-.037.291s-.018.211-.022.318-.009.212-.011.314,0,.19,0,.265c.04,0,.081-.009.123-.011s.083,0,.124,0a.191.191,0,0,1,.093.019q.034.018.033.093a.538.538,0,0,1-.045.183c-.03.077-.075.116-.134.116a.219.219,0,0,1-.052-.007.275.275,0,0,0-.067-.008c-.05,0-.074.03-.074.09l-.015,1.472a.4.4,0,0,1-.019.108.861.861,0,0,1-.049.127.427.427,0,0,1-.071.108.125.125,0,0,1-.093.045.215.215,0,0,1-.146-.038.233.233,0,0,1-.048-.157l-.075-1.741q-.2,0-.5.011t-.594.026q-.3.015-.549.041a2.415,2.415,0,0,0-.355.056.526.526,0,0,0-.03.138,1.362,1.362,0,0,0-.008.138v1.27Q815.721,377.928,815.385,377.928Z" transform="translate(-778.251 -373.259)"/>
        <path id="Path_593" data-name="Path 593" d="M831.147,374.866q-.011-.224-.011-.418a1.71,1.71,0,0,0-.008-.175.219.219,0,0,0-.052-.123.53.53,0,0,1-.1-.146.323.323,0,0,1-.026-.123.241.241,0,0,1,.067-.127,1.184,1.184,0,0,1,.157-.157,1.482,1.482,0,0,1,.183-.131.319.319,0,0,1,.146-.056.372.372,0,0,1,.187.063c.07.042.1.078.1.108a.541.541,0,0,1-.033.183.788.788,0,0,0-.041.22q-.03.329-.049,1.1t-.019,2.118a1.99,1.99,0,0,1-.056.594.192.192,0,0,1-.183.145.223.223,0,0,1-.093-.018.163.163,0,0,1-.071-.093.958.958,0,0,1-.049-.228q-.018-.153-.026-.426t-.011-.687q0-.415,0-1Q831.158,375.09,831.147,374.866Z" transform="translate(-788.921 -373.125)"/>
        <path id="Path_594" data-name="Path 594" d="M841.065,376.655a.372.372,0,0,1,.187-.063c.084,0,.127.033.127.1a.735.735,0,0,1-.019.108,1.426,1.426,0,0,1-.052.179,1.366,1.366,0,0,1-.075.171c-.027.052-.056.079-.086.079a.387.387,0,0,1-.123-.019l-.168-.056a.174.174,0,0,0-.052-.011c-.025,0-.067-.005-.127-.007l-.243-.008q-.153,0-.392,0t-.407,0l-.243.008a.65.65,0,0,0-.131.015.4.4,0,0,0-.071.026.483.483,0,0,1-.232.052.135.135,0,0,1-.093-.052,1.156,1.156,0,0,1-.093-.116.658.658,0,0,1-.071-.127.283.283,0,0,1-.026-.086.219.219,0,0,1,.075-.138.307.307,0,0,0,.075-.22q.008-.119.011-.291t0-.4v-1.053a7.961,7.961,0,0,0-.037-.87q-.038-.325-.078-.508a1.167,1.167,0,0,0-.078-.254.267.267,0,0,1-.038-.116q0-.037.071-.112a1.373,1.373,0,0,1,.164-.146,1.566,1.566,0,0,1,.187-.123.336.336,0,0,1,.131-.052.38.38,0,0,1,.164.049.147.147,0,0,1,.1.13.573.573,0,0,1-.03.164.68.68,0,0,0-.03.2q0,.336-.023.665t-.022.642c0,.139,0,.27.007.392s.008.265.008.429-.005.313-.015.475-.02.313-.03.452-.02.262-.03.366-.015.179-.015.224.03.06.09.06a.229.229,0,0,0,.078-.015.27.27,0,0,1,.093-.015l1.352-.052A.463.463,0,0,0,841.065,376.655Z" transform="translate(-794.025 -372.558)"/>
        <path id="Path_595" data-name="Path 595" d="M852.688,376.655a.371.371,0,0,1,.187-.063c.084,0,.127.033.127.1a.685.685,0,0,1-.019.108,1.452,1.452,0,0,1-.127.351c-.028.052-.056.079-.086.079a.387.387,0,0,1-.123-.019l-.168-.056a.175.175,0,0,0-.052-.011c-.025,0-.067-.005-.127-.007l-.243-.008q-.153,0-.392,0t-.407,0l-.243.008a.648.648,0,0,0-.131.015.378.378,0,0,0-.071.026.486.486,0,0,1-.232.052.135.135,0,0,1-.093-.052,1.155,1.155,0,0,1-.093-.116.645.645,0,0,1-.071-.127.284.284,0,0,1-.026-.086.219.219,0,0,1,.075-.138.307.307,0,0,0,.075-.22q.007-.119.011-.291t0-.4v-1.053a7.961,7.961,0,0,0-.037-.87q-.038-.325-.078-.508a1.166,1.166,0,0,0-.078-.254.267.267,0,0,1-.038-.116q0-.037.071-.112a1.377,1.377,0,0,1,.164-.146,1.561,1.561,0,0,1,.187-.123.336.336,0,0,1,.131-.052.379.379,0,0,1,.164.049.147.147,0,0,1,.1.13.57.57,0,0,1-.03.164.683.683,0,0,0-.03.2q0,.336-.023.665t-.022.642q0,.209.007.392c.005.122.008.265.008.429s-.005.313-.015.475-.02.313-.03.452-.02.262-.03.366-.015.179-.015.224.03.06.09.06a.228.228,0,0,0,.078-.015.27.27,0,0,1,.093-.015l1.352-.052A.464.464,0,0,0,852.688,376.655Z" transform="translate(-801.771 -372.558)"/>
      </g>
      <g id="Group_55" data-name="Group 55" transform="translate(11.153 9.026)">
        <path id="Path_596" data-name="Path 596" d="M738.514,402.135a2.433,2.433,0,0,1,.325-.691,1.918,1.918,0,0,1,.459-.47,2.5,2.5,0,0,1,.534-.292,2.571,2.571,0,0,1,.542-.149,3.139,3.139,0,0,1,.474-.041.847.847,0,0,1,.486.119q.172.12.171.232a.2.2,0,0,1-.045.108.813.813,0,0,1-.108.123.741.741,0,0,1-.135.1.25.25,0,0,1-.116.041.113.113,0,0,1-.086-.052c-.027-.035-.06-.073-.1-.116a.657.657,0,0,0-.138-.116.372.372,0,0,0-.2-.052,1.469,1.469,0,0,0-.624.123,1.581,1.581,0,0,0-.456.314,1.643,1.643,0,0,0-.31.43,2.8,2.8,0,0,0-.186.471,2.885,2.885,0,0,0-.093.43,2.476,2.476,0,0,0-.026.31,1.525,1.525,0,0,0,.093.489,1.96,1.96,0,0,0,.265.512,1.586,1.586,0,0,0,.415.4.948.948,0,0,0,.534.161,1.241,1.241,0,0,0,.489-.093,2.217,2.217,0,0,0,.388-.209q.168-.116.288-.209a.354.354,0,0,1,.187-.093.149.149,0,0,1,.116.045.16.16,0,0,1,.041.112.232.232,0,0,1-.048.1,1.327,1.327,0,0,1-.135.16q-.086.09-.194.183a1.3,1.3,0,0,1-.235.16.992.992,0,0,1-.2.086,2.427,2.427,0,0,1-.277.071c-.1.02-.2.036-.314.049a2.819,2.819,0,0,1-.314.019,1.6,1.6,0,0,1-.485-.09,1.507,1.507,0,0,1-.523-.3,1.711,1.711,0,0,1-.415-.56,1.975,1.975,0,0,1-.168-.863A3.252,3.252,0,0,1,738.514,402.135Z" transform="translate(-738.391 -400.2)"/>
        <path id="Path_597" data-name="Path 597" d="M753.815,402.351a.143.143,0,0,1-.041.071.961.961,0,0,1-.1.1,1.143,1.143,0,0,1-.116.09.18.18,0,0,1-.093.037q-.336.03-.624.034t-.512.011a2.175,2.175,0,0,0,.351,1.349,1.331,1.331,0,0,0,1.12.452.535.535,0,0,1,.221.03.131.131,0,0,1,.056.127q0,.06-.112.119a.923.923,0,0,1-.4.06,2.445,2.445,0,0,1-.725-.093,1.562,1.562,0,0,1-.5-.25,1.207,1.207,0,0,1-.317-.362,1.81,1.81,0,0,1-.176-.433,2.436,2.436,0,0,1-.075-.459q-.015-.232-.015-.441a4.8,4.8,0,0,1,.138-1.252,2.524,2.524,0,0,1,.362-.814,1.292,1.292,0,0,1,.519-.441,1.49,1.49,0,0,1,.609-.131,1.233,1.233,0,0,1,.426.049.176.176,0,0,1,.112.175q0,.164-.142.164h-.441a.853.853,0,0,0-.347.075.751.751,0,0,0-.306.28,1.909,1.909,0,0,0-.236.564,4.541,4.541,0,0,0-.127.919.491.491,0,0,1,.336-.12h1.009Q753.814,402.262,753.815,402.351Z" transform="translate(-747.3 -399.976)"/>
        <path id="Path_598" data-name="Path 598" d="M765.146,403.737a.373.373,0,0,1,.187-.063c.084,0,.127.033.127.1a.685.685,0,0,1-.019.108,1.451,1.451,0,0,1-.127.351c-.028.052-.056.079-.086.079a.387.387,0,0,1-.123-.019l-.168-.056a.175.175,0,0,0-.052-.011c-.025,0-.067-.005-.127-.007l-.243-.008q-.153,0-.392,0t-.407,0l-.243.008a.656.656,0,0,0-.131.015.387.387,0,0,0-.071.026.485.485,0,0,1-.232.052.135.135,0,0,1-.093-.052,1.144,1.144,0,0,1-.093-.116.653.653,0,0,1-.071-.127.283.283,0,0,1-.026-.086.22.22,0,0,1,.075-.138.307.307,0,0,0,.075-.221c.005-.079.009-.176.011-.291s0-.249,0-.4v-1.053a7.961,7.961,0,0,0-.037-.87q-.038-.325-.078-.508a1.168,1.168,0,0,0-.078-.254.267.267,0,0,1-.038-.116q0-.038.071-.112a1.374,1.374,0,0,1,.164-.146,1.584,1.584,0,0,1,.187-.123.336.336,0,0,1,.131-.052.379.379,0,0,1,.164.049.147.147,0,0,1,.1.13.574.574,0,0,1-.03.164.679.679,0,0,0-.03.2q0,.336-.023.665t-.022.643q0,.209.007.392c.005.122.008.265.008.429s-.005.313-.015.475-.02.313-.03.452-.02.262-.03.366-.015.179-.015.224.03.06.09.06a.227.227,0,0,0,.078-.015.27.27,0,0,1,.093-.015l1.352-.052A.463.463,0,0,0,765.146,403.737Z" transform="translate(-754.583 -399.633)"/>
        <path id="Path_599" data-name="Path 599" d="M776.77,403.737a.373.373,0,0,1,.187-.063c.084,0,.127.033.127.1a.689.689,0,0,1-.019.108,1.454,1.454,0,0,1-.127.351c-.028.052-.056.079-.086.079a.39.39,0,0,1-.123-.019l-.168-.056a.176.176,0,0,0-.052-.011c-.025,0-.067-.005-.127-.007l-.243-.008q-.153,0-.392,0t-.407,0l-.243.008a.656.656,0,0,0-.131.015.387.387,0,0,0-.071.026.486.486,0,0,1-.232.052.135.135,0,0,1-.093-.052,1.152,1.152,0,0,1-.093-.116.656.656,0,0,1-.071-.127.282.282,0,0,1-.026-.086.22.22,0,0,1,.075-.138.307.307,0,0,0,.075-.221q.008-.119.011-.291t0-.4v-1.053a7.964,7.964,0,0,0-.037-.87q-.038-.325-.078-.508a1.168,1.168,0,0,0-.078-.254.266.266,0,0,1-.037-.116c0-.025.023-.062.071-.112a1.374,1.374,0,0,1,.164-.146,1.578,1.578,0,0,1,.187-.123.336.336,0,0,1,.131-.052.378.378,0,0,1,.164.049.147.147,0,0,1,.1.13.574.574,0,0,1-.03.164.691.691,0,0,0-.03.2q0,.336-.023.665t-.022.643c0,.139,0,.27.007.392s.008.265.008.429,0,.313-.015.475-.02.313-.03.452-.02.262-.03.366-.015.179-.015.224.03.06.09.06a.227.227,0,0,0,.078-.015.272.272,0,0,1,.093-.015l1.352-.052A.462.462,0,0,0,776.77,403.737Z" transform="translate(-762.33 -399.633)"/>
        <path id="Path_600" data-name="Path 600" d="M784.935,403.3a.6.6,0,0,0-.247.258l-.374.65a.364.364,0,0,0-.045.142c-.005.05-.043.075-.112.075a1.03,1.03,0,0,1-.336-.045q-.127-.044-.127-.127a.211.211,0,0,1,.075-.142,2.067,2.067,0,0,0,.172-.2q.134-.172.3-.411t.329-.5q.165-.261.321-.527t.276-.489q.12-.224.194-.392a.715.715,0,0,0,.075-.235q0-.15-.254-.4l-.613-.62a.911.911,0,0,0-.179-.157.125.125,0,0,1-.075-.1q0-.03.056-.071a1.17,1.17,0,0,1,.131-.082,1.251,1.251,0,0,1,.153-.071.382.382,0,0,1,.131-.03,1.491,1.491,0,0,1,.164.007.243.243,0,0,1,.1.034.193.193,0,0,1,.067.078c.018.035.039.082.064.142a.662.662,0,0,0,.093.149c.052.07.106.139.16.209q.605.732,1.046,1.233t.8.878q.362.377.695.684t.728.657a.414.414,0,0,0,.142.09l.116.037a.216.216,0,0,1,.078.041.12.12,0,0,1,.03.093.171.171,0,0,1-.041.086.876.876,0,0,1-.22.206.207.207,0,0,1-.1.037h-.224a.082.082,0,0,1-.082-.052.394.394,0,0,0-.06-.1,11.845,11.845,0,0,0-1-1.1h-1.98A.991.991,0,0,0,784.935,403.3Zm.366-.818-.127.224a.191.191,0,0,0-.03.09.066.066,0,0,0,.019.048.171.171,0,0,0,.093.026q.075.008.224.011c.1,0,.239,0,.418,0s.356,0,.485,0,.234-.006.314-.011a1.525,1.525,0,0,0,.179-.019.339.339,0,0,0,.09-.026l-1.173-1.2Z" transform="translate(-768.583 -399.752)"/>
        <path id="Path_601" data-name="Path 601" d="M803.4,399.83a1.177,1.177,0,0,1,.187-.011,1.636,1.636,0,0,1,.527.082,1.5,1.5,0,0,1,.422.217,1.116,1.116,0,0,1,.284.3.637.637,0,0,1,.1.34,1.074,1.074,0,0,1-.09.459,1.006,1.006,0,0,1-.228.318,1.281,1.281,0,0,1-.3.206,2.2,2.2,0,0,1-.291.123c-.119.04-.192.066-.216.078s-.038.026-.038.041.02.033.06.052.127.072.261.157.294.187.478.307.383.252.6.4q.239.157.482.31t.463.3q.22.142.407.254t.306.187a1.24,1.24,0,0,0,.612.172.074.074,0,0,1,.056.03.119.119,0,0,1,.026.082.218.218,0,0,1-.063.112,1.407,1.407,0,0,1-.15.149,1.537,1.537,0,0,1-.172.131.279.279,0,0,1-.13.056.892.892,0,0,1-.336-.164q-.254-.164-.6-.411t-.755-.545q-.407-.3-.8-.56t-.744-.456a2.1,2.1,0,0,0-.571-.239q-.015.15-.022.333t-.008.362v.2c0,.2,0,.371.011.5s.015.235.023.318.015.148.022.2a.893.893,0,0,1,.011.134.121.121,0,0,1-.041.1.262.262,0,0,1-.146.03.747.747,0,0,1-.142-.019q-.09-.019-.176-.045a.509.509,0,0,1-.145-.067.11.11,0,0,1-.06-.086.162.162,0,0,1,.019-.075c.012-.025.027-.058.045-.1a1.406,1.406,0,0,0,.052-.161,1.175,1.175,0,0,0,.033-.239q0-.06.008-.287t.019-.534q.011-.306.019-.646t.007-.624q0-.127,0-.321c0-.129-.008-.258-.015-.385s-.017-.239-.03-.336-.029-.153-.049-.168a.26.26,0,0,1-.157-.224q0-.1.149-.134l.65-.172C803.306,399.846,803.351,399.838,803.4,399.83Zm-.19,1.976a.11.11,0,0,0,.056.015.335.335,0,0,0,.119-.037l.277-.127c.045-.02.093-.042.146-.067a1.2,1.2,0,0,0,.16-.093.759.759,0,0,0,.149-.134.682.682,0,0,0,.112-.19,1.575,1.575,0,0,0,.082-.5.385.385,0,0,0-.033-.172.866.866,0,0,0-.079-.127.212.212,0,0,0-.067-.052,1.131,1.131,0,0,0-.116-.056,1.143,1.143,0,0,0-.12-.041.379.379,0,0,0-.086-.015,1.046,1.046,0,0,0-.112.011,1.458,1.458,0,0,0-.168.034,1,1,0,0,0-.153.052c-.045.02-.07.042-.075.067a3.615,3.615,0,0,0-.06.37q-.023.2-.037.389t-.019.351c0,.107,0,.19,0,.25C803.179,401.771,803.188,401.8,803.205,401.806Z" transform="translate(-781.09 -399.752)"/>
        <path id="Path_602" data-name="Path 602" d="M819.627,403.872a.1.1,0,0,1,.071-.034.573.573,0,0,1,.247.071.781.781,0,0,0,.351.071.414.414,0,0,0,.325-.138.445.445,0,0,0,.123-.3,1.081,1.081,0,0,0-.071-.351q-.071-.2-.175-.429t-.228-.471q-.124-.243-.228-.471t-.175-.43a1.066,1.066,0,0,1-.071-.344,1.013,1.013,0,0,1,.1-.362,2.612,2.612,0,0,1,.269-.474,1.987,1.987,0,0,1,.389-.415.727.727,0,0,1,.459-.175,1.533,1.533,0,0,1,.153.011,1.311,1.311,0,0,1,.2.037.778.778,0,0,1,.172.067.118.118,0,0,1,.074.1.248.248,0,0,1-.056.194.523.523,0,0,1-.266.052,1.035,1.035,0,0,0-.709.228.709.709,0,0,0-.217.527,1.3,1.3,0,0,0,.127.489q.127.3.28.635t.28.7a2.093,2.093,0,0,1,.127.691,1.6,1.6,0,0,1-.037.246,1.488,1.488,0,0,1-.138.385,1.269,1.269,0,0,1-.269.355.616.616,0,0,1-.437.157.848.848,0,0,1-.172-.022,1.589,1.589,0,0,1-.385-.138.193.193,0,0,1-.093-.078c-.015-.045-.027-.088-.037-.131a.584.584,0,0,1-.015-.138A.16.16,0,0,1,819.627,403.872Z" transform="translate(-792.507 -399.618)"/>
      </g>
      <g id="Group_56" data-name="Group 56" transform="translate(11.153 9.026)">
        <path id="Path_603" data-name="Path 603" d="M738.514,402.135a2.433,2.433,0,0,1,.325-.691,1.918,1.918,0,0,1,.459-.47,2.5,2.5,0,0,1,.534-.292,2.571,2.571,0,0,1,.542-.149,3.139,3.139,0,0,1,.474-.041.847.847,0,0,1,.486.119q.172.12.171.232a.2.2,0,0,1-.045.108.813.813,0,0,1-.108.123.741.741,0,0,1-.135.1.25.25,0,0,1-.116.041.113.113,0,0,1-.086-.052c-.027-.035-.06-.073-.1-.116a.657.657,0,0,0-.138-.116.372.372,0,0,0-.2-.052,1.469,1.469,0,0,0-.624.123,1.581,1.581,0,0,0-.456.314,1.643,1.643,0,0,0-.31.43,2.8,2.8,0,0,0-.186.471,2.885,2.885,0,0,0-.093.43,2.476,2.476,0,0,0-.026.31,1.525,1.525,0,0,0,.093.489,1.96,1.96,0,0,0,.265.512,1.586,1.586,0,0,0,.415.4.948.948,0,0,0,.534.161,1.241,1.241,0,0,0,.489-.093,2.217,2.217,0,0,0,.388-.209q.168-.116.288-.209a.354.354,0,0,1,.187-.093.149.149,0,0,1,.116.045.16.16,0,0,1,.041.112.232.232,0,0,1-.048.1,1.327,1.327,0,0,1-.135.16q-.086.09-.194.183a1.3,1.3,0,0,1-.235.16.992.992,0,0,1-.2.086,2.427,2.427,0,0,1-.277.071c-.1.02-.2.036-.314.049a2.819,2.819,0,0,1-.314.019,1.6,1.6,0,0,1-.485-.09,1.507,1.507,0,0,1-.523-.3,1.711,1.711,0,0,1-.415-.56,1.975,1.975,0,0,1-.168-.863A3.252,3.252,0,0,1,738.514,402.135Z" transform="translate(-738.391 -400.2)"/>
        <path id="Path_604" data-name="Path 604" d="M753.815,402.351a.143.143,0,0,1-.041.071.961.961,0,0,1-.1.1,1.143,1.143,0,0,1-.116.09.18.18,0,0,1-.093.037q-.336.03-.624.034t-.512.011a2.175,2.175,0,0,0,.351,1.349,1.331,1.331,0,0,0,1.12.452.535.535,0,0,1,.221.03.131.131,0,0,1,.056.127q0,.06-.112.119a.923.923,0,0,1-.4.06,2.445,2.445,0,0,1-.725-.093,1.562,1.562,0,0,1-.5-.25,1.207,1.207,0,0,1-.317-.362,1.81,1.81,0,0,1-.176-.433,2.436,2.436,0,0,1-.075-.459q-.015-.232-.015-.441a4.8,4.8,0,0,1,.138-1.252,2.524,2.524,0,0,1,.362-.814,1.292,1.292,0,0,1,.519-.441,1.49,1.49,0,0,1,.609-.131,1.233,1.233,0,0,1,.426.049.176.176,0,0,1,.112.175q0,.164-.142.164h-.441a.853.853,0,0,0-.347.075.751.751,0,0,0-.306.28,1.909,1.909,0,0,0-.236.564,4.541,4.541,0,0,0-.127.919.491.491,0,0,1,.336-.12h1.009Q753.814,402.262,753.815,402.351Z" transform="translate(-747.3 -399.976)"/>
        <path id="Path_605" data-name="Path 605" d="M765.146,403.737a.373.373,0,0,1,.187-.063c.084,0,.127.033.127.1a.685.685,0,0,1-.019.108,1.451,1.451,0,0,1-.127.351c-.028.052-.056.079-.086.079a.387.387,0,0,1-.123-.019l-.168-.056a.175.175,0,0,0-.052-.011c-.025,0-.067-.005-.127-.007l-.243-.008q-.153,0-.392,0t-.407,0l-.243.008a.656.656,0,0,0-.131.015.387.387,0,0,0-.071.026.485.485,0,0,1-.232.052.135.135,0,0,1-.093-.052,1.144,1.144,0,0,1-.093-.116.653.653,0,0,1-.071-.127.283.283,0,0,1-.026-.086.22.22,0,0,1,.075-.138.307.307,0,0,0,.075-.221c.005-.079.009-.176.011-.291s0-.249,0-.4v-1.053a7.961,7.961,0,0,0-.037-.87q-.038-.325-.078-.508a1.168,1.168,0,0,0-.078-.254.267.267,0,0,1-.038-.116q0-.038.071-.112a1.374,1.374,0,0,1,.164-.146,1.584,1.584,0,0,1,.187-.123.336.336,0,0,1,.131-.052.379.379,0,0,1,.164.049.147.147,0,0,1,.1.13.574.574,0,0,1-.03.164.679.679,0,0,0-.03.2q0,.336-.023.665t-.022.643q0,.209.007.392c.005.122.008.265.008.429s-.005.313-.015.475-.02.313-.03.452-.02.262-.03.366-.015.179-.015.224.03.06.09.06a.227.227,0,0,0,.078-.015.27.27,0,0,1,.093-.015l1.352-.052A.463.463,0,0,0,765.146,403.737Z" transform="translate(-754.583 -399.633)"/>
        <path id="Path_606" data-name="Path 606" d="M776.77,403.737a.373.373,0,0,1,.187-.063c.084,0,.127.033.127.1a.689.689,0,0,1-.019.108,1.454,1.454,0,0,1-.127.351c-.028.052-.056.079-.086.079a.39.39,0,0,1-.123-.019l-.168-.056a.176.176,0,0,0-.052-.011c-.025,0-.067-.005-.127-.007l-.243-.008q-.153,0-.392,0t-.407,0l-.243.008a.656.656,0,0,0-.131.015.387.387,0,0,0-.071.026.486.486,0,0,1-.232.052.135.135,0,0,1-.093-.052,1.152,1.152,0,0,1-.093-.116.656.656,0,0,1-.071-.127.282.282,0,0,1-.026-.086.22.22,0,0,1,.075-.138.307.307,0,0,0,.075-.221q.008-.119.011-.291t0-.4v-1.053a7.964,7.964,0,0,0-.037-.87q-.038-.325-.078-.508a1.168,1.168,0,0,0-.078-.254.266.266,0,0,1-.037-.116c0-.025.023-.062.071-.112a1.374,1.374,0,0,1,.164-.146,1.578,1.578,0,0,1,.187-.123.336.336,0,0,1,.131-.052.378.378,0,0,1,.164.049.147.147,0,0,1,.1.13.574.574,0,0,1-.03.164.691.691,0,0,0-.03.2q0,.336-.023.665t-.022.643c0,.139,0,.27.007.392s.008.265.008.429,0,.313-.015.475-.02.313-.03.452-.02.262-.03.366-.015.179-.015.224.03.06.09.06a.227.227,0,0,0,.078-.015.272.272,0,0,1,.093-.015l1.352-.052A.462.462,0,0,0,776.77,403.737Z" transform="translate(-762.33 -399.633)"/>
        <path id="Path_607" data-name="Path 607" d="M784.935,403.3a.6.6,0,0,0-.247.258l-.374.65a.364.364,0,0,0-.045.142c-.005.05-.043.075-.112.075a1.03,1.03,0,0,1-.336-.045q-.127-.044-.127-.127a.211.211,0,0,1,.075-.142,2.067,2.067,0,0,0,.172-.2q.134-.172.3-.411t.329-.5q.165-.261.321-.527t.276-.489q.12-.224.194-.392a.715.715,0,0,0,.075-.235q0-.15-.254-.4l-.613-.62a.911.911,0,0,0-.179-.157.125.125,0,0,1-.075-.1q0-.03.056-.071a1.17,1.17,0,0,1,.131-.082,1.251,1.251,0,0,1,.153-.071.382.382,0,0,1,.131-.03,1.491,1.491,0,0,1,.164.007.243.243,0,0,1,.1.034.193.193,0,0,1,.067.078c.018.035.039.082.064.142a.662.662,0,0,0,.093.149c.052.07.106.139.16.209q.605.732,1.046,1.233t.8.878q.362.377.695.684t.728.657a.414.414,0,0,0,.142.09l.116.037a.216.216,0,0,1,.078.041.12.12,0,0,1,.03.093.171.171,0,0,1-.041.086.876.876,0,0,1-.22.206.207.207,0,0,1-.1.037h-.224a.082.082,0,0,1-.082-.052.394.394,0,0,0-.06-.1,11.845,11.845,0,0,0-1-1.1h-1.98A.991.991,0,0,0,784.935,403.3Zm.366-.818-.127.224a.191.191,0,0,0-.03.09.066.066,0,0,0,.019.048.171.171,0,0,0,.093.026q.075.008.224.011c.1,0,.239,0,.418,0s.356,0,.485,0,.234-.006.314-.011a1.525,1.525,0,0,0,.179-.019.339.339,0,0,0,.09-.026l-1.173-1.2Z" transform="translate(-768.583 -399.752)"/>
        <path id="Path_608" data-name="Path 608" d="M803.4,399.83a1.177,1.177,0,0,1,.187-.011,1.636,1.636,0,0,1,.527.082,1.5,1.5,0,0,1,.422.217,1.116,1.116,0,0,1,.284.3.637.637,0,0,1,.1.34,1.074,1.074,0,0,1-.09.459,1.006,1.006,0,0,1-.228.318,1.281,1.281,0,0,1-.3.206,2.2,2.2,0,0,1-.291.123c-.119.04-.192.066-.216.078s-.038.026-.038.041.02.033.06.052.127.072.261.157.294.187.478.307.383.252.6.4q.239.157.482.31t.463.3q.22.142.407.254t.306.187a1.24,1.24,0,0,0,.612.172.074.074,0,0,1,.056.03.119.119,0,0,1,.026.082.218.218,0,0,1-.063.112,1.407,1.407,0,0,1-.15.149,1.537,1.537,0,0,1-.172.131.279.279,0,0,1-.13.056.892.892,0,0,1-.336-.164q-.254-.164-.6-.411t-.755-.545q-.407-.3-.8-.56t-.744-.456a2.1,2.1,0,0,0-.571-.239q-.015.15-.022.333t-.008.362v.2c0,.2,0,.371.011.5s.015.235.023.318.015.148.022.2a.893.893,0,0,1,.011.134.121.121,0,0,1-.041.1.262.262,0,0,1-.146.03.747.747,0,0,1-.142-.019q-.09-.019-.176-.045a.509.509,0,0,1-.145-.067.11.11,0,0,1-.06-.086.162.162,0,0,1,.019-.075c.012-.025.027-.058.045-.1a1.406,1.406,0,0,0,.052-.161,1.175,1.175,0,0,0,.033-.239q0-.06.008-.287t.019-.534q.011-.306.019-.646t.007-.624q0-.127,0-.321c0-.129-.008-.258-.015-.385s-.017-.239-.03-.336-.029-.153-.049-.168a.26.26,0,0,1-.157-.224q0-.1.149-.134l.65-.172C803.306,399.846,803.351,399.838,803.4,399.83Zm-.19,1.976a.11.11,0,0,0,.056.015.335.335,0,0,0,.119-.037l.277-.127c.045-.02.093-.042.146-.067a1.2,1.2,0,0,0,.16-.093.759.759,0,0,0,.149-.134.682.682,0,0,0,.112-.19,1.575,1.575,0,0,0,.082-.5.385.385,0,0,0-.033-.172.866.866,0,0,0-.079-.127.212.212,0,0,0-.067-.052,1.131,1.131,0,0,0-.116-.056,1.143,1.143,0,0,0-.12-.041.379.379,0,0,0-.086-.015,1.046,1.046,0,0,0-.112.011,1.458,1.458,0,0,0-.168.034,1,1,0,0,0-.153.052c-.045.02-.07.042-.075.067a3.615,3.615,0,0,0-.06.37q-.023.2-.037.389t-.019.351c0,.107,0,.19,0,.25C803.179,401.771,803.188,401.8,803.205,401.806Z" transform="translate(-781.09 -399.752)"/>
        <path id="Path_609" data-name="Path 609" d="M819.627,403.872a.1.1,0,0,1,.071-.034.573.573,0,0,1,.247.071.781.781,0,0,0,.351.071.414.414,0,0,0,.325-.138.445.445,0,0,0,.123-.3,1.081,1.081,0,0,0-.071-.351q-.071-.2-.175-.429t-.228-.471q-.124-.243-.228-.471t-.175-.43a1.066,1.066,0,0,1-.071-.344,1.013,1.013,0,0,1,.1-.362,2.612,2.612,0,0,1,.269-.474,1.987,1.987,0,0,1,.389-.415.727.727,0,0,1,.459-.175,1.533,1.533,0,0,1,.153.011,1.311,1.311,0,0,1,.2.037.778.778,0,0,1,.172.067.118.118,0,0,1,.074.1.248.248,0,0,1-.056.194.523.523,0,0,1-.266.052,1.035,1.035,0,0,0-.709.228.709.709,0,0,0-.217.527,1.3,1.3,0,0,0,.127.489q.127.3.28.635t.28.7a2.093,2.093,0,0,1,.127.691,1.6,1.6,0,0,1-.037.246,1.488,1.488,0,0,1-.138.385,1.269,1.269,0,0,1-.269.355.616.616,0,0,1-.437.157.848.848,0,0,1-.172-.022,1.589,1.589,0,0,1-.385-.138.193.193,0,0,1-.093-.078c-.015-.045-.027-.088-.037-.131a.584.584,0,0,1-.015-.138A.16.16,0,0,1,819.627,403.872Z" transform="translate(-792.507 -399.618)"/>
      </g>
    </g>
    <g id="Group_57" data-name="Group 57" transform="translate(249.784 242.404)">
      <path id="Path_610" data-name="Path 610" d="M384.861,400.24l-2-.119a63.455,63.455,0,0,1,1.017-8.135,62.628,62.628,0,0,1,2.6-9.519l.1-.293c1.877-5.429-.578-15.388-7.3-29.6l1.809-.855c7.049,14.909,9.463,25.085,7.38,31.11l-.11.312a60.666,60.666,0,0,0-2.521,9.223A61.374,61.374,0,0,0,384.861,400.24Z" transform="translate(-379.288 -351.718)" fill="#fff"/>
    </g>
    <g id="Group_58" data-name="Group 58" transform="translate(254.37 291.11)">
      <path id="Path_611" data-name="Path 611" d="M418.523,512.688c-2.638-4.3-5.7-6.954-9.089-7.9a18.809,18.809,0,0,0-3.758-.541,20.547,20.547,0,0,1-7.035-1.5,20.958,20.958,0,0,1-5.605-3.5l1.31-1.513a18.971,18.971,0,0,0,5.069,3.17,18.607,18.607,0,0,0,6.411,1.352,20.679,20.679,0,0,1,4.145.608c3.9,1.085,7.347,4.039,10.258,8.78Z" transform="translate(-393.036 -497.732)" fill="#fff"/>
    </g>
    <g id="Group_59" data-name="Group 59" transform="translate(310.002 370.257)">
      <path id="Path_612" data-name="Path 612" d="M561.271,783.386l-1.461-1.368a27.47,27.47,0,0,0,7.091-12.873c1.288-5.879.116-10.855-2.66-21.55-1.045-4.026-2.271-8.039-3.644-11.927l1.887-.667c1.392,3.941,2.635,8.009,3.694,12.09,2.784,10.73,4.061,16.168,2.678,22.482A29.437,29.437,0,0,1,561.271,783.386Z" transform="translate(-559.81 -735.001)" fill="#fff"/>
    </g>
    <g id="Group_60" data-name="Group 60" transform="translate(308.306 420.297)">
      <path id="Path_613" data-name="Path 613" d="M587.672,899.9a24.007,24.007,0,0,0-7.363-7.37c-3.98-2.476-8.179-3.178-17.3-4.53-2.76-.409-5.547-.744-8.284-.994l.182-1.993c2.774.254,5.6.593,8.4,1.007,8.744,1.3,13.561,2.01,18.061,4.81a26,26,0,0,1,7.981,7.974Z" transform="translate(-554.727 -885.013)" fill="#fff"/>
    </g>
    <g id="Group_61" data-name="Group 61" transform="translate(184.962 195.689)">
      <path id="Path_614" data-name="Path 614" d="M214.245,220.675l-29.283-9,1.294,30.607,7.7-5.942,17.327,22.444,12.41-9.581-17.327-22.444Z" transform="translate(-184.962 -211.675)" fill="#fff"/>
    </g>
    <g id="Group_62" data-name="Group 62" transform="translate(190.867 204.501)">
      <path id="Path_615" data-name="Path 615" d="M203.367,240.844a3.036,3.036,0,0,0,.578,1.488c.527.7,1.205.831,1.74.428.5-.373.565-.87.3-1.793-.345-1.1-.3-1.969.449-2.532a1.912,1.912,0,0,1,2.731.632,3.016,3.016,0,0,1,.623,1.368l-.7.232a2.643,2.643,0,0,0-.506-1.2c-.545-.724-1.185-.674-1.547-.4-.5.373-.5.879-.23,1.824.329,1.158.24,1.94-.539,2.526-.818.616-1.983.543-2.924-.708a3.427,3.427,0,0,1-.68-1.608Z" transform="translate(-202.662 -238.091)"/>
      <path id="Path_616" data-name="Path 616" d="M213.291,256.853l.438-.417-.018-.023a1.774,1.774,0,0,1-1.443-.738,1.358,1.358,0,0,1,.217-1.988c.921-.693,2.04-.254,3.14,1.224l.078-.059a.983.983,0,0,0,.23-1.529,2.379,2.379,0,0,0-1.03-.778l.338-.5a2.959,2.959,0,0,1,1.28,1,1.691,1.691,0,0,1-.468,2.621l-1.424,1.072a6.7,6.7,0,0,0-.865.75Zm1.866-1.565c-.553-.768-1.332-1.524-2.072-.967a.766.766,0,0,0-.169,1.15,1.186,1.186,0,0,0,1.33.441.923.923,0,0,0,.25-.126Z" transform="translate(-208.842 -247.389)"/>
      <path id="Path_617" data-name="Path 617" d="M222.575,263.629c.393-.3.71-.547,1.007-.808l.462.614-.6.513.012.016a1.754,1.754,0,0,1,1.664.72,1.729,1.729,0,0,1-.608,2.566l-2.274,1.712-.521-.693,2.2-1.653c.614-.462.954-1.075.462-1.728a1.231,1.231,0,0,0-1.407-.4,1.248,1.248,0,0,0-.358.2l-2.29,1.724-.521-.692Z" transform="translate(-214.081 -254.572)"/>
      <path id="Path_618" data-name="Path 618" d="M238.816,280.96l.515.685-3.549,2.671c-1.409,1.06-2.362.693-3.05-.22a2.773,2.773,0,0,1-.425-.827l.635-.318a2.049,2.049,0,0,0,.33.651c.462.614,1.01.769,2.048-.013Z" transform="translate(-222.419 -266.66)"/>
      <path id="Path_619" data-name="Path 619" d="M245.721,295.772a2.33,2.33,0,0,1-3.45-.375,2.266,2.266,0,0,1,.585-3.3,2.327,2.327,0,0,1,3.444.366A2.258,2.258,0,0,1,245.721,295.772Zm-2.314-2.992a1.49,1.49,0,1,0,2.362.059A1.622,1.622,0,0,0,243.407,292.78Z" transform="translate(-228.742 -273.688)"/>
      <path id="Path_620" data-name="Path 620" d="M250.328,305.621a2.271,2.271,0,0,0,.412,1.12c.379.5.809.551,1.123.314.331-.249.364-.582.167-1.236-.271-.868-.136-1.475.32-1.819a1.47,1.47,0,0,1,2.107.473,2.373,2.373,0,0,1,.468,1.114l-.634.206a1.853,1.853,0,0,0-.366-.945.7.7,0,0,0-1-.247c-.315.237-.285.572-.1,1.21.246.851.17,1.437-.4,1.864-.668.5-1.531.34-2.213-.565a2.717,2.717,0,0,1-.546-1.266Z" transform="translate(-233.989 -281.835)"/>
      <path id="Path_621" data-name="Path 621" d="M260.012,315.1a1.527,1.527,0,0,0-.339,2.3,3.132,3.132,0,0,0,.99.906l-.407.491a3.853,3.853,0,0,1-1.19-1.089,2.214,2.214,0,0,1,.51-3.318,2.314,2.314,0,0,1,3.4.241,2.02,2.02,0,0,1-.61,2.924,3.216,3.216,0,0,1-.34.219Zm2.024,1.657a1.234,1.234,0,0,0,.4-1.807,1.436,1.436,0,0,0-1.925-.215Z" transform="translate(-239.897 -288.527)"/>
    </g>
    <g id="Group_63" data-name="Group 63" transform="translate(361.454 410.143)">
      <path id="Path_622" data-name="Path 622" d="M716.353,890.846,742.6,906.635l6.117-30.017-8.9,3.913-11.41-25.957-14.352,6.309,11.41,25.957Z" transform="translate(-714.058 -854.574)" fill="#fff"/>
    </g>
    <g id="Group_64" data-name="Group 64" transform="translate(372.205 426.137)">
      <path id="Path_623" data-name="Path 623" d="M747.767,909a6.173,6.173,0,0,1-1.128-1.736,3.118,3.118,0,0,1,1.759-4.442,3.33,3.33,0,0,1,4.556,1.979,4.1,4.1,0,0,1,.363,1.643l-.725.081a3.441,3.441,0,0,0-.308-1.462,2.483,2.483,0,0,0-3.5-1.421,2.433,2.433,0,0,0-1.472,3.4,2.793,2.793,0,0,0,.608.984l1.824-.77-.525-1.243.635-.268.851,2.014Z" transform="translate(-746.286 -902.52)"/>
      <path id="Path_624" data-name="Path 624" d="M751.4,920.787l4.392-1.854.337.8-4.391,1.855Zm6-1.486a.537.537,0,0,1-.418-.989.528.528,0,0,1,.709.288A.514.514,0,0,1,757.405,919.3Z" transform="translate(-749.697 -913.013)"/>
      <path id="Path_625" data-name="Path 625" d="M760.533,924.033l.337.8-6.442,2.72-.337-.8Z" transform="translate(-751.488 -916.857)"/>
      <path id="Path_626" data-name="Path 626" d="M759.823,933.553c.517-.218.958-.415,1.355-.615l.295.7-.851.392.015.036a1.431,1.431,0,0,1,1.475.81.934.934,0,0,1,.068.239l-.753.318a1.322,1.322,0,0,0-.088-.284,1.216,1.216,0,0,0-1.477-.638,2.473,2.473,0,0,0-.387.121l-2.341.989-.333-.79Z" transform="translate(-753.294 -922.791)"/>
      <path id="Path_627" data-name="Path 627" d="M765.276,947.308a2.33,2.33,0,0,1-3.255-1.2,2.266,2.266,0,0,1,1.37-3.059,2.328,2.328,0,0,1,3.251,1.193A2.258,2.258,0,0,1,765.276,947.308Zm-1.517-3.465a1.49,1.49,0,1,0,1.145,2.66c.744-.314,1.531-1.085,1.132-2.028A1.618,1.618,0,0,0,763.759,943.843Z" transform="translate(-756.643 -929.363)"/>
      <path id="Path_628" data-name="Path 628" d="M767.061,955.541l-2.189,2.057c-.248.223-.547.477-.78.661l.008.017c.3-.029.672-.08,1.035-.105l2.945-.217.357.844-3.636.124a7.264,7.264,0,0,1-3.385-.345,2.351,2.351,0,0,1-.931-.761l.587-.484a2.285,2.285,0,0,0,.685.534,2.628,2.628,0,0,0,1.173.3.619.619,0,0,0,.217-.017.762.762,0,0,0,.186-.143l3.361-3.333Z" transform="translate(-755.748 -937.274)"/>
    </g>
    <g id="Group_65" data-name="Group 65" transform="translate(369.775 271.432)">
      <path id="Path_629" data-name="Path 629" d="M742.836,438.74l1.185,2.4,2.651.385-1.918,1.87.453,2.64-2.371-1.246-2.371,1.246.453-2.64L739,441.528l2.651-.385Z" transform="translate(-739 -438.74)" fill="#fff"/>
    </g>
  </g>
</svg>
