<svg xmlns="http://www.w3.org/2000/svg" width="379.19" height="104.19" viewBox="0 0 379.19 104.19">
  <path id="Path_513" data-name="Path 513" d="M-177.045-18.26l5.555,5.885A44.822,44.822,0,0,0-167.475-8.5a22.921,22.921,0,0,0,3.383,2.392,11.421,11.421,0,0,0,3,1.21,12.921,12.921,0,0,0,2.915.33,18.283,18.283,0,0,0,8.085-2.09,35.754,35.754,0,0,0,8.085-5.555l3.41-3.08q.11.605.3,1.952t.44,3q.247,1.65.495,3.355t.412,3.025a9.261,9.261,0,0,0,.523,2.42q.357.88,1.017.88a2.837,2.837,0,0,0,.88-.192,7.912,7.912,0,0,0,1.072-.468,5.962,5.962,0,0,0,.908-.577q.385-.3.385-.523a3.658,3.658,0,0,0-.467-1.54q-.467-.935-1.045-2.2a20.925,20.925,0,0,1-1.045-2.887,12.99,12.99,0,0,1-.467-3.6q0-3.025.22-5.5t.522-4.29q.3-1.815.523-3a10.734,10.734,0,0,0,.22-1.623.731.731,0,0,0-.3-.577,3.38,3.38,0,0,0-.715-.44,3.635,3.635,0,0,0-.825-.275,3.493,3.493,0,0,0-.633-.083q-.33,0-.632.55a8.563,8.563,0,0,0-.633,1.925,21.943,21.943,0,0,1-3.437,7.535,31.531,31.531,0,0,1-5.417,5.968,27.51,27.51,0,0,1-6.023,3.933,12.887,12.887,0,0,1-5.307,1.43,6.113,6.113,0,0,1-2.723-.77,20.642,20.642,0,0,1-3.19-2.062,42.966,42.966,0,0,1-3.383-2.915q-1.705-1.622-3.273-3.355t-2.915-3.41q-1.347-1.678-2.283-3-2.145-3.135-3.548-5.06t-2.255-2.942a7.52,7.52,0,0,0-1.347-1.347,1.646,1.646,0,0,0-.88-.33,8.825,8.825,0,0,0-.908.055,9.059,9.059,0,0,0-1.018.165,4.237,4.237,0,0,0-.852.275q-.357.165-.357.44a3.088,3.088,0,0,0,.908,1.787q.907,1.073,2.035,2.585a18.017,18.017,0,0,1,2.035,3.6,12.211,12.211,0,0,1,.908,4.9,15.861,15.861,0,0,1-.523,3.547,40.373,40.373,0,0,1-1.347,4.427,43.156,43.156,0,0,1-1.815,4.263,13.837,13.837,0,0,1-1.87,3,7.428,7.428,0,0,0-.99,1.32,1.773,1.773,0,0,0-.22.77,1,1,0,0,0,.247.55,3.437,3.437,0,0,0,.633.633,4.823,4.823,0,0,0,.825.523,1.855,1.855,0,0,0,.825.22,11.065,11.065,0,0,0,1.238-.055,2.285,2.285,0,0,0,.742-.193.769.769,0,0,0,.385-.412,5.709,5.709,0,0,0,.22-.715,69.473,69.473,0,0,1,1.952-6.765Q-178.86-11.99-177.045-18.26ZM-118.58-15.9a16.538,16.538,0,0,1,.6-4.51,11.753,11.753,0,0,1,1.76-3.74,8.887,8.887,0,0,1,2.86-2.558,7.694,7.694,0,0,1,3.85-.962,7.783,7.783,0,0,1,3.08.633A6.942,6.942,0,0,1-103.785-25a10.826,10.826,0,0,1,1.87,3.712,19.6,19.6,0,0,1,.715,5.72,14.657,14.657,0,0,1-.853,5.417A9.165,9.165,0,0,1-104.2-6.82a7.022,7.022,0,0,1-2.722,1.65,8.88,8.88,0,0,1-2.585.44,7.109,7.109,0,0,1-4.51-1.375,10.519,10.519,0,0,1-2.777-3.217,13.161,13.161,0,0,1-1.4-3.713A15.4,15.4,0,0,1-118.58-15.9Zm-3.96.88A15.914,15.914,0,0,0-121.5-9.02,13.527,13.527,0,0,0-118.8-4.7a11.061,11.061,0,0,0,3.74,2.613,10.573,10.573,0,0,0,4.125.88,12.9,12.9,0,0,0,4.978-.99A12.82,12.82,0,0,0-101.7-5.088a14.084,14.084,0,0,0,3-4.7,17.151,17.151,0,0,0,1.128-6.435,21.856,21.856,0,0,0-.88-6.573,13.394,13.394,0,0,0-2.365-4.565A9.217,9.217,0,0,0-104.28-30a10.459,10.459,0,0,0-4.18-.853,13.306,13.306,0,0,0-6.462,1.457A13.229,13.229,0,0,0-119.3-25.63a15.4,15.4,0,0,0-2.475,5.115A20.721,20.721,0,0,0-122.54-15.015Zm41.25-4.84q0-.66.027-1.843t.138-2.585q.11-1.4.275-2.86a27.289,27.289,0,0,1,.44-2.722q.055-.275.55-.495a7.352,7.352,0,0,1,1.127-.385,10.553,10.553,0,0,1,1.238-.247,7.419,7.419,0,0,1,.825-.083,2.671,2.671,0,0,1,.632.11,7.194,7.194,0,0,1,.88.3,7.389,7.389,0,0,1,.853.413,1.522,1.522,0,0,1,.495.385,6.106,6.106,0,0,1,.577.935,2.826,2.826,0,0,1,.248,1.265,11.583,11.583,0,0,1-.605,3.685,4.971,4.971,0,0,1-.825,1.4,5.6,5.6,0,0,1-1.1.99A8.908,8.908,0,0,1-76.7-20.9q-.578.275-1.073.5-1.43.66-2.035.935a2.493,2.493,0,0,1-.88.275.818.818,0,0,1-.412-.11Q-81.29-19.415-81.29-19.855Zm.6-13.805L-85.47-32.4q-1.1.275-1.1.99a1.914,1.914,0,0,0,1.155,1.65q.22.165.357,1.238t.22,2.475q.083,1.4.11,2.833t.027,2.365q0,2.09-.055,4.593t-.137,4.758q-.083,2.255-.138,3.932t-.055,2.117a8.631,8.631,0,0,1-.247,1.76A10.011,10.011,0,0,1-85.718-2.5q-.193.468-.33.742a1.22,1.22,0,0,0-.138.55.819.819,0,0,0,.44.633,3.875,3.875,0,0,0,1.073.495q.633.193,1.292.33a5.438,5.438,0,0,0,1.045.138,1.909,1.909,0,0,0,1.073-.22.89.89,0,0,0,.3-.77,6.738,6.738,0,0,0-.082-.99q-.083-.55-.165-1.458t-.165-2.337q-.083-1.43-.082-3.685V-10.56q0-1.32.055-2.667t.165-2.448a15.436,15.436,0,0,1,4.207,1.76q2.558,1.43,5.472,3.355t5.913,4.125q3,2.2,5.555,4.015T-55.66.605a6.566,6.566,0,0,0,2.475,1.21,2.051,2.051,0,0,0,.963-.413A11.55,11.55,0,0,0-50.958.44a10.371,10.371,0,0,0,1.1-1.1,1.6,1.6,0,0,0,.467-.825.888.888,0,0,0-.193-.6A.55.55,0,0,0-50-2.31a9.147,9.147,0,0,1-4.51-1.265q-.88-.55-2.255-1.375t-3-1.87q-1.623-1.045-3.41-2.172t-3.548-2.283q-2.365-1.6-4.4-2.915t-3.52-2.255Q-76.12-17.38-76.56-17.6t-.44-.385q0-.165.275-.3t1.6-.577a16.547,16.547,0,0,0,2.145-.907,9.463,9.463,0,0,0,2.173-1.513,7.415,7.415,0,0,0,1.677-2.338A7.894,7.894,0,0,0-68.475-27a4.693,4.693,0,0,0-.77-2.5,8.241,8.241,0,0,0-2.09-2.228,11.028,11.028,0,0,0-3.107-1.6,12.022,12.022,0,0,0-3.878-.6,8.843,8.843,0,0,0-1.375.083Q-80.19-33.77-80.685-33.66Zm51.92,23.045-.44,3.3a2.916,2.916,0,0,1-.632,1.32,5.3,5.3,0,0,1-1.43,1.21,8.885,8.885,0,0,1-2.145.907,9.785,9.785,0,0,1-2.722.357,12.676,12.676,0,0,1-3.19-.385,6.143,6.143,0,0,1-2.612-1.4A6.677,6.677,0,0,1-43.7-8.2a15.41,15.41,0,0,1-.632-4.84,16.692,16.692,0,0,1,1.045-5.583,20.98,20.98,0,0,1,2.86-5.417,17.137,17.137,0,0,1,4.208-4.1,8.908,8.908,0,0,1,5.088-1.623,4.581,4.581,0,0,1,1.21.138,2.7,2.7,0,0,1,1.045.632q1.21,1.1,1.622,1.43a1.293,1.293,0,0,0,.8.33,1.9,1.9,0,0,0,.715-.192,5.324,5.324,0,0,0,.88-.5,3.571,3.571,0,0,0,.77-.715,1.293,1.293,0,0,0,.33-.8A2.289,2.289,0,0,0-25.41-31.6a12.956,12.956,0,0,0-4.785-.687,18.8,18.8,0,0,0-8.14,1.622,16.907,16.907,0,0,0-5.638,4.208,16.59,16.59,0,0,0-3.272,5.885,22.1,22.1,0,0,0-1.045,6.71,16.235,16.235,0,0,0,.577,3.96,13.372,13.372,0,0,0,2.007,4.318A11.963,11.963,0,0,0-41.828-2.09,12.241,12.241,0,0,0-35.585-.66a13.344,13.344,0,0,0,1.65-.11q.88-.11,1.65-.22t1.348-.22a5.115,5.115,0,0,1,.8-.11A1.507,1.507,0,0,1-28.49.11q.22,1.43.413,2.31a6.645,6.645,0,0,0,.412,1.347,1.7,1.7,0,0,0,.44.633.891.891,0,0,0,.55.165,1.8,1.8,0,0,0,1.292-.33,1.611,1.611,0,0,0,.3-1.1,36.868,36.868,0,0,0-.248-3.877,57.649,57.649,0,0,1-.247-5.968q0-1.76-.028-2.722a6.09,6.09,0,0,0-.165-1.43.9.9,0,0,0-.357-.578,1.224,1.224,0,0,0-.55-.11,3.732,3.732,0,0,0-1.6.22A1.035,1.035,0,0,0-28.765-10.615ZM-3.08-20.57l8.635,8.8a2.638,2.638,0,0,1-.66.193,11.759,11.759,0,0,1-1.32.137q-.88.055-2.31.083t-3.575.028q-1.98,0-3.08-.028t-1.65-.083a1.272,1.272,0,0,1-.687-.193.484.484,0,0,1-.138-.357,1.392,1.392,0,0,1,.22-.66q.22-.385.935-1.65ZM-6.27-8.8H8.305a87.388,87.388,0,0,1,7.37,8.085,2.892,2.892,0,0,1,.44.715.6.6,0,0,0,.605.385h1.65A1.513,1.513,0,0,0,19.14.11a5.76,5.76,0,0,0,.88-.687,6.029,6.029,0,0,0,.743-.825,1.26,1.26,0,0,0,.3-.633.883.883,0,0,0-.22-.687,1.563,1.563,0,0,0-.578-.3q-.357-.11-.853-.275a3.067,3.067,0,0,1-1.045-.66Q15.455-6.545,13.007-8.8T7.892-13.833Q5.225-16.61,1.98-20.3t-7.7-9.075q-.6-.77-1.182-1.54a4.882,4.882,0,0,1-.687-1.1q-.275-.66-.467-1.045a1.408,1.408,0,0,0-.5-.577A1.777,1.777,0,0,0-9.3-33.88a10.309,10.309,0,0,0-1.21-.055,2.822,2.822,0,0,0-.962.22,8.945,8.945,0,0,0-1.127.522,8.817,8.817,0,0,0-.963.605q-.413.3-.413.522a.928.928,0,0,0,.55.77A6.654,6.654,0,0,1-12.1-30.14l4.51,4.565q1.87,1.87,1.87,2.97a5.238,5.238,0,0,1-.55,1.733q-.55,1.237-1.43,2.888t-2.035,3.6Q-10.89-12.43-12.1-10.505T-14.52-6.82q-1.21,1.76-2.2,3.025A15.192,15.192,0,0,1-17.985-2.31a1.547,1.547,0,0,0-.55,1.045q0,.6.935.935A7.615,7.615,0,0,0-15.125,0q.77,0,.825-.55a2.681,2.681,0,0,1,.33-1.045l2.75-4.785a4.446,4.446,0,0,1,1.815-1.9A7.277,7.277,0,0,1-6.27-8.8ZM29.81-20.24,29.15-6.655a11.765,11.765,0,0,1-.44,2.695,8.964,8.964,0,0,1-.687,1.677q-.357.633-.633,1.045a1.517,1.517,0,0,0-.275.853q0,.77,1.045.77A5.551,5.551,0,0,0,29.453.22q.688-.165,2.007-.5a1.108,1.108,0,0,0,.8-.632,2.376,2.376,0,0,0,.193-.907q0-.66-.055-1.9T32.34-6.16q0-1.375.028-3.383t.055-4.318q.028-2.31.138-4.757t.275-4.757q.825.935,2.447,2.585t3.63,3.767Q40.92-14.9,43.2-12.458T47.63-7.48a9.774,9.774,0,0,1,1.512,2.31,16.322,16.322,0,0,1,.8,2.09q.275.935.467,1.54t.468.605a2.161,2.161,0,0,0,.825-.357,9.727,9.727,0,0,0,1.237-.88,7.456,7.456,0,0,0,1.127-1.155,1.968,1.968,0,0,0,.5-1.183q0-1.76-.055-3.327T54.45-10.78q0-4.51.275-7.727t.6-5.362q.33-2.145.605-3.41a9.823,9.823,0,0,0,.275-1.815,2.075,2.075,0,0,0-.275-1.073,1.109,1.109,0,0,0-1.045-.467q-.55,0-1.21.055a7.011,7.011,0,0,0-1.265.22,3.071,3.071,0,0,0-1.018.467,1.1,1.1,0,0,0-.467.8A4.584,4.584,0,0,0,51.1-28.05q.165.66.33,1.76t.33,2.695a36.89,36.89,0,0,1,.165,3.74q0,2.7-.193,5.252T51.1-9.24q-.77-.66-2.888-2.86T43.2-17.435q-2.887-3.135-6.243-6.93t-6.545-7.59a3.466,3.466,0,0,0-.743-.743,1.161,1.161,0,0,0-.632-.192,1.689,1.689,0,0,0-.577.11,2.572,2.572,0,0,0-.743.5L25.74-30.69q-.605.44-.605.825a1,1,0,0,0,.743.99q.743.275,1.65.632a4.382,4.382,0,0,1,1.65,1.182,3.98,3.98,0,0,1,.743,2.7q0,1.045-.028,2.063T29.81-20.24ZM88.44-2.585v-9.35q0-.44.055-1.017a3.973,3.973,0,0,1,.22-1.018,17.3,17.3,0,0,1,2.612-.412q1.843-.192,4.043-.3t4.372-.193q2.173-.083,3.658-.083l.55,12.815a1.74,1.74,0,0,0,.357,1.155,1.6,1.6,0,0,0,1.073.275.913.913,0,0,0,.688-.33,3.162,3.162,0,0,0,.522-.8,6.51,6.51,0,0,0,.358-.935,2.906,2.906,0,0,0,.137-.8l.11-10.835q0-.66.55-.66a2.045,2.045,0,0,1,.5.055,1.616,1.616,0,0,0,.385.055q.66,0,.99-.852a4.021,4.021,0,0,0,.33-1.347q0-.55-.248-.687a1.427,1.427,0,0,0-.687-.137q-.44,0-.908.027t-.907.083q0-.825.027-1.953t.082-2.31q.055-1.182.165-2.337t.275-2.145a7.829,7.829,0,0,1,.385-1.43q.22-.55.385-.907t.3-.605a.968.968,0,0,0,.137-.467q0-.77-1.1-.77a7.484,7.484,0,0,0-1.265.137,10.756,10.756,0,0,0-1.512.385,6.516,6.516,0,0,0-1.292.577q-.55.33-.55.715,0,.77.165,2.365a34.392,34.392,0,0,1,.165,3.52q0,1.43-.027,2.8t-.083,2.475H88.825q.11-2.035.137-4.18t.028-4.125a6.219,6.219,0,0,1,.467-2.255,3.941,3.941,0,0,0,.412-1.43q0-.275-.467-.6a7.061,7.061,0,0,0-1.128-.632A11.2,11.2,0,0,0,86.9-31.57a4.247,4.247,0,0,0-1.21-.22,2.211,2.211,0,0,0-1.155.33,4.964,4.964,0,0,0-.963.743,4.885,4.885,0,0,0-.66.8,1.278,1.278,0,0,0-.248.55,1.018,1.018,0,0,0,.357.77q.358.33.825.687a4.395,4.395,0,0,1,.825.825,1.8,1.8,0,0,1,.357,1.127q.055,1.045.11,2.475t.083,3.08q.028,1.65.027,3.355v3.19q0,3.465-.165,6.545t-.165,5.94a1.951,1.951,0,0,0,.22,1.017A.89.89,0,0,0,85.965,0Q88.44,0,88.44-2.585Zm35.09-14.41q0,4.345.027,7.4t.083,5.06q.055,2.008.192,3.135A7.156,7.156,0,0,0,124.19.275a1.193,1.193,0,0,0,.522.687,1.644,1.644,0,0,0,.688.138A1.413,1.413,0,0,0,126.748.028a14.689,14.689,0,0,0,.412-4.373q0-9.9.137-15.592t.358-8.112a5.812,5.812,0,0,1,.3-1.623,3.963,3.963,0,0,0,.247-1.347q0-.33-.77-.8a2.727,2.727,0,0,0-1.375-.468,2.342,2.342,0,0,0-1.073.412,10.734,10.734,0,0,0-1.347.963,8.59,8.59,0,0,0-1.155,1.155,1.764,1.764,0,0,0-.495.935,2.376,2.376,0,0,0,.192.907,3.915,3.915,0,0,0,.743,1.073,1.622,1.622,0,0,1,.385.907,12.674,12.674,0,0,1,.055,1.292q0,1.43.082,3.08T123.53-16.995Zm33.825,13.31L147.4-3.3a2,2,0,0,0-.687.11,1.689,1.689,0,0,1-.577.11q-.66,0-.66-.44,0-.495.11-1.65t.22-2.7q.11-1.54.22-3.327t.11-3.492q0-1.815-.055-3.163t-.055-2.888q0-2.31.165-4.73t.165-4.895a5.021,5.021,0,0,1,.22-1.485,4.247,4.247,0,0,0,.22-1.21,1.079,1.079,0,0,0-.715-.962,2.83,2.83,0,0,0-1.21-.358,2.49,2.49,0,0,0-.963.385,11.834,11.834,0,0,0-1.375.907,10.059,10.059,0,0,0-1.21,1.072q-.523.55-.523.825a1.962,1.962,0,0,0,.275.852,8.484,8.484,0,0,1,.577,1.87,37.682,37.682,0,0,1,.577,3.74,58.833,58.833,0,0,1,.275,6.407v7.755q0,1.705-.027,2.97T142.4-5.445a2.259,2.259,0,0,1-.55,1.623A1.61,1.61,0,0,0,141.3-2.8a2.133,2.133,0,0,0,.192.632,4.79,4.79,0,0,0,.523.935,8.2,8.2,0,0,0,.688.853.987.987,0,0,0,.688.385,3.548,3.548,0,0,0,1.705-.385,2.85,2.85,0,0,1,.522-.192,4.78,4.78,0,0,1,.963-.11q.66-.028,1.787-.055t3-.028q1.76,0,2.887.028t1.788.055q.66.027.935.055a1.22,1.22,0,0,1,.385.082l1.237.413A2.856,2.856,0,0,0,159.5,0q.33,0,.633-.577a10.09,10.09,0,0,0,.55-1.265,10.482,10.482,0,0,0,.385-1.32,5.327,5.327,0,0,0,.137-.8q0-.715-.935-.715a2.727,2.727,0,0,0-1.375.468A3.428,3.428,0,0,1,157.355-3.685Zm28.545,0-9.955.385a2,2,0,0,0-.687.11,1.689,1.689,0,0,1-.577.11q-.66,0-.66-.44,0-.495.11-1.65t.22-2.7q.11-1.54.22-3.327t.11-3.492q0-1.815-.055-3.163t-.055-2.888q0-2.31.165-4.73t.165-4.895a5.021,5.021,0,0,1,.22-1.485,4.247,4.247,0,0,0,.22-1.21,1.079,1.079,0,0,0-.715-.962,2.83,2.83,0,0,0-1.21-.358,2.49,2.49,0,0,0-.963.385,11.834,11.834,0,0,0-1.375.907,10.059,10.059,0,0,0-1.21,1.072q-.523.55-.523.825a1.962,1.962,0,0,0,.275.852,8.484,8.484,0,0,1,.577,1.87,37.682,37.682,0,0,1,.577,3.74,58.833,58.833,0,0,1,.275,6.407v7.755q0,1.705-.027,2.97t-.083,2.145a2.259,2.259,0,0,1-.55,1.623,1.61,1.61,0,0,0-.55,1.018,2.133,2.133,0,0,0,.192.632,4.79,4.79,0,0,0,.523.935,8.2,8.2,0,0,0,.688.853A.987.987,0,0,0,171.93,0a3.548,3.548,0,0,0,1.705-.385,2.85,2.85,0,0,1,.522-.192,4.78,4.78,0,0,1,.963-.11q.66-.028,1.787-.055t3-.028q1.76,0,2.887.028t1.788.055q.66.027.935.055a1.22,1.22,0,0,1,.385.082l1.237.413a2.856,2.856,0,0,0,.908.138q.33,0,.633-.577a10.09,10.09,0,0,0,.55-1.265,10.482,10.482,0,0,0,.385-1.32,5.327,5.327,0,0,0,.137-.8q0-.715-.935-.715a2.727,2.727,0,0,0-1.375.468A3.428,3.428,0,0,1,185.9-3.685ZM-105.325,52.8a14.532,14.532,0,0,0,1.237,6.353,12.611,12.611,0,0,0,3.053,4.125,11.147,11.147,0,0,0,3.85,2.227,11.806,11.806,0,0,0,3.575.66,20.486,20.486,0,0,0,2.31-.138q1.21-.138,2.31-.357a18.245,18.245,0,0,0,2.035-.522,7.333,7.333,0,0,0,1.485-.632,9.332,9.332,0,0,0,1.732-1.182q.8-.687,1.43-1.347a9.635,9.635,0,0,0,.99-1.182,1.686,1.686,0,0,0,.357-.743,1.174,1.174,0,0,0-.3-.825,1.1,1.1,0,0,0-.853-.33,2.609,2.609,0,0,0-1.375.688q-.88.687-2.118,1.54a16.108,16.108,0,0,1-2.86,1.54,9.144,9.144,0,0,1-3.6.688A6.979,6.979,0,0,1-96,62.178a11.644,11.644,0,0,1-3.053-2.943,14.446,14.446,0,0,1-1.952-3.768,11.262,11.262,0,0,1-.687-3.6,18.561,18.561,0,0,1,.193-2.282,21.532,21.532,0,0,1,.688-3.163,20.611,20.611,0,0,1,1.375-3.465,12.1,12.1,0,0,1,2.282-3.163,11.613,11.613,0,0,1,3.355-2.31,10.8,10.8,0,0,1,4.592-.908,2.711,2.711,0,0,1,1.485.385,4.733,4.733,0,0,1,1.018.853q.413.467.715.853a.832.832,0,0,0,.633.385,1.837,1.837,0,0,0,.852-.3,5.371,5.371,0,0,0,.99-.743,6.019,6.019,0,0,0,.8-.907,1.477,1.477,0,0,0,.33-.8q0-.825-1.265-1.7a6.206,6.206,0,0,0-3.575-.88,23.063,23.063,0,0,0-3.493.3,18.837,18.837,0,0,0-3.988,1.1,18.349,18.349,0,0,0-3.932,2.145,14.167,14.167,0,0,0-3.383,3.465,17.921,17.921,0,0,0-2.392,5.087A24.006,24.006,0,0,0-105.325,52.8Zm46.915-4.4h-7.425a3.764,3.764,0,0,0-1.43.247,3.7,3.7,0,0,0-1.045.632,33.352,33.352,0,0,1,.935-6.765,14.132,14.132,0,0,1,1.732-4.153A5.512,5.512,0,0,1-63.388,36.3a6.234,6.234,0,0,1,2.557-.55h3.245q1.045,0,1.045-1.21a1.294,1.294,0,0,0-.825-1.292A9.091,9.091,0,0,0-60.5,32.89a10.956,10.956,0,0,0-4.482.963A9.5,9.5,0,0,0-68.805,37.1a18.6,18.6,0,0,0-2.668,5.995,35.436,35.436,0,0,0-1.017,9.213q0,1.54.11,3.245a17.828,17.828,0,0,0,.55,3.382,13.388,13.388,0,0,0,1.293,3.19A8.928,8.928,0,0,0-68.2,64.79a11.563,11.563,0,0,0,3.685,1.842,18.045,18.045,0,0,0,5.335.688,6.768,6.768,0,0,0,2.915-.44q.825-.44.825-.88a.962.962,0,0,0-.412-.935,3.945,3.945,0,0,0-1.622-.22q-5.665,0-8.25-3.327T-68.31,51.59q1.65-.055,3.767-.083t4.593-.248a1.337,1.337,0,0,0,.688-.275,8.281,8.281,0,0,0,.852-.66,7.076,7.076,0,0,0,.743-.743,1.049,1.049,0,0,0,.3-.523Q-57.365,48.4-58.41,48.4ZM-29.1,62.315l-9.955.385a2,2,0,0,0-.687.11,1.689,1.689,0,0,1-.577.11q-.66,0-.66-.44,0-.495.11-1.65t.22-2.7q.11-1.54.22-3.327t.11-3.492q0-1.815-.055-3.163t-.055-2.888q0-2.31.165-4.73t.165-4.9a5.021,5.021,0,0,1,.22-1.485,4.247,4.247,0,0,0,.22-1.21,1.079,1.079,0,0,0-.715-.962,2.83,2.83,0,0,0-1.21-.358,2.49,2.49,0,0,0-.963.385,11.834,11.834,0,0,0-1.375.907,10.059,10.059,0,0,0-1.21,1.072q-.522.55-.522.825a1.962,1.962,0,0,0,.275.852,8.484,8.484,0,0,1,.578,1.87,37.681,37.681,0,0,1,.577,3.74,58.834,58.834,0,0,1,.275,6.407V55.44q0,1.705-.027,2.97t-.083,2.145a2.259,2.259,0,0,1-.55,1.623,1.61,1.61,0,0,0-.55,1.017,2.133,2.133,0,0,0,.193.632,4.789,4.789,0,0,0,.522.935,8.2,8.2,0,0,0,.688.853.987.987,0,0,0,.688.385,3.548,3.548,0,0,0,1.7-.385,2.85,2.85,0,0,1,.523-.192,4.78,4.78,0,0,1,.962-.11q.66-.028,1.788-.055t3-.027q1.76,0,2.887.027t1.788.055q.66.028.935.055a1.22,1.22,0,0,1,.385.082l1.237.413A2.856,2.856,0,0,0-26.95,66q.33,0,.632-.577a10.092,10.092,0,0,0,.55-1.265,10.482,10.482,0,0,0,.385-1.32,5.326,5.326,0,0,0,.137-.8q0-.715-.935-.715a2.727,2.727,0,0,0-1.375.467A3.428,3.428,0,0,1-29.1,62.315Zm28.545,0-9.955.385a2,2,0,0,0-.687.11,1.689,1.689,0,0,1-.578.11q-.66,0-.66-.44,0-.495.11-1.65t.22-2.7q.11-1.54.22-3.327t.11-3.492q0-1.815-.055-3.163t-.055-2.888q0-2.31.165-4.73t.165-4.9a5.021,5.021,0,0,1,.22-1.485,4.247,4.247,0,0,0,.22-1.21,1.079,1.079,0,0,0-.715-.962,2.83,2.83,0,0,0-1.21-.358A2.49,2.49,0,0,0-14,32.01a11.834,11.834,0,0,0-1.375.907,10.059,10.059,0,0,0-1.21,1.072q-.523.55-.522.825a1.962,1.962,0,0,0,.275.852,8.484,8.484,0,0,1,.577,1.87,37.679,37.679,0,0,1,.578,3.74,58.833,58.833,0,0,1,.275,6.407V55.44q0,1.705-.027,2.97t-.083,2.145a2.259,2.259,0,0,1-.55,1.623,1.61,1.61,0,0,0-.55,1.017,2.133,2.133,0,0,0,.193.632,4.789,4.789,0,0,0,.522.935,8.2,8.2,0,0,0,.688.853A.987.987,0,0,0-14.52,66a3.548,3.548,0,0,0,1.7-.385,2.85,2.85,0,0,1,.523-.192,4.78,4.78,0,0,1,.963-.11q.66-.028,1.787-.055t3-.027q1.76,0,2.887.027t1.788.055q.66.028.935.055a1.22,1.22,0,0,1,.385.082l1.237.413A2.856,2.856,0,0,0,1.595,66q.33,0,.632-.577a10.092,10.092,0,0,0,.55-1.265,10.482,10.482,0,0,0,.385-1.32,5.326,5.326,0,0,0,.137-.8q0-.715-.935-.715a2.727,2.727,0,0,0-1.375.467A3.428,3.428,0,0,1-.55,62.315ZM21.395,45.43l8.635,8.8a2.638,2.638,0,0,1-.66.193,11.759,11.759,0,0,1-1.32.137q-.88.055-2.31.083t-3.575.027q-1.98,0-3.08-.027t-1.65-.083a1.272,1.272,0,0,1-.687-.192.484.484,0,0,1-.138-.357,1.392,1.392,0,0,1,.22-.66q.22-.385.935-1.65ZM18.2,57.2H32.78a87.388,87.388,0,0,1,7.37,8.085,2.892,2.892,0,0,1,.44.715.6.6,0,0,0,.605.385h1.65a1.513,1.513,0,0,0,.77-.275,5.76,5.76,0,0,0,.88-.687,6.03,6.03,0,0,0,.743-.825,1.26,1.26,0,0,0,.3-.633.883.883,0,0,0-.22-.687,1.563,1.563,0,0,0-.578-.3q-.357-.11-.853-.275a3.067,3.067,0,0,1-1.045-.66q-2.915-2.585-5.362-4.84t-5.115-5.033Q29.7,49.39,26.455,45.705t-7.7-9.075q-.605-.77-1.182-1.54a4.882,4.882,0,0,1-.687-1.1q-.275-.66-.467-1.045a1.408,1.408,0,0,0-.5-.577,1.777,1.777,0,0,0-.743-.248,10.309,10.309,0,0,0-1.21-.055,2.822,2.822,0,0,0-.962.22,8.945,8.945,0,0,0-1.127.522,8.817,8.817,0,0,0-.963.605q-.413.3-.413.522a.928.928,0,0,0,.55.77,6.654,6.654,0,0,1,1.32,1.155l4.51,4.565q1.87,1.87,1.87,2.97a5.238,5.238,0,0,1-.55,1.733q-.55,1.237-1.43,2.887t-2.035,3.6q-1.155,1.952-2.365,3.877T9.955,59.18q-1.21,1.76-2.2,3.025A15.192,15.192,0,0,1,6.49,63.69a1.547,1.547,0,0,0-.55,1.045q0,.6.935.935A7.615,7.615,0,0,0,9.35,66q.77,0,.825-.55A2.681,2.681,0,0,1,10.5,64.4l2.75-4.785a4.446,4.446,0,0,1,1.815-1.9A7.277,7.277,0,0,1,18.2,57.2Zm39.1-11.055q0-.66.027-1.843t.138-2.585q.11-1.4.275-2.86a27.288,27.288,0,0,1,.44-2.722q.055-.275.55-.5a7.352,7.352,0,0,1,1.128-.385,10.555,10.555,0,0,1,1.237-.247,7.42,7.42,0,0,1,.825-.083,2.671,2.671,0,0,1,.632.11,7.194,7.194,0,0,1,.88.3,7.389,7.389,0,0,1,.853.412,1.522,1.522,0,0,1,.495.385,6.106,6.106,0,0,1,.577.935,2.826,2.826,0,0,1,.248,1.265,11.583,11.583,0,0,1-.605,3.685,4.971,4.971,0,0,1-.825,1.4,5.6,5.6,0,0,1-1.1.99A8.908,8.908,0,0,1,61.9,45.1q-.578.275-1.073.5-1.43.66-2.035.935a2.493,2.493,0,0,1-.88.275.818.818,0,0,1-.412-.11Q57.31,46.585,57.31,46.145Zm.6-13.805L53.13,33.6q-1.1.275-1.1.99a1.914,1.914,0,0,0,1.155,1.65q.22.165.358,1.238t.22,2.475q.082,1.4.11,2.833t.027,2.365q0,2.09-.055,4.592t-.137,4.758q-.083,2.255-.138,3.932t-.055,2.118a8.631,8.631,0,0,1-.248,1.76,10.011,10.011,0,0,1-.385,1.183q-.193.467-.33.742a1.22,1.22,0,0,0-.138.55.819.819,0,0,0,.44.632,3.875,3.875,0,0,0,1.072.5q.633.193,1.292.33a5.438,5.438,0,0,0,1.045.138,1.909,1.909,0,0,0,1.072-.22.89.89,0,0,0,.3-.77,6.738,6.738,0,0,0-.083-.99q-.083-.55-.165-1.458t-.165-2.337q-.082-1.43-.082-3.685V55.44q0-1.32.055-2.667t.165-2.447a15.436,15.436,0,0,1,4.208,1.76q2.558,1.43,5.472,3.355t5.913,4.125q3,2.2,5.555,4.015t4.427,3.025a6.566,6.566,0,0,0,2.475,1.21,2.051,2.051,0,0,0,.963-.413,11.551,11.551,0,0,0,1.265-.962,10.371,10.371,0,0,0,1.1-1.1,1.6,1.6,0,0,0,.467-.825.888.888,0,0,0-.193-.6.55.55,0,0,0-.412-.22,9.147,9.147,0,0,1-4.51-1.265q-.88-.55-2.255-1.375t-3-1.87q-1.622-1.045-3.41-2.173t-3.548-2.283q-2.365-1.595-4.4-2.915t-3.52-2.255Q62.48,48.62,62.04,48.4t-.44-.385q0-.165.275-.3t1.595-.577a16.547,16.547,0,0,0,2.145-.908,9.463,9.463,0,0,0,2.173-1.513,7.415,7.415,0,0,0,1.677-2.338A7.894,7.894,0,0,0,70.125,39a4.693,4.693,0,0,0-.77-2.5,8.241,8.241,0,0,0-2.09-2.228,11.028,11.028,0,0,0-3.107-1.6,12.022,12.022,0,0,0-3.877-.6,8.843,8.843,0,0,0-1.375.083Q58.41,32.23,57.915,32.34Zm36.19,31.4a4.439,4.439,0,0,0,.11,1.017q.11.468.275.963a1.416,1.416,0,0,0,.688.577,11.349,11.349,0,0,0,1.32.577,10.964,10.964,0,0,0,1.513.44,6.287,6.287,0,0,0,1.265.165,4.526,4.526,0,0,0,3.217-1.155,9.379,9.379,0,0,0,1.98-2.613,11.025,11.025,0,0,0,1.017-2.833,11.916,11.916,0,0,0,.275-1.815,15.378,15.378,0,0,0-.935-5.088q-.935-2.667-2.062-5.17t-2.062-4.675a9.575,9.575,0,0,1-.935-3.6,5.22,5.22,0,0,1,1.6-3.877q1.595-1.567,5.225-1.678a3.844,3.844,0,0,0,1.952-.385,1.819,1.819,0,0,0,.412-1.43.871.871,0,0,0-.55-.743,5.686,5.686,0,0,0-1.265-.495,9.731,9.731,0,0,0-1.457-.275,11.087,11.087,0,0,0-1.128-.083,5.365,5.365,0,0,0-3.382,1.292,14.641,14.641,0,0,0-2.86,3.053,19.355,19.355,0,0,0-1.98,3.493,7.478,7.478,0,0,0-.743,2.667,7.863,7.863,0,0,0,.522,2.53q.523,1.485,1.292,3.163t1.678,3.465q.907,1.788,1.677,3.465t1.293,3.163a7.968,7.968,0,0,1,.522,2.585,3.279,3.279,0,0,1-.908,2.228,3.051,3.051,0,0,1-2.393,1.017,5.746,5.746,0,0,1-2.585-.522,4.192,4.192,0,0,0-1.815-.522.736.736,0,0,0-.522.248A1.184,1.184,0,0,0,94.105,63.745Z" transform="translate(188.44 35.375)" fill="#522a2a" stroke="#522a2a" stroke-width="2"/>
</svg>
