<svg xmlns="http://www.w3.org/2000/svg" width="302.152" height="350.151" viewBox="0 0 302.152 350.151">
  <g id="Group_94" data-name="Group 94" transform="translate(-35.848 -951.641)">
    <g id="Layer_2" data-name="Layer 2" transform="translate(36.425 951.641)">
      <g id="Italy" transform="translate(0)">
        <path id="Path_632" data-name="Path 632" d="M37.518,108.284l-6.072,4.048-2.024-1.012-2.53,2.024-2.53-.506-2.024,1.012-1.518-1.012V111.32l-1.012-1.012,1.518-1.518v-1.518l3.036-1.012v-1.518l1.012-1.518L24.362,101.2l.506-1.518-2.53,1.012-5.06,1.012L13.736,98.67,9.182,97.152,8.17,95.128,5.64,92.6l.506-1.518H7.158l-2.53-3.542L7.664,84.5V82.984l.506-1.012,2.024-.506-1.012-2.53.506-1.518L8.17,76.406H6.146l-2.53-2.53-.506-2.53L1.086,69.322.58,67.3l3.542-2.024,1.012,1.012,2.53-1.012,1.518-1.012,1.518-.506,1.518-1.012,1.012-1.012L12.218,60.72l2.024-3.036-2.024-3.036L10.7,54.142l-1.012-2.53.506-2.024-2.53-.506-2.53-3.036.506-2.53L6.146,42.5,9.182,42l2.024-1.518,1.012,1.012L15.254,42l2.024-2.024,3.036,1.012,3.542-2.53,2.53-.506L27.9,39.974h1.518l1.012.506,2.024-3.036H33.47l1.518-3.036L37.012,33.4l.506-2.53-1.012-1.518,5.06-3.542-.506-1.518,2.53-1.012,2.024-1.012V25.3L44.6,28.336l2.024,1.518,2.024,2.53V33.4l2.024,1.012,1.518-.506,2.024,2.024L53.2,38.456l2.024,1.012.506,2.024v2.024h2.024l1.012,1.012L59.782,42,57.7,39.083l-.445-.627,1.518-1.012V36.432l2.024-2.024,2.024-2.53,1.518-3.036,1.012-1.518L63.83,23.276l1.012-1.518,2.53-.506,1.012,1.012.506-1.012v4.554l2.024.506,1.012,2.024H73.95l1.518-2.024,1.012.506,3.036-1.012H81.54v2.53l1.518,1.012V30.36l1.012.506,1.518-1.518-1.012-3.036,1.012-2.024-2.53-1.518-.506-4.554,5.06-2.024v2.024l4.554,1.518,1.012-2.53L91.154,16.7,90.142,15.18l1.518-1.012-2.024-1.012,2.024-.506-.506-1.012.506-2.53,2.53.506L96.214,8.6,99.25,9.614l-1.012,2.53,7.084-.506,2.024-4.048,1.012-1.518V5.06l4.554-1.012,1.012,1.518,2.024-2.53,1.012,1.518,1.518-.506,3.542.506L131.633,0l1.518,1.012-.506,2.024-2.024.506,1.518,2.53,2.53,2.024-.506,3.036h2.024l1.012,2.024,2.53,1.012h5.06l1.012,1.518.506-1.012.506,1.518H153.9l4.048,1.518,3.036-1.518,8.6,2.53-1.518,2.53h-2.53v2.024L162.5,24.288v1.518l-2.024.506,1.518,2.53h2.024l1.518.506h2.53v1.518L165.029,33.9l-.506,2.024,1.012,1.518,2.024-.506-.506,3.036,2.024,4.554H171.1l4.048,3.542-2.024,2.024-2.53-.506.506-1.518-2.53-3.036-.506-.506-1.012.506h-.506l-.506,1.012-2.53.506L162.5,45.54h-3.036l-1.012-1.012-2.024.506-1.012,1.012.506.506,1.012.506-1.012,2.024-4.048.506-3.036,2.53L145.3,54.142l-4.048,2.024-1.518-1.012,1.012-1.012,1.518.506-1.012-2.024-.506,1.012-2.53,1.012-2.024,1.012-1.012,7.59,2.024,1.012.506,1.518L136.693,67.3v1.518l1.012,1.012v1.518h3.036V73.37l1.012,2.024-.506.506h-1.518l-.506,1.012-1.518-.506-.506,2.53-.506,2.53.506,1.012.506,5.06,1.012,4.554.506,3.542,4.554,6.072,5.06,3.542,4.048,2.024,4.554,2.53,3.542,3.542,4.554,3.036,1.518,1.012,2.53-.506,2.53,2.53-.506,2.024,1.518,1.012,2.024,4.554,1.518,3.542,2.024,3.036v3.036l1.012,4.048,1.012,3.036,1.012,3.036,7.59,9.614,6.072,4.048-.506,1.012,5.06,3.036h1.518v2.024l.506,1.012,2.53.506,2.53,1.012,2.024,1.012,2.024,1.518,4.048,1.012H221.2v.506h-2.53v.506h3.542l1.518-2.024h3.036l-.506,1.012.506.506,1.012.506,1.518-.506v-.506l-.506-.506-.506-.506,2.024-.506h2.024l1.518-.506h2.024l1.518,1.012,2.024,1.012-.506,2.53v1.012l-1.012,1.518-1.518,1.012-1.012.506-3.036,2.53v1.012l1.012,1.012V185.7l.506,1.012,1.012,1.518,1.518,1.012,1.012,1.012,3.542-.506,9.614,4.048,4.554,1.012,3.036,1.012,1.518,1.012h3.542l.506,1.012,2.024.506,2.53,1.518,2.53,1.518,2.024,2.53,4.048,1.518,4.048,1.518,3.036,2.024,3.542.506L289,212.519l1.012,2.024,3.036,1.012,3.542,1.518,4.048,4.554,1.012,3.036.506,1.518-.506,3.036-1.012,2.53-.506,1.518v2.53l-.506,1.012h-4.554l-5.06-4.048-.506-4.554-2.53-3.542-.506-1.518-3.542-1.012h-3.542l-2.53.506h-1.518l-3.036-1.518h-1.518l-2.024-3.542-2.53-1.012-1.012-.506-1.518,1.012-1.012,1.012-2.024,1.012-2.53,5.566-1.012,4.048-3.036,3.542,1.012,1.012V236.3l-1.012,1.518-1.518,1.518v4.554l.506,2.024,1.012,1.518h6.072v1.012l9.108,5.566.506,1.518-.506.506v3.036l1.012,1.012V261.6h-.506v3.036l.506,1.518h1.518v1.518l-1.012,1.518-1.012,1.518h-1.518l-1.012-.506h-1.518l-1.012.506h-1.518l-.506,1.012h-1.518l-.506,1.012-2.024,1.012-1.518,2.024-1.012,1.012V278.8l.506,2.53.506,2.53v4.048l-3.036,3.542-3.036,1.518-1.518,2.53-2.024,2.53L247,299.551v3.036l-1.012,1.518-1.012,1.518-1.012.506h-2.024l-2.53.506h-2.53l-3.036-1.518-.506-2.53-.506-1.518.506-2.024-1.012-1.518-.506-1.518,1.518-1.518,2.53-.506h1.012l.506-1.518,1.012-1.518v-2.024l1.012-2.024.506-1.012v-1.012l-2.53-2.024v-1.012l2.024-1.012,1.518-1.518,1.518-.506,1.518.506,2.024-3.036v-4.048l-1.012-.506-1.518-2.024v-3.036l-1.012-.506v-3.036l-1.012-.506.506-4.048-2.024-2.53-1.012-1.518-2.53-3.036-1.518-3.542-1.012-3.542-.506-3.542-1.012-2.024-1.012-1.518-1.518-2.024h-1.518l-1.518-.506h-1.012l-1.012,2.024-1.012.506H221.7l-1.518-1.518-.506-1.012-3.542-3.036-3.036.506-2.024-2.53-.506-1.012,1.518-4.048-.506-1.012-3.542-6.072-1.518-1.518-2.53.506h-2.024l-2.53,1.012-1.518.506-1.518-.506,1.012-1.012.506-1.518-1.012-1.012-2.024-1.518-1.012-.506-1.012-.506h-5.566l-1.012-2.53-1.012-2.53-3.542-3.542-2.024-3.542-2.53-1.518h-1.518l-1.518,1.518-3.036-2.024-2.024-.506h-3.036l-2.024,1.012-1.518.506-1.518.506-1.518-1.012-.506-2.53-1.518-1.012-2.53-1.518-2.53-.506-3.036-.506-2.024-2.53-1.518-2.53-1.518-1.518-2.024-1.518-2.024-1.012h-.506l-1.012-2.53.506-1.012L137.2,177.1l-1.518-2.024-2.024-1.012-2.53-1.012-2.53-1.012-1.012-1.012-1.518-2.53-1.012-2.024v-1.012l-4.554-3.036-1.518-1.012-1.518-1.012h-2.024l-2.024-.506-2.024.506-1.012-1.012h4.048l-1.012-2.024-2.024-1.518-1.012-.506v-3.036l-1.012-1.518-1.518-1.012-1.518-.506-1.012-.506-2.53-.506-.506-1.012-.506-2.53-.506-.506-1.012-1.012-1.518-1.012H94.7v-1.518l.506-1.012v-2.53l.506-.506v-4.048l-.506-.506v-1.518l-3.542-4.554-1.012-2.024-1.012-1.518-.506-3.036v-6.072l-1.518-2.53-2.024-3.542-2.024-2.024-2.024-1.012-2.53-.506-1.518.506-3.542-2.53L69.4,98.67l-2.024-1.518-2.024-1.518-2.024-1.518-.506.506-1.012.506H61.3l-.506-.506L59.276,93.61,57.252,93.1,55.734,92.6H53.71l-2.024-.506L49.662,93.1l-2.024,1.518-2.53,2.024-1.012.506L43.59,98.67l-.506.506-2.024,1.518-1.012,1.012Z" transform="translate(-0.58)" fill="#f8f4e0"/>
        <path id="Path_633" data-name="Path 633" d="M176.17,288.506v1.518h-.506v1.012H171.11v.506h-2.024l-.506-.506v-1.012l.506-.506h3.036v-.506l.506-.506h3.036V288h.506Z" transform="translate(-83.572 -142.273)" fill="#f8f4e0"/>
        <path id="Path_634" data-name="Path 634" d="M374.07,584v4.048l-.506,1.012v1.518l-.506,1.012-1.518,1.518-1.012,2.024-1.012,1.012L368,598.168l-.506,2.024-1.012.506-.506.506-.506,3.036v4.048l-1.012,1.518-1.012,2.53v1.518l.506,1.012v1.012l1.518,2.024,2.53,1.012-.506,2.53v2.024l2.024,1.012.506,2.024-1.518,1.518-1.518,1.012-1.518,2.024-.506,2.53v2.53l.506,1.012v1.518H363.95l-1.518-1.518h-1.518l-.506-.506H359.9l-1.518.506v.506H353.83l-2.024-1.518h-1.518l-.506-.506h-1.518l-1.012-2.024-1.012-2.024-1.518-2.024-1.518-1.518-1.012-1.012-2.024-.506L338.65,626l-1.012-.506-.506.506H334.6l-1.012.506h-1.518L331.06,626l-1.012-1.012v-.506h-1.012l-.506.506-2.024-1.012-1.012-1.012-1.012-.506-2.024-1.518-.506-.506h-2.024l-.506-.506-1.518-1.012-2.53-2.024-1.012-.506-3.036-2.53h-4.048l-1.518-2.024h-2.024v-.506h-2.53l-.506,1.012h-2.53l-.506-1.518-.506-1.012-2.024-.506-2.024-.506v-1.518l-.506-1.012-1.518-1.012-.506-1.518.506-.506,1.518-.506v-2.53l.506-1.012v-1.012l.506-1.012,1.518-1.518v-.506h2.024l3.542-3.542v2.024l1.518,1.518,1.012.506v.506h1.012l1.012-.506.506-.506,1.518-.506h1.012v-1.518h-.506V592.1l1.012-.506.506-1.518h2.53l1.012-.506.506-.506h1.012l1.518.506v1.518l.506.506L317.9,592.6h2.024l1.518.506.506,1.012,1.012,1.012,1.518.506,1.012.506,1.012.506,1.012-.506,1.518-.506h.506l1.012-.506.506-.506.506-.506H334.6l2.53.506h4.048l.506-.506,2.024-.506,2.53-.506h1.012l2.024-1.012,1.012-.506,1.012-1.012.506-1.012.506-1.012,4.048-.506,1.518-.506,1.518.506h1.012l1.012,1.012h1.518l1.518-1.012.506-.506,1.012-1.012L368,585.012l2.53-1.012Z" transform="translate(-143.841 -288.497)" fill="#f8f4e0"/>
        <path id="Path_635" data-name="Path 635" d="M95.41,395l1.518,1.012.506,1.518h3.036l.506.506v1.518l1.518.506,1.012-1.012v2.53l1.012,1.012v3.542l2.024.506,1.518,2.024v1.012l-.506,1.518v1.518l1.518,1.012.506,2.53v1.012l1.518,1.012.506,2.024v2.024l-1.518,1.518v1.012l-1.012,1.012-1.012,1.012-1.518,1.012v2.53l.506,2.024,1.012,1.012,1.012,1.518v1.518l-.506,1.012-1.012,1.518.506,1.518.506,2.53-1.012,1.518v2.53l-1.012.506.506,2.024v7.084l-.506.506-.506,1.012-.506,1.518v4.048l-1.012,2.53v1.012H100.47l-1.012-1.012-1.012-1.012-2.024-.506H94.4l-2.024-1.012-.506.506-1.012,1.012v.506l-1.012,2.53.506,1.012.506,1.518-1.012,2.024-2.024,1.518-1.012,1.012h-2.53l-1.012-1.012H82.254l-1.518,1.012-1.518-.506-.506-2.53-.506-1.518-1.518-1.518-1.012-1.012-.506-2.024-1.518-.506-.506-1.518V462.8h1.518V460.78l-.506-1.012-.506-2.024V455.72l1.012-2.024.506-.506-.506-4.554.506-2.53,2.024,1.012v-2.024l1.012-1.518v-1.518l-1.012-.506-2.53-1.012-.506-3.036,2.53-3.036-.506-.506v-3.036l-.506-3.036-1.012-1.012-1.012-1.518,1.012-2.024-1.012-1.518-1.012-1.012-.506-2.53-1.012-.506-1.518-.506-1.518-.506V415.24l.506-.506-.506-1.518L67.58,411.7l1.518-2.024.506-3.036,2.53,2.024,1.518.506.506-1.012.506,1.518H77.7l1.518-1.012,1.518-.506,1.012-1.518H82.76l2.024-1.012,1.518-.506.506-1.518.506-.506.506-1.012,1.518-1.518,1.518-1.518h1.012l1.012-.506H94.4v-1.518Z" transform="translate(-33.678 -195.131)" fill="#f8f4e0"/>
        <path id="Path_636" data-name="Path 636" d="M79.1,544.06l.506-1.518,1.012-1.012v-1.012H80.11v-.506H79.6v-.506L79.1,539H78.086v.506H77.58v1.518h0l.506,1.518v.506Z" transform="translate(-38.618 -266.267)" fill="#f8f4e0"/>
        <path id="Path_637" data-name="Path 637" d="M72.1,537.024v-.506H72.6v-1.012H71.592V535H70.58l.506,1.012v.506l.506.506Z" transform="translate(-35.16 -264.291)" fill="#f8f4e0"/>
        <path id="Path_638" data-name="Path 638" d="M360.58,424v1.518H362.1v-1.012Z" transform="translate(-178.421 -209.457)" fill="#f8f4e0"/>
      </g>
      <g id="Piemonte" transform="translate(0 22.264)">
        <path id="Path_639" data-name="Path 639" d="M25.374,124.96c-.339-.673-.678-1.351-1.012-2.024.167-.506.334-1.012.506-1.518l-2.53,1.012-2.53.506-2.53.506-3.542-3.036-2.53-1.012-2.024-.506c-.339-.673-.678-1.351-1.012-2.024l-2.53-2.53c.167-.506.334-1.012.506-1.518H7.158l-2.53-3.542,2.024-2.024,1.012-1.012V104.72c.167-.339.334-.673.506-1.012l2.024-.506c-.339-.845-.678-1.685-1.012-2.53.167-.506.334-1.012.506-1.518L8.17,98.142l-.713.283-1.311-.283-2.53-2.53-.506-2.53L1.086,91.058C.914,90.385.747,89.707.58,89.034L2.655,87.87l1.467-.86,1.012,1.012,2.53-1.012L9.182,86h0l1.518-.506,1.518-1.012c.334-.339.673-.673,1.012-1.012h0l-1.012-1.012,1.159-1.462.865-1.574L12.43,76.991l.815-1.113,1.012,1.012,1.012.506,1.012-1.518h2.53l2.024-1.518,2.024-1.012,1.012-1.012,1.012,1.518,1.012.506,1.012.506,1.012-.506,1.012-.506,1.012-1.012h1.012l1.012-.506V70.312L32.979,69.3l-2.024-2.53V61.2l1.518-2.024h1.012c.334,0,1.518-3.036,1.518-3.036l2.024-1.012c.167-.845.334-1.685.506-2.53-.339-.506-.678-1.012-1.012-1.518l2.024-1.518,1.012-.506,2.024-1.518-.506-1.518,2.53-1.012L45.629,44l.506,1.012-.506,2.024-.086,1.644L44.6,50.072l2.024,1.518,2.024,2.53v1.012l2.024,1.012v2.53l-1.012,1.518-.506,1.518-1.012.506H46.626l-.506.506,1.012,1.518,1.012.506-.506,1.518-1.012.506,1.012,1.012v1.012h1.518v2.024l1.518.506-1.518,1.012,2.024,1.012v3.036L53.2,77.4v1.518l1.012,1.518-2.53.506.506,1.012L51.18,82.962l-.506.506h-.506L49.156,81.95h-2.53l.506,1.012-1.518,1.012,1.012.506V86.5l1.012,2.024,1.012.506v3.542h2.024l.506.506.506.506L53.71,92.07h1.012l.506-.506v2.024l1.012.506,1.012.506v1.012l2.024,2.53-.506,1.012,1.518,1.518H61.3l1.518,1.518v4.554l-.506,1.012-1.518.506-1.012-1.518H58.77l-.506-1.518-2.024-.506-1.012,1.518-.506,1.518-1.518.506-1.518,1.012-1.518-1.012-1.518.506-1.518,1.012-.506,1.012-3.036-.506L42.578,111.3l-1.518-.506-2.024-1.012L38.024,111.8l1.012,1.012-1.012,1.518H36.506v2.024l-1.012.506H34.482l.506,1.012v1.518l.506,1.012v2.024h-2.53v1.518H30.94l-1.518-.506-2.024-.506H26.386C26.047,123.609,25.708,124.287,25.374,124.96Z" transform="translate(-0.58 -44)" fill="#e2d080" stroke="#522a2a" stroke-miterlimit="10" stroke-width="1"/>
      </g>
    </g>
    <text id="Piemonte-2" data-name="Piemonte" transform="translate(53.376 1028.082)" fill="#522a2a" font-size="16" font-family="Tahoma-Bold, Tahoma" font-weight="700"><tspan x="0" y="0">Piemonte</tspan></text>
  </g>
</svg>
