<svg xmlns="http://www.w3.org/2000/svg" width="302.5" height="351.724" viewBox="0 0 302.5 351.724">
  <g id="Group_96" data-name="Group 96" transform="translate(-36 -4382)">
    <g id="Layer_2" data-name="Layer 2" transform="translate(36 4382)">
      <g id="Italy">
        <path id="Path_648" data-name="Path 648" d="M37.051,111.666l-6.091,4.174L28.93,114.8l-2.538,2.087-2.538-.522-2.03,1.044L20.3,116.363V114.8l-1.015-1.044,1.523-1.565v-1.565l3.045-1.044v-1.565l1.015-1.565-1.015-2.087.508-1.565-2.538,1.044-5.076,1.044L13.2,101.752l-4.568-1.565L7.613,98.1,5.076,95.491l.508-1.565H6.6L4.06,90.272l3.045-3.131V85.576l.508-1.044,2.03-.522L8.628,81.4l.508-1.565L7.613,78.793H5.583L3.045,76.184l-.508-2.609L.508,71.487,0,69.4l3.553-2.087,1.015,1.044,2.538-1.044,1.523-1.044,1.523-.522L11.674,64.7l1.015-1.044-1.015-1.044,2.03-3.131-2.03-3.131-1.523-.522L9.136,53.224l.508-2.087-2.538-.522L4.568,47.484l.508-2.609.508-1.044,3.045-.522,2.03-1.565,1.015,1.044,3.045.522,2.03-2.087,3.045,1.044,3.553-2.609,2.538-.522,1.523,2.087H28.93l1.015.522,2.03-3.131h1.015l1.523-3.131,2.03-1.044.508-2.609-1.015-1.565,5.076-3.653L40.6,25.047,43.142,24l2.03-1.044V26.09l-1.015,3.131,2.03,1.565,2.03,2.609v1.044l2.03,1.044,1.523-.522,2.03,2.087-1.015,2.609,2.03,1.044.508,2.087v2.087h2.03l1.015,1.044,1.015-2.609L57.3,40.3l-.452-.647,1.523-1.044V37.57l2.03-2.087,2.03-2.609,1.523-3.131,1.015-1.565L63.444,24l1.015-1.565L67,21.916l1.015,1.044.508-1.044v4.7l2.03.522,1.015,2.087h2.03l1.523-2.087,1.015.522,3.045-1.044h2.03v2.609l1.523,1.044v1.044l1.015.522,1.523-1.565-1.015-3.131,1.015-2.087-2.538-1.565-.508-4.7L87.3,16.7v2.087l4.568,1.565,1.015-2.609-2.03-.522-1.015-1.565,1.523-1.044-2.03-1.044,2.03-.522L90.852,12l.508-2.609,2.538.522,2.03-1.044,3.045,1.044-1.015,2.609L105.063,12l2.03-4.174,1.015-1.565V5.218l4.568-1.044,1.015,1.565,2.03-2.609L116.737,4.7l1.523-.522,3.553.522L131.456,0l1.523,1.044-.508,2.087-2.03.522,1.523,2.609L134.5,8.349l-.508,3.131h2.03l1.015,2.087,2.538,1.044h5.076l1.015,1.565.508-1.044.508,1.565h7.106l4.06,1.565,3.045-1.565,8.628,2.609L168,21.916h-2.538V24l-3.045,1.044v1.565l-2.03.522,1.523,2.609h2.03l1.523.522H168V31.83l-3.045,3.131-.508,2.087,1.015,1.565,2.03-.522-.508,3.131,2.03,4.7h2.03l4.06,3.653-2.03,2.087-2.538-.522.508-1.565-2.538-3.131L168,45.919l-1.015.522h-.508l-.508,1.044-2.538.522-1.015-1.044h-3.045l-1.015-1.044-2.03.522-1.015,1.044.508.522,1.015.522-1.015,2.087-4.06.522-3.045,2.609-3.553,2.087L141.1,57.92l-1.523-1.044,1.015-1.044,1.523.522L141.1,54.268l-.508,1.044-2.538,1.044-2.03,1.044-1.015,7.827,2.03,1.044.508,1.565L136.531,69.4v1.565l1.015,1.044v1.565h3.045v2.087l1.015,2.087-.508.522h-1.523l-.508,1.044-1.523-.522-.508,2.609-.508,2.609.508,1.044.508,5.218,1.015,4.7.508,3.653,4.568,6.262,5.076,3.653,4.06,2.087,4.568,2.609,3.553,3.653,4.568,3.131,1.523,1.044,2.538-.522,2.538,2.609-.508,2.087,1.523,1.044,2.03,4.7,1.523,3.653,2.03,3.131v3.131l1.015,4.174,1.015,3.131,1.015,3.131,7.613,9.914,6.091,4.174-.508,1.044,5.076,3.131H201.5v2.087l.508,1.044,2.538.522,2.538,1.044,2.03,1.044,2.03,1.565,4.06,1.044h6.091v.522h-2.538v.522h3.553l1.523-2.087h3.045l-.508,1.044.508.522,1.015.522,1.523-.522v-.522l-.508-.522-.508-.522,2.03-.522h2.03l1.523-.522h2.03l1.523,1.044,2.03,1.044-.508,2.609v1.044l-1.015,1.565-1.523,1.044-1.015.522-3.045,2.609v1.044l1.015,1.044V191.5l.508,1.044L235,194.112l1.523,1.044,1.015,1.044,3.553-.522,9.643,4.174L255.3,200.9l3.045,1.044,1.523,1.044h3.553l.508,1.044,2.03.522,2.538,1.565,2.538,1.565,2.03,2.609,4.06,1.565,4.06,1.565,3.045,2.087,3.553.522,1.523,3.131,1.015,2.087,3.045,1.044,3.553,1.565,4.06,4.7,1.015,3.131.508,1.565-.508,3.131-1.015,2.609-.508,1.565v2.609l-.508,1.044h-4.568l-5.075-4.174-.508-4.7-2.538-3.653-.508-1.565-3.553-1.044H279.66l-2.538.522H275.6l-3.045-1.565h-1.523L269,224.377l-2.538-1.044-1.015-.522-1.523,1.044-1.015,1.044-2.03,1.044-2.538,5.74-1.015,4.174-3.045,3.653,1.015,1.044v3.131l-1.015,1.565-1.523,1.565v4.7l.508,2.087,1.015,1.565h6.091v1.044l9.136,5.74.508,1.565-.508.522v3.131l1.015,1.044v1.565h-.508V272.9l.508,1.565h1.523v1.565l-1.015,1.565-1.015,1.565h-1.523l-1.015-.522h-1.523l-1.015.522h-1.523l-.508,1.044h-1.523l-.508,1.044-2.03,1.044-1.523,2.087-1.015,1.044v2.087l.508,2.609.508,2.609v4.174l-3.045,3.653-3.045,1.565-1.523,2.609-2.03,2.609-.508,1.565v3.131l-1.015,1.565-1.015,1.565-1.015.522H242.1l-2.538.522h-2.538l-3.045-1.565-.508-2.609-.508-1.565.508-2.087-1.015-1.565-.508-1.565,1.523-1.565,2.538-.522h1.015l.508-1.565,1.015-1.565v-2.087l1.015-2.087.508-1.044v-1.044l-2.538-2.087v-1.044l2.03-1.044,1.523-1.565,1.523-.522,1.523.522,2.03-3.131v-4.174l-1.015-.522-1.523-2.087v-3.131l-1.015-.522v-3.131l-1.015-.522.508-4.174-2.03-2.609-1.015-1.565-2.538-3.131L235,255.685l-1.015-3.653-.508-3.653-1.015-2.087-1.015-1.565-1.523-2.087H228.4l-1.523-.522H225.86l-1.015,2.087-1.015.522H221.8l-1.523-1.565-.508-1.044-3.553-3.131-3.045.522-2.03-2.609-.508-1.044,1.523-4.174-.508-1.044-3.553-6.262-1.523-1.565-2.538.522h-2.03l-2.538,1.044-1.523.522-1.523-.522,1.015-1.044.508-1.565-1.015-1.044-2.03-1.565-1.015-.522-1.015-.522h-5.583l-1.015-2.609-1.015-2.609-3.553-3.653-2.03-3.653-2.538-1.565h-1.523l-1.523,1.565-3.045-2.087-2.03-.522h-3.045l-2.03,1.044-1.523.522-1.523.522-1.523-1.044-.508-2.609-1.523-1.044-2.538-1.565-2.538-.522-3.045-.522-2.03-2.609-1.523-2.609-1.523-1.565-2.03-1.565-2.03-1.044h-.508l-1.015-2.609.508-1.044-2.03-2.087-1.523-2.087-2.03-1.044-2.538-1.044-2.538-1.044L127.4,176.37l-1.523-2.609-1.015-2.087v-1.044l-4.568-3.131-1.523-1.044-1.523-1.044h-2.03l-2.03-.522-2.03.522-1.015-1.044h4.06l-1.015-2.087-2.03-1.565-1.015-.522v-3.131l-1.015-1.565-1.523-1.044-1.523-.522-1.015-.522-2.538-.522-.508-1.044-.508-2.609-.508-.522-1.015-1.044-1.523-1.044H94.4v-1.565l.508-1.044v-2.609l.508-.522v-4.174l-.508-.522v-1.565l-3.553-4.7-1.015-2.087-1.015-1.565-.508-3.131v-6.262L87.3,114.276l-2.03-3.653-2.03-2.087-2.03-1.044-2.538-.522-1.523.522-3.553-2.609-4.568-3.131L67,100.187l-2.03-1.565-2.03-1.565-.508.522-1.015.522h-.508l-.508-.522-1.523-1.044-2.03-.522-1.523-.522h-2.03l-2.03-.522-2.03,1.044L47.2,97.578l-2.538,2.087-1.015.522-.508,1.565-.508.522-2.03,1.565-1.015,1.044Z" fill="#f8f4e0"/>
        <path id="Path_649" data-name="Path 649" d="M174.106,288.407v1.221H173.7v.814h-3.664v.407h-1.628l-.407-.407v-.814l.407-.407h2.443v-.407l.407-.407H173.7V288h.407Z" transform="translate(-82.296 -141.53)" fill="#f8f4e0"/>
        <path id="Path_650" data-name="Path 650" d="M357.17,584v3.257l-.407.814v1.221l-.407.814-1.221,1.221-.814,1.628-.814.814-1.221,1.628-.407,1.628-.814.407-.407.407-.407,2.443v3.257l-.814,1.221-.814,2.035v1.221l.407.814v.814l1.221,1.628,2.035.814-.407,2.035v1.628l1.628.814.407,1.628-1.221,1.221-1.221.814-1.221,1.628-.407,2.035v2.035l.407.814v1.221h-1.221l-1.221-1.221h-1.221l-.407-.407h-.407l-1.221.407v.407h-3.664l-1.628-1.221h-1.221l-.407-.407h-1.221l-.814-1.628-.814-1.628-1.221-1.628-1.221-1.221-.814-.814-1.628-.407-1.221-.407-.814-.407-.407.407h-2.035l-.814.407h-1.221l-.814-.407-.814-.814v-.407h-.814l-.407.407-1.628-.814-.814-.814-.814-.407-1.628-1.221-.407-.407h-1.628l-.407-.407-1.221-.814-2.035-1.628-.814-.407-2.443-2.036h-3.257l-1.221-1.628h-1.628v-.407h-2.035l-.407.814h-2.035l-.407-1.221-.407-.814-1.628-.407-1.628-.407v-1.221l-.407-.814-1.221-.814L290,599.876l.407-.407,1.221-.407v-2.035l.407-.814V595.4l.407-.814,1.221-1.221v-.407h1.628l2.85-2.85v1.628l1.221,1.221.814.407v.407h.814l.814-.407.407-.407,1.221-.407h.814v-1.221h-.407v-.814l.814-.407.407-1.221H307.1l.814-.407.407-.407h.814l1.221.407V589.7l.407.407,1.221.814h1.628l1.221.407.407.814.814.814,1.221.407.814.407.814.407.814-.407,1.221-.407h.407l.814-.407.407-.407.407-.407h2.443l2.035.407h3.257l.407-.407,1.628-.407,2.035-.407h.814l1.628-.814.814-.407.814-.814.407-.814.407-.814,3.257-.407,1.221-.407,1.221.407h.814l.814.814h1.221l1.221-.814.407-.407.814-.814,1.628-1.221L354.32,584Z" transform="translate(-131.657 -276.742)" fill="#f8f4e0"/>
        <path id="Path_651" data-name="Path 651" d="M89.39,395l1.221.814.407,1.221h2.443l.407.407v1.221l1.221.407.814-.814v2.035l.814.814v2.85l1.628.407,1.221,1.628v.814l-.407,1.221v1.221l1.221.814.407,2.035v.814l1.221.814.407,1.628v1.628L101.2,418.2v.814l-.814.814-.814.814-1.221.814V423.5l.407,1.628.814.814.814,1.221v1.221l-.407.814-.814,1.221.407,1.221.407,2.035-.814,1.221v2.035l-.814.407.407,1.628v5.7l-.407.407-.407.814-.407,1.221v3.257l-.814,2.035v.814H93.461l-.814-.814-.814-.814-1.628-.407H88.576l-1.628-.814-.407.407-.814.814v.407l-.814,2.035.407.814.407,1.221-.814,1.628-1.628,1.221-.814.814H80.434l-.814-.814h-.814l-1.221.814-1.221-.407-.407-2.035-.407-1.221-1.221-1.221-.814-.814-.407-1.628-1.221-.407-.407-1.221V449.55H72.7v-1.628l-.407-.814-.407-1.628v-1.628l.814-1.628.407-.407-.407-3.664.407-2.035,1.628.814V435.3l.814-1.221v-1.221l-.814-.407-2.035-.814-.407-2.443,2.035-2.443-.407-.407V423.9l-.407-2.443-.814-.814-.814-1.221L72.7,417.8l-.814-1.221-.814-.814-.407-2.035-.814-.407-1.221-.407-1.221-.407v-1.221l.407-.407-.407-1.221L67,408.434l1.221-1.628.407-2.443,2.035,1.628,1.221.407.407-.814.407,1.221h2.443l1.221-.814,1.221-.407.814-1.221h.814l1.628-.814,1.221-.407.407-1.221.407-.407.407-.814,1.221-1.221,1.221-1.221h.814l.814-.407h1.221v-1.221Z" transform="translate(-39.725 -182.68)" fill="#f8f4e0"/>
        <path id="Path_652" data-name="Path 652" d="M78.221,543.071l.407-1.221.814-.814v-.814h-.407v-.407h-.407v-.407L78.221,539h-.814v.407H77v1.221h0l.407,1.221v.407Z" transform="translate(-45.654 -264.637)" fill="#f8f4e0"/>
        <path id="Path_653" data-name="Path 653" d="M71.221,536.628v-.407h.407v-.814h-.814V535H70l.407.814v.407l.407.407Z" transform="translate(-41.504 -263.149)" fill="#f8f4e0"/>
        <path id="Path_654" data-name="Path 654" d="M360,424v1.221h1.221v-.814Z" transform="translate(-177.099 -208.614)" fill="#f8f4e0"/>
      </g>
      <g id="Sicily" transform="translate(158.343 307.259)">
        <path id="Path_655" data-name="Path 655" d="M357.17,584v3.257l-.407.814v1.221l-.407.814-1.221,1.221-.814,1.628-.814.814-1.221,1.628-.407,1.628-.814.407-.407.407-.407,2.443v3.257l-.814,1.221-.814,2.035v1.221l.407.814v.814l1.221,1.628,2.035.814-.407,2.035v1.628l1.628.814.407,1.628-1.221,1.221-1.221.814-1.221,1.628-.407,2.035v2.035l.407.814v1.221h-1.221l-1.221-1.221h-1.221l-.407-.407h-.407l-1.221.407v.407h-3.664l-1.628-1.221h-1.221l-.407-.407h-1.221l-.814-1.628-.814-1.628-1.221-1.628-1.221-1.221-.814-.814-1.628-.407-1.221-.407-.814-.407-.407.407h-2.035l-.814.407h-1.221l-.814-.407-.814-.814v-.407h-.814l-.407.407-1.628-.814-.814-.814-.814-.407-1.628-1.221-.407-.407h-1.628l-.407-.407-1.221-.814-2.035-1.628-.814-.407-2.443-2.036h-3.257l-1.221-1.628h-1.628v-.407h-2.035l-.407.814h-2.035l-.407-1.221-.407-.814-1.628-.407-1.628-.407v-1.221l-.407-.814-1.221-.814L290,599.876l.407-.407,1.221-.407v-2.035l.407-.814V595.4l.407-.814,1.221-1.221v-.407h1.628l2.85-2.85v1.628l1.221,1.221.814.407v.407h.814l.814-.407.407-.407,1.221-.407h.814v-1.221h-.407v-.814l.814-.407.407-1.221H307.1l.814-.407.407-.407h.814l1.221.407V589.7l.407.407,1.221.814h1.628l1.221.407.407.814.814.814,1.221.407.814.407.814.407.814-.407,1.221-.407h.407l.814-.407.407-.407.407-.407h2.443l2.035.407h3.257l.407-.407,1.628-.407,2.035-.407h.814l1.628-.814.814-.407.814-.814.407-.814.407-.814,3.257-.407,1.221-.407,1.221.407h.814l.814.814h1.221l1.221-.814.407-.407.814-.814,1.628-1.221L354.32,584Z" transform="translate(-290 -584)" fill="#e2d080" stroke="#522a2a" stroke-miterlimit="10" stroke-width="1"/>
      </g>
    </g>
    <text id="Sicily-2" data-name="Sicily" transform="translate(205.96 4714.698)" fill="#522a2a" stroke="#e2d080" stroke-width="1" font-size="17" font-family="Tahoma-Bold, Tahoma" font-weight="700"><tspan x="0" y="0">Sicily</tspan></text>
  </g>
</svg>
